<?xml version="1.0" encoding="UTF-8"?>
<!DOCTYPE svg PUBLIC "-//W3C//DTD SVG 1.1//EN" "http://www.w3.org/Graphics/SVG/1.1/DTD/svg11.dtd">
<svg xmlns="http://www.w3.org/2000/svg" version="1.1" width="147px" height="36px" style="shape-rendering:geometricPrecision; text-rendering:geometricPrecision; image-rendering:optimizeQuality; fill-rule:evenodd; clip-rule:evenodd" xmlns:xlink="http://www.w3.org/1999/xlink">
<g><path style="opacity:0.83" fill="#fefffe" d="M 40.5,6.5 C 42.5,6.5 44.5,6.5 46.5,6.5C 46.5,8.5 46.5,10.5 46.5,12.5C 48.5,12.5 50.5,12.5 52.5,12.5C 52.3433,13.8734 52.51,15.2068 53,16.5C 56.4026,11.4197 60.736,10.4197 66,13.5C 67.3561,12.6198 68.8561,12.2865 70.5,12.5C 70.5,18.1667 70.5,23.8333 70.5,29.5C 65.9018,29.1482 61.2351,28.9815 56.5,29C 53.7004,24.5616 52.3671,24.7283 52.5,29.5C 48.4836,30.1001 44.9836,29.1001 42,26.5C 41.0578,22.6203 39.8911,18.787 38.5,15C 39.8945,12.3211 40.5612,9.48772 40.5,6.5 Z M 46.5,17.5 C 48.5,17.5 50.5,17.5 52.5,17.5C 52.5,19.8333 52.5,22.1667 52.5,24.5C 47.5823,24.8281 45.5823,22.4948 46.5,17.5 Z M 59.5,17.5 C 65.4152,18.6649 65.9152,20.9982 61,24.5C 58.4341,22.5734 57.9341,20.2401 59.5,17.5 Z"/></g>
<g><path style="opacity:0.832" fill="#fefffe" d="M 122.5,6.5 C 124.5,6.5 126.5,6.5 128.5,6.5C 128.338,8.5273 128.505,10.5273 129,12.5C 133.619,10.9676 137.286,12.3009 140,16.5C 141.152,28.4301 136.152,32.0968 125,27.5C 123.084,24.1016 122.084,20.4349 122,16.5C 120.859,18.6089 119.359,20.4422 117.5,22C 123.55,23.7287 123.884,26.062 118.5,29C 109.389,31.2099 105.223,27.7099 106,18.5C 107.225,13.9466 110.225,11.6133 115,11.5C 117.96,11.8113 120.294,13.1447 122,15.5C 122.498,12.5184 122.665,9.51838 122.5,6.5 Z M 130.5,17.5 C 132.948,17.0847 134.281,18.0847 134.5,20.5C 132.559,25.7971 130.559,25.7971 128.5,20.5C 129.193,19.4822 129.859,18.4822 130.5,17.5 Z"/></g>
<g><path style="opacity:0.84" fill="#fefffe" d="M 0.5,7.5 C 9.70251,5.09369 16.2025,8.09369 20,16.5C 23.4026,11.4197 27.736,10.4197 33,13.5C 34.3561,12.6198 35.8561,12.2865 37.5,12.5C 37.5,18.1667 37.5,23.8333 37.5,29.5C 32.9018,29.1482 28.2351,28.9815 23.5,29C 20.312,27.0656 18.812,24.2323 19,20.5C 18.2703,24.8963 15.7703,27.7296 11.5,29C 7.84841,29.4986 4.18174,29.6653 0.5,29.5C 0.5,22.1667 0.5,14.8333 0.5,7.5 Z M 6.5,12.5 C 13.1235,14.2212 14.4568,17.7212 10.5,23C 9.20677,23.49 7.87344,23.6567 6.5,23.5C 6.5,19.8333 6.5,16.1667 6.5,12.5 Z M 26.5,17.5 C 32.4152,18.6649 32.9152,20.9982 28,24.5C 25.4341,22.5734 24.9341,20.2401 26.5,17.5 Z"/></g>
<g><path style="opacity:0.866" fill="#fefffe" d="M 81.5,7.5 C 83.5,7.5 85.5,7.5 87.5,7.5C 87.3341,12.5111 87.5007,17.5111 88,22.5C 88.414,22.9574 88.914,23.2907 89.5,23.5C 90.4948,18.2079 90.8282,12.8746 90.5,7.5C 92.5,7.5 94.5,7.5 96.5,7.5C 97.1667,28.8333 97.8333,28.8333 98.5,7.5C 100.5,7.5 102.5,7.5 104.5,7.5C 104.666,13.8421 104.5,20.1754 104,26.5C 102.491,28.8809 100.325,29.8809 97.5,29.5C 94.615,28.4002 91.7817,28.4002 89,29.5C 85.2785,29.7787 82.9452,28.1121 82,24.5C 81.5006,18.8431 81.3339,13.1764 81.5,7.5 Z"/></g>
</svg>
