<?xml version="1.0" encoding="UTF-8"?>
<!DOCTYPE svg PUBLIC "-//W3C//DTD SVG 1.1//EN" "http://www.w3.org/Graphics/SVG/1.1/DTD/svg11.dtd">
<svg xmlns="http://www.w3.org/2000/svg" version="1.1" width="60px" height="59px" style="shape-rendering:geometricPrecision; text-rendering:geometricPrecision; image-rendering:optimizeQuality; fill-rule:evenodd; clip-rule:evenodd" xmlns:xlink="http://www.w3.org/1999/xlink">
<g><path style="opacity:0.954" fill="#a006f0" d="M 10.5,-0.5 C 18.5,-0.5 26.5,-0.5 34.5,-0.5C 34.5,-0.166667 34.5,0.166667 34.5,0.5C 33.1667,0.5 31.8333,0.5 30.5,0.5C 27.8333,0.5 25.1667,0.5 22.5,0.5C 18.9581,0.187225 15.6248,0.520558 12.5,1.5C 12.5,3.83333 12.5,6.16667 12.5,8.5C 17.9753,9.48886 23.642,9.8222 29.5,9.5C 29.5,9.83333 29.5,10.1667 29.5,10.5C 28.8333,10.5 28.1667,10.5 27.5,10.5C 21.8333,10.5 16.1667,10.5 10.5,10.5C 10.5,6.83333 10.5,3.16667 10.5,-0.5 Z"/></g>
<g><path style="opacity:0.741" fill="#c25ff5" d="M 12.5,1.5 C 15.6248,0.520558 18.9581,0.187225 22.5,0.5C 22.5,0.833333 22.5,1.16667 22.5,1.5C 21.1667,1.5 20.5,2.16667 20.5,3.5C 20.5,3.83333 20.5,4.16667 20.5,4.5C 19.8333,4.5 19.1667,4.5 18.5,4.5C 18.5,3.83333 18.5,3.16667 18.5,2.5C 17.8333,1.16667 17.1667,1.16667 16.5,2.5C 16.5,3.16667 16.5,3.83333 16.5,4.5C 15.8333,4.5 15.1667,4.5 14.5,4.5C 14.5,3.83333 14.5,3.16667 14.5,2.5C 14.5,1.83333 14.1667,1.5 13.5,1.5C 13.1667,1.5 12.8333,1.5 12.5,1.5 Z"/></g>
<g><path style="opacity:0.775" fill="#cd62f5" d="M 22.5,0.5 C 25.1667,0.5 27.8333,0.5 30.5,0.5C 30.5,0.833333 30.5,1.16667 30.5,1.5C 29.5084,1.32842 28.8417,1.66175 28.5,2.5C 28.5,3.16667 28.5,3.83333 28.5,4.5C 27.8333,4.5 27.1667,4.5 26.5,4.5C 26.5,3.83333 26.5,3.16667 26.5,2.5C 25.8333,1.16667 25.1667,1.16667 24.5,2.5C 24.5,3.16667 24.5,3.83333 24.5,4.5C 23.8333,4.5 23.1667,4.5 22.5,4.5C 22.5,3.83333 22.5,3.16667 22.5,2.5C 22.5,2.16667 22.5,1.83333 22.5,1.5C 22.5,1.16667 22.5,0.833333 22.5,0.5 Z"/></g>
<g><path style="opacity:0.773" fill="#d866f5" d="M 30.5,0.5 C 31.8333,0.5 33.1667,0.5 34.5,0.5C 35.4916,0.32842 36.1583,0.661754 36.5,1.5C 36.5,1.83333 36.5,2.16667 36.5,2.5C 36.5,3.16667 36.5,3.83333 36.5,4.5C 35.8333,4.5 35.1667,4.5 34.5,4.5C 34.5,3.83333 34.5,3.16667 34.5,2.5C 33.8333,1.16667 33.1667,1.16667 32.5,2.5C 32.5,3.16667 32.5,3.83333 32.5,4.5C 31.8333,4.5 31.1667,4.5 30.5,4.5C 30.5,3.83333 30.5,3.16667 30.5,2.5C 30.5,2.16667 30.5,1.83333 30.5,1.5C 30.5,1.16667 30.5,0.833333 30.5,0.5 Z"/></g>
<g><path style="opacity:0.984" fill="#d515f0" d="M 34.5,0.5 C 34.5,0.166667 34.5,-0.166667 34.5,-0.5C 39.1667,-0.5 43.8333,-0.5 48.5,-0.5C 48.5,3.16667 48.5,6.83333 48.5,10.5C 42.1667,10.5 35.8333,10.5 29.5,10.5C 29.5,10.1667 29.5,9.83333 29.5,9.5C 32.8333,9.5 36.1667,9.5 39.5,9.5C 41.8333,9.5 44.1667,9.5 46.5,9.5C 46.8064,6.61456 46.4731,3.9479 45.5,1.5C 44.5,1.5 43.5,1.5 42.5,1.5C 41.8333,1.5 41.1667,1.5 40.5,1.5C 39.1667,1.5 37.8333,1.5 36.5,1.5C 36.1583,0.661754 35.4916,0.32842 34.5,0.5 Z"/></g>
<g><path style="opacity:0.078" fill="#f9effe" d="M 16.5,2.5 C 17.1667,2.5 17.8333,2.5 18.5,2.5C 18.5,3.16667 18.5,3.83333 18.5,4.5C 17.8333,4.5 17.1667,4.5 16.5,4.5C 16.5,3.83333 16.5,3.16667 16.5,2.5 Z"/></g>
<g><path style="opacity:0.086" fill="#f9ecfe" d="M 22.5,2.5 C 22.5,3.16667 22.5,3.83333 22.5,4.5C 21.8333,4.5 21.1667,4.5 20.5,4.5C 20.5,4.16667 20.5,3.83333 20.5,3.5C 21.1667,3.16667 21.8333,2.83333 22.5,2.5 Z"/></g>
<g><path style="opacity:0.078" fill="#faeffe" d="M 24.5,2.5 C 25.1667,2.5 25.8333,2.5 26.5,2.5C 26.5,3.16667 26.5,3.83333 26.5,4.5C 25.8333,4.5 25.1667,4.5 24.5,4.5C 24.5,3.83333 24.5,3.16667 24.5,2.5 Z"/></g>
<g><path style="opacity:0.067" fill="#fbf0fe" d="M 28.5,2.5 C 29.1667,2.5 29.8333,2.5 30.5,2.5C 30.5,3.16667 30.5,3.83333 30.5,4.5C 29.8333,4.5 29.1667,4.5 28.5,4.5C 28.5,3.83333 28.5,3.16667 28.5,2.5 Z"/></g>
<g><path style="opacity:0.059" fill="#fbf1fe" d="M 32.5,2.5 C 33.1667,2.5 33.8333,2.5 34.5,2.5C 34.5,3.16667 34.5,3.83333 34.5,4.5C 33.8333,4.5 33.1667,4.5 32.5,4.5C 32.5,3.83333 32.5,3.16667 32.5,2.5 Z"/></g>
<g><path style="opacity:0.995" fill="#d950f3" d="M 40.5,1.5 C 41.1667,1.5 41.8333,1.5 42.5,1.5C 42.5,2.16667 42.8333,2.5 43.5,2.5C 42.7701,3.71237 41.7701,4.71237 40.5,5.5C 41.5498,6.42878 41.5498,7.09545 40.5,7.5C 40.1667,7.5 39.8333,7.5 39.5,7.5C 38.8333,7.5 38.5,7.16667 38.5,6.5C 38.5,5.5 38.5,4.5 38.5,3.5C 39.1667,2.83333 39.8333,2.16667 40.5,1.5 Z"/></g>
<g><path style="opacity:0.995" fill="#e060f4" d="M 43.5,2.5 C 44.3382,2.84171 44.6716,3.50838 44.5,4.5C 44.5,5.16667 44.5,5.83333 44.5,6.5C 44.5,7.16667 44.1667,7.5 43.5,7.5C 42.3478,8.62495 41.3478,8.62495 40.5,7.5C 41.5498,7.09545 41.5498,6.42878 40.5,5.5C 41.7701,4.71237 42.7701,3.71237 43.5,2.5 Z"/></g>
<g><path style="opacity:0.058" fill="#f7eafd" d="M 12.5,1.5 C 12.8333,1.5 13.1667,1.5 13.5,1.5C 14.1667,1.5 14.5,1.83333 14.5,2.5C 14.5,3.16667 14.5,3.83333 14.5,4.5C 15.8822,5.27733 17.8822,5.94399 20.5,6.5C 19.2223,6.78219 18.2223,7.44886 17.5,8.5C 17.5,7.83333 17.1667,7.5 16.5,7.5C 15.8333,6.16667 15.1667,6.16667 14.5,7.5C 13.8333,7.5 13.5,7.83333 13.5,8.5C 13.1667,8.5 12.8333,8.5 12.5,8.5C 12.5,6.16667 12.5,3.83333 12.5,1.5 Z"/></g>
<g><path style="opacity:0.031" fill="#fbedfe" d="M 36.5,2.5 C 37.1667,2.83333 37.8333,3.16667 38.5,3.5C 38.5,4.5 38.5,5.5 38.5,6.5C 37.8333,6.83333 37.1667,7.16667 36.5,7.5C 36.44,6.95691 36.1067,6.62358 35.5,6.5C 34.8182,7.24269 34.1515,7.90935 33.5,8.5C 33.5,7.83333 33.1667,7.5 32.5,7.5C 32.5,7.16667 32.5,6.83333 32.5,6.5C 32.5,6.16667 32.5,5.83333 32.5,5.5C 34.7674,5.85445 36.1007,5.52112 36.5,4.5C 36.5,3.83333 36.5,3.16667 36.5,2.5 Z"/></g>
<g><path style="opacity:0.027" fill="#f8e7fd" d="M 32.5,5.5 C 32.5,5.83333 32.5,6.16667 32.5,6.5C 31.2223,6.78219 30.2223,7.44886 29.5,8.5C 29.5,7.83333 29.1667,7.5 28.5,7.5C 28.44,6.95691 28.1067,6.62358 27.5,6.5C 26.8182,7.24269 26.1515,7.90935 25.5,8.5C 25.5,7.83333 25.1667,7.5 24.5,7.5C 24.44,6.95691 24.1067,6.62358 23.5,6.5C 22.8182,7.24269 22.1515,7.90935 21.5,8.5C 21.5,7.83333 21.1667,7.5 20.5,7.5C 20.5,7.16667 20.5,6.83333 20.5,6.5C 24.3998,5.57007 28.3998,5.23674 32.5,5.5 Z"/></g>
<g><path style="opacity:0.296" fill="#d886f7" d="M 16.5,7.5 C 17.1667,7.5 17.5,7.83333 17.5,8.5C 18.2223,7.44886 19.2223,6.78219 20.5,6.5C 20.5,6.83333 20.5,7.16667 20.5,7.5C 21.1667,7.5 21.5,7.83333 21.5,8.5C 22.1515,7.90935 22.8182,7.24269 23.5,6.5C 24.1067,6.62358 24.44,6.95691 24.5,7.5C 25.1667,7.5 25.5,7.83333 25.5,8.5C 26.1515,7.90935 26.8182,7.24269 27.5,6.5C 28.1067,6.62358 28.44,6.95691 28.5,7.5C 29.1667,7.5 29.5,7.83333 29.5,8.5C 30.2223,7.44886 31.2223,6.78219 32.5,6.5C 32.5,6.83333 32.5,7.16667 32.5,7.5C 33.1667,7.5 33.5,7.83333 33.5,8.5C 34.1515,7.90935 34.8182,7.24269 35.5,6.5C 36.1067,6.62358 36.44,6.95691 36.5,7.5C 37.209,8.40397 38.209,8.73731 39.5,8.5C 39.5,8.83333 39.5,9.16667 39.5,9.5C 36.1667,9.5 32.8333,9.5 29.5,9.5C 23.642,9.8222 17.9753,9.48886 12.5,8.5C 12.8333,8.5 13.1667,8.5 13.5,8.5C 14.1667,8.5 14.5,8.16667 14.5,7.5C 15.1667,6.16667 15.8333,6.16667 16.5,7.5 Z"/></g>
<g><path style="opacity:0.285" fill="#f5c5fb" d="M 45.5,1.5 C 46.4731,3.9479 46.8064,6.61456 46.5,9.5C 44.1667,9.5 41.8333,9.5 39.5,9.5C 39.5,9.16667 39.5,8.83333 39.5,8.5C 39.5,8.16667 39.5,7.83333 39.5,7.5C 39.8333,7.5 40.1667,7.5 40.5,7.5C 41.3478,8.62495 42.3478,8.62495 43.5,7.5C 43.56,8.04309 43.8933,8.37642 44.5,8.5C 45.7733,7.7435 45.7733,7.07683 44.5,6.5C 44.5,5.83333 44.5,5.16667 44.5,4.5C 45.404,3.79105 45.7373,2.79105 45.5,1.5 Z"/></g>
<g><path style="opacity:0.624" fill="#dc97f9" d="M 9.5,-0.5 C 9.83333,-0.5 10.1667,-0.5 10.5,-0.5C 10.5,3.16667 10.5,6.83333 10.5,10.5C 16.1667,10.5 21.8333,10.5 27.5,10.5C 34.3134,11.4912 41.3134,11.8245 48.5,11.5C 48.5,11.8333 48.5,12.1667 48.5,12.5C 42.1667,12.5 35.8333,12.5 29.5,12.5C 23.1667,12.5 16.8333,12.5 10.5,12.5C 9.56404,8.2648 9.23071,3.93147 9.5,-0.5 Z"/></g>
<g><path style="opacity:0.624" fill="#e78cf8" d="M 48.5,-0.5 C 48.8333,-0.5 49.1667,-0.5 49.5,-0.5C 49.8168,3.70159 49.4834,7.70159 48.5,11.5C 41.3134,11.8245 34.3134,11.4912 27.5,10.5C 28.1667,10.5 28.8333,10.5 29.5,10.5C 35.8333,10.5 42.1667,10.5 48.5,10.5C 48.5,6.83333 48.5,3.16667 48.5,-0.5 Z"/></g>
<g><path style="opacity:0.079" fill="#f7edfe" d="M 10.5,12.5 C 10.5,16.1667 10.5,19.8333 10.5,23.5C 9.83333,22.5 9.16667,21.5 8.5,20.5C 8.5,19.8333 8.5,19.1667 8.5,18.5C 9.16667,16.5 9.83333,14.5 10.5,12.5 Z"/></g>
<g><path style="opacity:0.953" fill="#9e05f0" d="M 10.5,12.5 C 16.8333,12.5 23.1667,12.5 29.5,12.5C 29.5,12.8333 29.5,13.1667 29.5,13.5C 23.642,13.1778 17.9753,13.5111 12.5,14.5C 12.5,16.8333 12.5,19.1667 12.5,21.5C 14.9479,22.4731 17.6146,22.8064 20.5,22.5C 23.1667,22.5 25.8333,22.5 28.5,22.5C 28.8333,22.5 29.1667,22.5 29.5,22.5C 29.5,22.8333 29.5,23.1667 29.5,23.5C 27.5,23.5 25.5,23.5 23.5,23.5C 19.1667,23.5 14.8333,23.5 10.5,23.5C 10.5,19.8333 10.5,16.1667 10.5,12.5 Z"/></g>
<g><path style="opacity:0.578" fill="#d472f6" d="M 12.5,14.5 C 17.9753,13.5111 23.642,13.1778 29.5,13.5C 35.358,13.1778 41.0247,13.5111 46.5,14.5C 46.1667,14.5 45.8333,14.5 45.5,14.5C 44.5084,14.3284 43.8417,14.6618 43.5,15.5C 43.1667,15.5 42.8333,15.5 42.5,15.5C 41.5,15.5 40.5,15.5 39.5,15.5C 38.5,14.1667 37.5,14.1667 36.5,15.5C 36.5,16.1667 36.5,16.8333 36.5,17.5C 35.8333,17.5 35.1667,17.5 34.5,17.5C 34.5,16.8333 34.5,16.1667 34.5,15.5C 33.8333,14.1667 33.1667,14.1667 32.5,15.5C 32.5,16.1667 32.5,16.8333 32.5,17.5C 31.8333,17.5 31.1667,17.5 30.5,17.5C 30.5,16.8333 30.5,16.1667 30.5,15.5C 29.8333,14.1667 29.1667,14.1667 28.5,15.5C 28.5,16.1667 28.5,16.8333 28.5,17.5C 27.8333,17.5 27.1667,17.5 26.5,17.5C 26.5,16.8333 26.5,16.1667 26.5,15.5C 25.8333,14.1667 25.1667,14.1667 24.5,15.5C 24.5,16.1667 24.5,16.8333 24.5,17.5C 23.8333,17.5 23.1667,17.5 22.5,17.5C 22.5,16.8333 22.5,16.1667 22.5,15.5C 21.8333,14.1667 21.1667,14.1667 20.5,15.5C 20.5,16.1667 20.5,16.8333 20.5,17.5C 19.8333,17.5 19.1667,17.5 18.5,17.5C 18.5,16.8333 18.5,16.1667 18.5,15.5C 17.8333,14.1667 17.1667,14.1667 16.5,15.5C 16.5,16.1667 16.5,16.8333 16.5,17.5C 15.8333,17.5 15.1667,17.5 14.5,17.5C 14.5,16.8333 14.5,16.1667 14.5,15.5C 14.5,14.8333 14.1667,14.5 13.5,14.5C 13.1667,14.5 12.8333,14.5 12.5,14.5 Z"/></g>
<g><path style="opacity:0.984" fill="#d306f0" d="M 29.5,13.5 C 29.5,13.1667 29.5,12.8333 29.5,12.5C 35.8333,12.5 42.1667,12.5 48.5,12.5C 48.5,16.1667 48.5,19.8333 48.5,23.5C 42.1667,23.5 35.8333,23.5 29.5,23.5C 29.5,23.1667 29.5,22.8333 29.5,22.5C 35.358,22.8222 41.0247,22.4889 46.5,21.5C 46.5,19.1667 46.5,16.8333 46.5,14.5C 41.0247,13.5111 35.358,13.1778 29.5,13.5 Z"/></g>
<g><path style="opacity:0.039" fill="#fdf4fe" d="M 48.5,12.5 C 49.1667,14.1667 49.8333,15.8333 50.5,17.5C 50.5,18.1667 50.5,18.8333 50.5,19.5C 49.8333,20.8333 49.1667,22.1667 48.5,23.5C 48.5,19.8333 48.5,16.1667 48.5,12.5 Z"/></g>
<g><path style="opacity:0.063" fill="#f9f0fe" d="M 16.5,15.5 C 17.1667,15.5 17.8333,15.5 18.5,15.5C 18.5,16.1667 18.5,16.8333 18.5,17.5C 17.8333,17.5 17.1667,17.5 16.5,17.5C 16.5,16.8333 16.5,16.1667 16.5,15.5 Z"/></g>
<g><path style="opacity:0.071" fill="#f9effe" d="M 20.5,15.5 C 21.1667,15.5 21.8333,15.5 22.5,15.5C 22.5,16.1667 22.5,16.8333 22.5,17.5C 21.8333,17.5 21.1667,17.5 20.5,17.5C 20.5,16.8333 20.5,16.1667 20.5,15.5 Z"/></g>
<g><path style="opacity:0.063" fill="#faf0fe" d="M 24.5,15.5 C 25.1667,15.5 25.8333,15.5 26.5,15.5C 26.5,16.1667 26.5,16.8333 26.5,17.5C 25.8333,17.5 25.1667,17.5 24.5,17.5C 24.5,16.8333 24.5,16.1667 24.5,15.5 Z"/></g>
<g><path style="opacity:0.051" fill="#fbf2fe" d="M 28.5,15.5 C 29.1667,15.5 29.8333,15.5 30.5,15.5C 30.5,16.1667 30.5,16.8333 30.5,17.5C 29.8333,17.5 29.1667,17.5 28.5,17.5C 28.5,16.8333 28.5,16.1667 28.5,15.5 Z"/></g>
<g><path style="opacity:0.047" fill="#fbf2fe" d="M 32.5,15.5 C 33.1667,15.5 33.8333,15.5 34.5,15.5C 34.5,16.1667 34.5,16.8333 34.5,17.5C 33.8333,17.5 33.1667,17.5 32.5,17.5C 32.5,16.8333 32.5,16.1667 32.5,15.5 Z"/></g>
<g><path style="opacity:0.992" fill="#d337f2" d="M 39.5,15.5 C 40.5,15.5 41.5,15.5 42.5,15.5C 39.8333,17.1667 39.8333,18.8333 42.5,20.5C 41.5,20.5 40.5,20.5 39.5,20.5C 38.8333,20.5 38.5,20.1667 38.5,19.5C 38.5,18.5 38.5,17.5 38.5,16.5C 38.5,15.8333 38.8333,15.5 39.5,15.5 Z"/></g>
<g><path style="opacity:0.992" fill="#e05af5" d="M 42.5,15.5 C 42.8333,15.5 43.1667,15.5 43.5,15.5C 44.1667,15.5 44.5,15.8333 44.5,16.5C 44.5,17.5 44.5,18.5 44.5,19.5C 44.5,20.1667 44.1667,20.5 43.5,20.5C 43.1667,20.5 42.8333,20.5 42.5,20.5C 39.8333,18.8333 39.8333,17.1667 42.5,15.5 Z"/></g>
<g><path style="opacity:0.112" fill="#fbe8fd" d="M 45.5,14.5 C 45.8333,14.5 46.1667,14.5 46.5,14.5C 46.5,16.8333 46.5,19.1667 46.5,21.5C 46.1667,21.5 45.8333,21.5 45.5,21.5C 45.6716,20.5084 45.3382,19.8417 44.5,19.5C 44.5,18.5 44.5,17.5 44.5,16.5C 45.3382,16.1583 45.6716,15.4916 45.5,14.5 Z"/></g>
<g><path style="opacity:0.008" fill="#f3ddfd" d="M 12.5,14.5 C 12.8333,14.5 13.1667,14.5 13.5,14.5C 14.1667,14.5 14.5,14.8333 14.5,15.5C 14.5,16.1667 14.5,16.8333 14.5,17.5C 15.8822,18.2773 17.8822,18.944 20.5,19.5C 19.5084,19.3284 18.8417,19.6618 18.5,20.5C 17.8333,20.5 17.1667,20.5 16.5,20.5C 15.8333,19.1667 15.1667,19.1667 14.5,20.5C 13.8333,20.5 13.5,20.8333 13.5,21.5C 13.1667,21.5 12.8333,21.5 12.5,21.5C 12.5,19.1667 12.5,16.8333 12.5,14.5 Z"/></g>
<g><path style="opacity:0.027" fill="#f6dcfd" d="M 36.5,15.5 C 37.1667,15.8333 37.8333,16.1667 38.5,16.5C 38.5,17.5 38.5,18.5 38.5,19.5C 37.8333,19.8333 37.1667,20.1667 36.5,20.5C 35.8333,19.1667 35.1667,19.1667 34.5,20.5C 33.8333,20.5 33.1667,20.5 32.5,20.5C 31.8333,19.1667 31.1667,19.1667 30.5,20.5C 29.8333,20.5 29.1667,20.5 28.5,20.5C 27.8333,19.1667 27.1667,19.1667 26.5,20.5C 25.8333,20.5 25.1667,20.5 24.5,20.5C 23.8333,19.1667 23.1667,19.1667 22.5,20.5C 21.8333,20.5 21.1667,20.5 20.5,20.5C 20.5,20.1667 20.5,19.8333 20.5,19.5C 26.5105,18.916 31.8438,18.2493 36.5,17.5C 36.5,16.8333 36.5,16.1667 36.5,15.5 Z"/></g>
<g><path style="opacity:1" fill="#f373f6" d="M 50.5,17.5 C 54.6271,17.6349 57.2938,19.6349 58.5,23.5C 56.7973,22.3398 56.1307,23.0065 56.5,25.5C 54.8333,23.1667 52.8333,21.1667 50.5,19.5C 50.5,18.8333 50.5,18.1667 50.5,17.5 Z"/></g>
<g><path style="opacity:0.999" fill="#ae5ff5" d="M 8.5,18.5 C 8.5,19.1667 8.5,19.8333 8.5,20.5C 5.5,21.5 3.5,23.5 2.5,26.5C 2.16667,26.5 1.83333,26.5 1.5,26.5C 1.06233,25.4937 0.395666,25.4937 -0.5,26.5C -0.5,25.8333 -0.5,25.1667 -0.5,24.5C 1.50307,21.5025 4.16974,19.1691 7.5,17.5C 8.10667,17.6236 8.44001,17.9569 8.5,18.5 Z"/></g>
<g><path style="opacity:0.402" fill="#cc7ff7" d="M 16.5,20.5 C 17.1667,21.8333 17.8333,21.8333 18.5,20.5C 18.8417,19.6618 19.5084,19.3284 20.5,19.5C 20.5,19.8333 20.5,20.1667 20.5,20.5C 20.5,20.8333 20.5,21.1667 20.5,21.5C 20.5,21.8333 20.5,22.1667 20.5,22.5C 17.6146,22.8064 14.9479,22.4731 12.5,21.5C 12.8333,21.5 13.1667,21.5 13.5,21.5C 14.1667,21.5 14.5,21.1667 14.5,20.5C 15.1667,19.1667 15.8333,19.1667 16.5,20.5 Z"/></g>
<g><path style="opacity:0.412" fill="#d480f7" d="M 24.5,20.5 C 25.1667,21.8333 25.8333,21.8333 26.5,20.5C 27.1667,19.1667 27.8333,19.1667 28.5,20.5C 28.5,20.8333 28.5,21.1667 28.5,21.5C 28.5,21.8333 28.5,22.1667 28.5,22.5C 25.8333,22.5 23.1667,22.5 20.5,22.5C 20.5,22.1667 20.5,21.8333 20.5,21.5C 21.4916,21.6716 22.1583,21.3382 22.5,20.5C 23.1667,19.1667 23.8333,19.1667 24.5,20.5 Z"/></g>
<g><path style="opacity:0.408" fill="#e286f7" d="M 32.5,20.5 C 33.1667,21.8333 33.8333,21.8333 34.5,20.5C 35.1667,19.1667 35.8333,19.1667 36.5,20.5C 37.5,21.8333 38.5,21.8333 39.5,20.5C 40.5,20.5 41.5,20.5 42.5,20.5C 42.8333,20.5 43.1667,20.5 43.5,20.5C 43.8417,21.3382 44.5084,21.6716 45.5,21.5C 45.8333,21.5 46.1667,21.5 46.5,21.5C 41.0247,22.4889 35.358,22.8222 29.5,22.5C 29.1667,22.5 28.8333,22.5 28.5,22.5C 28.5,22.1667 28.5,21.8333 28.5,21.5C 29.4916,21.6716 30.1583,21.3382 30.5,20.5C 31.1667,19.1667 31.8333,19.1667 32.5,20.5 Z"/></g>
<g><path style="opacity:0.365" fill="#e5bafb" d="M 10.5,23.5 C 14.8333,23.5 19.1667,23.5 23.5,23.5C 19.5,24.1667 15.5,24.8333 11.5,25.5C 10.6618,25.8417 10.3284,26.5084 10.5,27.5C 10.5,30.5 10.5,33.5 10.5,36.5C 9.20565,32.2673 9.20565,27.9339 10.5,23.5 Z"/></g>
<g><path style="opacity:0.365" fill="#e79af9" d="M 23.5,23.5 C 25.5,23.5 27.5,23.5 29.5,23.5C 35.8333,23.5 42.1667,23.5 48.5,23.5C 48.5,24.1667 48.5,24.8333 48.5,25.5C 42.1667,25.5 35.8333,25.5 29.5,25.5C 23.5,25.5 17.5,25.5 11.5,25.5C 15.5,24.8333 19.5,24.1667 23.5,23.5 Z"/></g>
<g><path style="opacity:0.949" fill="#9f02f0" d="M 11.5,25.5 C 17.5,25.5 23.5,25.5 29.5,25.5C 29.5,25.8333 29.5,26.1667 29.5,26.5C 23.642,26.1778 17.9753,26.5111 12.5,27.5C 11.8333,27.5 11.1667,27.5 10.5,27.5C 10.3284,26.5084 10.6618,25.8417 11.5,25.5 Z"/></g>
<g><path style="opacity:0.329" fill="#e4a6f9" d="M 12.5,27.5 C 17.9753,26.5111 23.642,26.1778 29.5,26.5C 35.1667,26.5 40.8333,26.5 46.5,26.5C 46.5,29.1667 46.5,31.8333 46.5,34.5C 46.1667,34.5 45.8333,34.5 45.5,34.5C 45.7373,33.209 45.404,32.209 44.5,31.5C 44.5,30.8333 44.5,30.1667 44.5,29.5C 45.0431,29.44 45.3764,29.1067 45.5,28.5C 44.7435,27.2267 44.0768,27.2267 43.5,28.5C 43.1667,28.5 42.8333,28.5 42.5,28.5C 41.5,28.5 40.5,28.5 39.5,28.5C 38.5,27.1667 37.5,27.1667 36.5,28.5C 36.5,29.1667 36.5,29.8333 36.5,30.5C 30.3196,30.3426 24.3196,30.3426 18.5,30.5C 18.7373,29.209 18.404,28.209 17.5,27.5C 16.8333,27.5 16.5,27.8333 16.5,28.5C 16.5,29.1667 16.5,29.8333 16.5,30.5C 15.8333,30.5 15.1667,30.5 14.5,30.5C 14.5,29.8333 14.5,29.1667 14.5,28.5C 14.5,27.8333 14.1667,27.5 13.5,27.5C 13.1667,27.5 12.8333,27.5 12.5,27.5 Z M 36.5,28.5 C 37.5,27.1667 38.5,27.1667 39.5,28.5C 38.8333,28.5 38.5,28.8333 38.5,29.5C 37.8333,29.1667 37.1667,28.8333 36.5,28.5 Z M 43.5,28.5 C 44.0768,27.2267 44.7435,27.2267 45.5,28.5C 45.3764,29.1067 45.0431,29.44 44.5,29.5C 44.5,28.8333 44.1667,28.5 43.5,28.5 Z"/></g>
<g><path style="opacity:0.953" fill="#9914f1" d="M 10.5,27.5 C 11.1667,27.5 11.8333,27.5 12.5,27.5C 12.1984,30.0593 12.5318,32.3926 13.5,34.5C 13.8333,34.5 14.1667,34.5 14.5,34.5C 15.1667,35.1667 15.8333,35.8333 16.5,36.5C 14.5,36.5 12.5,36.5 10.5,36.5C 10.5,33.5 10.5,30.5 10.5,27.5 Z"/></g>
<g><path style="opacity:0.984" fill="#e577f6" d="M 29.5,26.5 C 29.5,26.1667 29.5,25.8333 29.5,25.5C 35.8333,25.5 42.1667,25.5 48.5,25.5C 49.821,29.2326 49.821,33.0659 48.5,37C 35.6599,37.8267 22.9933,37.66 10.5,36.5C 12.5,36.5 14.5,36.5 16.5,36.5C 20.8333,36.5 25.1667,36.5 29.5,36.5C 31.5,36.5 33.5,36.5 35.5,36.5C 39.5546,36.8242 43.5546,36.4909 47.5,35.5C 47.3764,34.8933 47.0431,34.56 46.5,34.5C 46.5,31.8333 46.5,29.1667 46.5,26.5C 40.8333,26.5 35.1667,26.5 29.5,26.5 Z"/></g>
<g><path style="opacity:0.118" fill="#faf0fe" d="M 17.5,27.5 C 18.404,28.209 18.7373,29.209 18.5,30.5C 17.8333,30.5 17.1667,30.5 16.5,30.5C 16.5,29.8333 16.5,29.1667 16.5,28.5C 17.1667,28.5 17.5,28.1667 17.5,27.5 Z"/></g>
<g><path style="opacity:0.995" fill="#d230f1" d="M 39.5,28.5 C 40.5,28.5 41.5,28.5 42.5,28.5C 41.9094,29.1515 41.2427,29.8182 40.5,30.5C 41.6119,31.2652 42.2786,32.2652 42.5,33.5C 41.5,33.5 40.5,33.5 39.5,33.5C 38.8333,33.5 38.5,33.1667 38.5,32.5C 38.5,31.5 38.5,30.5 38.5,29.5C 38.5,28.8333 38.8333,28.5 39.5,28.5 Z"/></g>
<g><path style="opacity:0.024" fill="#fcf4fe" d="M 36.5,28.5 C 37.1667,28.8333 37.8333,29.1667 38.5,29.5C 38.5,30.5 38.5,31.5 38.5,32.5C 37.8333,32.8333 37.1667,33.1667 36.5,33.5C 36.5,32.8333 36.5,32.1667 36.5,31.5C 37.8333,31.1667 37.8333,30.8333 36.5,30.5C 36.5,29.8333 36.5,29.1667 36.5,28.5 Z"/></g>
<g><path style="opacity:0.992" fill="#e369f5" d="M 42.5,28.5 C 42.8333,28.5 43.1667,28.5 43.5,28.5C 44.1667,28.5 44.5,28.8333 44.5,29.5C 44.5,30.1667 44.5,30.8333 44.5,31.5C 44.5,32.8333 43.8333,33.5 42.5,33.5C 42.2786,32.2652 41.6119,31.2652 40.5,30.5C 41.2427,29.8182 41.9094,29.1515 42.5,28.5 Z"/></g>
<g><path style="opacity:0.995" fill="#f660f2" d="M 58.5,23.5 C 58.8333,23.5 59.1667,23.5 59.5,23.5C 59.5,26.8333 59.5,30.1667 59.5,33.5C 58.8333,34.1667 58.1667,34.8333 57.5,35.5C 57.4431,34.391 57.1098,33.391 56.5,32.5C 56.5,30.1667 56.5,27.8333 56.5,25.5C 56.1307,23.0065 56.7973,22.3398 58.5,23.5 Z"/></g>
<g><path style="opacity:0.929" fill="#891cf1" d="M 1.5,26.5 C 1.66409,29.1873 1.49742,31.854 1,34.5C 0.617425,33.944 0.117425,33.6107 -0.5,33.5C -0.5,31.1667 -0.5,28.8333 -0.5,26.5C 0.395666,25.4937 1.06233,25.4937 1.5,26.5 Z"/></g>
<g><path style="opacity:0.055" fill="#faf3fe" d="M 12.5,27.5 C 12.8333,27.5 13.1667,27.5 13.5,27.5C 14.1667,27.5 14.5,27.8333 14.5,28.5C 14.5,29.1667 14.5,29.8333 14.5,30.5C 13.1667,30.8333 13.1667,31.1667 14.5,31.5C 14.5,32.1667 14.5,32.8333 14.5,33.5C 13.8333,33.5 13.5,33.8333 13.5,34.5C 12.5318,32.3926 12.1984,30.0593 12.5,27.5 Z"/></g>
<g><path style="opacity:0.114" fill="#f8edfd" d="M 16.5,31.5 C 17.1667,31.5 17.8333,31.5 18.5,31.5C 18.5,32.1667 18.5,32.8333 18.5,33.5C 17.8333,33.5 17.1667,33.5 16.5,33.5C 16.5,32.8333 16.5,32.1667 16.5,31.5 Z"/></g>
<g><path style="opacity:0.024" fill="#fbf3fe" d="M 28.5,31.5 C 29.1667,31.5 29.8333,31.5 30.5,31.5C 30.5,32.1667 30.5,32.8333 30.5,33.5C 29.8333,33.5 29.1667,33.5 28.5,33.5C 28.5,32.8333 28.5,32.1667 28.5,31.5 Z"/></g>
<g><path style="opacity:0.031" fill="#fcf3fe" d="M 32.5,31.5 C 33.1667,31.5 33.8333,31.5 34.5,31.5C 34.5,32.1667 34.5,32.8333 34.5,33.5C 33.8333,33.5 33.1667,33.5 32.5,33.5C 32.5,32.8333 32.5,32.1667 32.5,31.5 Z"/></g>
<g><path style="opacity:1" fill="#f77af6" d="M 56.5,32.5 C 57.1098,33.391 57.4431,34.391 57.5,35.5C 57.573,37.0269 56.9063,38.0269 55.5,38.5C 55.5,37.1667 54.8333,36.5 53.5,36.5C 54.5116,35.1283 55.5116,33.795 56.5,32.5 Z"/></g>
<g><path style="opacity:1" fill="#cb93f9" d="M 1.5,26.5 C 1.83333,26.5 2.16667,26.5 2.5,26.5C 1.80749,30.7527 2.80749,34.4193 5.5,37.5C 4.5041,37.5858 3.67076,37.2524 3,36.5C 2.53566,37.0944 2.36899,37.7611 2.5,38.5C 1.27187,37.6935 0.271873,36.6935 -0.5,35.5C -0.5,34.8333 -0.5,34.1667 -0.5,33.5C 0.117425,33.6107 0.617425,33.944 1,34.5C 1.49742,31.854 1.66409,29.1873 1.5,26.5 Z"/></g>
<g><path style="opacity:0.661" fill="#ca60f5" d="M 18.5,31.5 C 19.1667,31.5 19.8333,31.5 20.5,31.5C 20.5,32.1667 20.5,32.8333 20.5,33.5C 20.5,34.1667 20.8333,34.5 21.5,34.5C 22.5,34.5 23.5,34.5 24.5,34.5C 25.4916,34.6716 26.1583,34.3382 26.5,33.5C 26.5,32.8333 26.5,32.1667 26.5,31.5C 27.1667,31.5 27.8333,31.5 28.5,31.5C 28.5,32.1667 28.5,32.8333 28.5,33.5C 28.5,33.8333 28.5,34.1667 28.5,34.5C 28.5,34.8333 28.5,35.1667 28.5,35.5C 24.9581,35.8128 21.6248,35.4794 18.5,34.5C 18.5,34.1667 18.5,33.8333 18.5,33.5C 18.5,32.8333 18.5,32.1667 18.5,31.5 Z"/></g>
<g><path style="opacity:0.114" fill="#f9edfd" d="M 24.5,31.5 C 25.1667,31.5 25.8333,31.5 26.5,31.5C 26.5,32.1667 26.5,32.8333 26.5,33.5C 25.8333,33.5 25.1667,33.5 24.5,33.5C 24.5,32.8333 24.5,32.1667 24.5,31.5 Z"/></g>
<g><path style="opacity:0.973" fill="#b834f1" d="M 22.5,31.5 C 23.1667,31.5 23.8333,31.5 24.5,31.5C 24.5,32.1667 24.5,32.8333 24.5,33.5C 23.1667,33.5 22.5,32.8333 22.5,31.5 Z"/></g>
<g><path style="opacity:0.125" fill="#f6e2fd" d="M 20.5,31.5 C 21.1667,31.5 21.8333,31.5 22.5,31.5C 22.5,32.8333 23.1667,33.5 24.5,33.5C 24.5,33.8333 24.5,34.1667 24.5,34.5C 23.5,34.5 22.5,34.5 21.5,34.5C 20.8333,34.5 20.5,34.1667 20.5,33.5C 20.5,32.8333 20.5,32.1667 20.5,31.5 Z"/></g>
<g><path style="opacity:0.661" fill="#dd64f5" d="M 34.5,31.5 C 35.1667,31.5 35.8333,31.5 36.5,31.5C 36.5,32.1667 36.5,32.8333 36.5,33.5C 37.5,34.8333 38.5,34.8333 39.5,33.5C 40.5,33.5 41.5,33.5 42.5,33.5C 43.209,34.404 44.209,34.7373 45.5,34.5C 45.8333,34.5 46.1667,34.5 46.5,34.5C 43.0381,35.4816 39.3714,35.815 35.5,35.5C 34.8333,35.5 34.5,35.1667 34.5,34.5C 34.5,34.1667 34.5,33.8333 34.5,33.5C 34.5,32.8333 34.5,32.1667 34.5,31.5 Z"/></g>
<g><path style="opacity:1" fill="#d200f0" d="M 46.5,34.5 C 47.0431,34.56 47.3764,34.8933 47.5,35.5C 43.5546,36.4909 39.5546,36.8242 35.5,36.5C 35.5,36.1667 35.5,35.8333 35.5,35.5C 39.3714,35.815 43.0381,35.4816 46.5,34.5 Z"/></g>
<g><path style="opacity:1" fill="#b033f2" d="M 14.5,31.5 C 15.1667,31.5 15.8333,31.5 16.5,31.5C 16.5,32.1667 16.5,32.8333 16.5,33.5C 16.8417,34.3382 17.5084,34.6716 18.5,34.5C 21.6248,35.4794 24.9581,35.8128 28.5,35.5C 29.1667,35.5 29.5,35.8333 29.5,36.5C 25.1667,36.5 20.8333,36.5 16.5,36.5C 15.8333,35.8333 15.1667,35.1667 14.5,34.5C 14.5,34.1667 14.5,33.8333 14.5,33.5C 14.5,32.8333 14.5,32.1667 14.5,31.5 Z"/></g>
<g><path style="opacity:1" fill="#c83df2" d="M 30.5,31.5 C 31.1667,31.5 31.8333,31.5 32.5,31.5C 32.5,32.1667 32.5,32.8333 32.5,33.5C 32.8417,34.3382 33.5084,34.6716 34.5,34.5C 34.5,35.1667 34.8333,35.5 35.5,35.5C 35.5,35.8333 35.5,36.1667 35.5,36.5C 33.5,36.5 31.5,36.5 29.5,36.5C 29.5,35.8333 29.1667,35.5 28.5,35.5C 28.5,35.1667 28.5,34.8333 28.5,34.5C 29.4916,34.6716 30.1583,34.3382 30.5,33.5C 30.5,32.8333 30.5,32.1667 30.5,31.5 Z"/></g>
<g><path style="opacity:0.925" fill="#b060f5" d="M 5.5,37.5 C 6.5,37.8333 7.16667,38.5 7.5,39.5C 5.30228,39.4088 4.96895,40.0755 6.5,41.5C 4.59565,41.2624 3.26231,40.2624 2.5,38.5C 2.36899,37.7611 2.53566,37.0944 3,36.5C 3.67076,37.2524 4.5041,37.5858 5.5,37.5 Z"/></g>
<g><path style="opacity:1" fill="#ef6ff5" d="M 53.5,36.5 C 54.8333,36.5 55.5,37.1667 55.5,38.5C 53.2721,39.3218 52.6054,40.6552 53.5,42.5C 53.1849,45.5229 51.8516,47.8562 49.5,49.5C 48.6618,49.1583 48.3284,48.4916 48.5,47.5C 49.003,44.1542 49.6697,40.8208 50.5,37.5C 51.4168,36.8728 52.4168,36.5394 53.5,36.5 Z"/></g>
<g><path style="opacity:0.996" fill="#b35bf5" d="M 7.5,39.5 C 9.56475,39.5172 11.5648,39.8505 13.5,40.5C 13.5,40.8333 13.5,41.1667 13.5,41.5C 11.901,41.2322 10.5676,41.5655 9.5,42.5C 8.20895,42.7373 7.20895,42.404 6.5,41.5C 4.96895,40.0755 5.30228,39.4088 7.5,39.5 Z"/></g>
<g><path style="opacity:0.11" fill="#f5e7fd" d="M 9.5,42.5 C 11.256,43.5521 11.9227,45.2188 11.5,47.5C 10.6908,45.9724 10.0241,44.3057 9.5,42.5 Z"/></g>
<g><path style="opacity:0.965" fill="#9b1df1" d="M 9.5,42.5 C 10.5676,41.5655 11.901,41.2322 13.5,41.5C 13.6641,44.1873 13.4974,46.854 13,49.5C 12.6174,48.944 12.1174,48.6107 11.5,48.5C 11.5,48.1667 11.5,47.8333 11.5,47.5C 11.9227,45.2188 11.256,43.5521 9.5,42.5 Z"/></g>
<g><path style="opacity:1" fill="#f39df9" d="M 48.5,47.5 C 48.3284,48.4916 48.6618,49.1583 49.5,49.5C 49.0269,50.9063 48.0269,51.573 46.5,51.5C 46.6107,50.8826 46.944,50.3826 47.5,50C 45.5273,49.5045 43.5273,49.3379 41.5,49.5C 41.5,49.1667 41.5,48.8333 41.5,48.5C 43.9029,48.552 46.2362,48.2186 48.5,47.5 Z"/></g>
<g><path style="opacity:1" fill="#cf88f8" d="M 13.5,40.5 C 13.4421,46.0618 15.4421,50.7285 19.5,54.5C 18.209,54.2627 17.209,54.596 16.5,55.5C 13.6769,54.0077 12.0102,51.6743 11.5,48.5C 12.1174,48.6107 12.6174,48.944 13,49.5C 13.4974,46.854 13.6641,44.1873 13.5,41.5C 13.5,41.1667 13.5,40.8333 13.5,40.5 Z"/></g>
<g><path style="opacity:1" fill="#dc6ef6" d="M 41.5,48.5 C 41.5,48.8333 41.5,49.1667 41.5,49.5C 39.901,49.2322 38.5676,49.5655 37.5,50.5C 37.5,51.1667 37.5,51.8333 37.5,52.5C 36.5,54.1667 35.1667,55.5 33.5,56.5C 33.5,55.1667 32.8333,54.5 31.5,54.5C 33.9539,52.2983 35.9539,49.6317 37.5,46.5C 38.8599,47.1799 40.1932,47.8466 41.5,48.5 Z"/></g>
<g><path style="opacity:0.947" fill="#df57f4" d="M 37.5,50.5 C 38.5676,49.5655 39.901,49.2322 41.5,49.5C 43.5273,49.3379 45.5273,49.5045 47.5,50C 46.944,50.3826 46.6107,50.8826 46.5,51.5C 44.5,52.8333 42.5,52.8333 40.5,51.5C 39.791,50.596 38.791,50.2627 37.5,50.5 Z"/></g>
<g><path style="opacity:0.035" fill="#f8d8fc" d="M 37.5,50.5 C 38.791,50.2627 39.791,50.596 40.5,51.5C 39.391,51.5569 38.391,51.8902 37.5,52.5C 37.5,51.8333 37.5,51.1667 37.5,50.5 Z"/></g>
<g><path style="opacity:1" fill="#cb6cf6" d="M 19.5,54.5 C 23.5,55.8333 27.5,55.8333 31.5,54.5C 31.3893,55.1174 31.056,55.6174 30.5,56C 17.1832,56.8307 17.1832,57.3307 30.5,57.5C 30.5,57.8333 30.5,58.1667 30.5,58.5C 26.8333,58.5 23.1667,58.5 19.5,58.5C 18.3065,57.7281 17.3065,56.7281 16.5,55.5C 17.209,54.596 18.209,54.2627 19.5,54.5 Z"/></g>
<g><path style="opacity:1" fill="#bd37f2" d="M 31.5,54.5 C 32.8333,54.5 33.5,55.1667 33.5,56.5C 32.791,57.404 31.791,57.7373 30.5,57.5C 17.1832,57.3307 17.1832,56.8307 30.5,56C 31.056,55.6174 31.3893,55.1174 31.5,54.5 Z"/></g>
</svg>
