<?xml version="1.0" encoding="UTF-8"?>
<!DOCTYPE svg PUBLIC "-//W3C//DTD SVG 1.1//EN" "http://www.w3.org/Graphics/SVG/1.1/DTD/svg11.dtd">
<svg xmlns="http://www.w3.org/2000/svg" version="1.1" width="60px" height="59px" style="shape-rendering:geometricPrecision; text-rendering:geometricPrecision; image-rendering:optimizeQuality; fill-rule:evenodd; clip-rule:evenodd" xmlns:xlink="http://www.w3.org/1999/xlink">
<g><path style="opacity:0.997" fill="#bc22ed" d="M 30.5,0.5 C 33.1667,0.5 35.8333,0.5 38.5,0.5C 39.625,1.65225 39.625,2.65225 38.5,3.5C 38.1667,3.5 37.8333,3.5 37.5,3.5C 34.3586,2.67871 31.0252,2.17871 27.5,2C 28.7375,1.76791 29.7375,1.26791 30.5,0.5 Z"/></g>
<g><path style="opacity:0.998" fill="#d469ed" d="M 30.5,0.5 C 29.7375,1.26791 28.7375,1.76791 27.5,2C 31.0252,2.17871 34.3586,2.67871 37.5,3.5C 27.1896,2.31744 19.8562,6.31744 15.5,15.5C 13.8372,17.4385 13.1706,19.7718 13.5,22.5C 13.573,24.0269 12.9063,25.0269 11.5,25.5C 10.8902,24.609 10.5569,23.609 10.5,22.5C 10.3284,21.5084 10.6618,20.8417 11.5,20.5C 12.7682,18.0948 13.4349,15.4282 13.5,12.5C 16.9372,5.4036 22.6038,1.4036 30.5,0.5 Z"/></g>
<g><path style="opacity:0.937" fill="#d876ef" d="M 38.5,0.5 C 47.8838,2.55039 53.5505,8.21705 55.5,17.5C 54.7321,16.7375 54.2321,15.7375 54,14.5C 53.8238,18.6877 53.3238,22.6877 52.5,26.5C 52.6653,22.8183 52.4986,19.1516 52,15.5C 51.2082,12.8936 49.7082,10.8936 47.5,9.5C 47.5,8.83333 47.1667,8.5 46.5,8.5C 44.1367,6.3199 41.47,4.65323 38.5,3.5C 39.625,2.65225 39.625,1.65225 38.5,0.5 Z"/></g>
<g><path style="opacity:1" fill="#d15ae7" d="M 46.5,8.5 C 47.1667,8.5 47.5,8.83333 47.5,9.5C 45.8286,18.0556 45.162,26.7223 45.5,35.5C 44.8333,32.8333 44.1667,30.1667 43.5,27.5C 43.8256,23.1161 43.4922,18.7828 42.5,14.5C 41.5258,16.7427 41.1924,19.076 41.5,21.5C 40.8333,19.1667 40.1667,16.8333 39.5,14.5C 36.8333,14.5 34.1667,14.5 31.5,14.5C 31.5,16.8333 31.5,19.1667 31.5,21.5C 30.0755,19.9689 29.4088,20.3023 29.5,22.5C 28.6829,20.0314 28.1829,17.3647 28,14.5C 27.501,18.8206 27.3343,23.1539 27.5,27.5C 26.8333,27.5 26.1667,27.5 25.5,27.5C 25.8182,22.9677 25.4849,18.6344 24.5,14.5C 23.193,12.7768 23.193,10.9435 24.5,9C 31.8258,8.50034 39.1591,8.33368 46.5,8.5 Z M 39.5,14.5 C 39.8685,17.5331 39.2018,20.1998 37.5,22.5C 36.391,22.5569 35.391,22.8902 34.5,23.5C 33.7095,22.5987 32.7095,21.9321 31.5,21.5C 31.5,19.1667 31.5,16.8333 31.5,14.5C 34.1667,14.5 36.8333,14.5 39.5,14.5 Z M 29.5,23.5 C 30.8333,24.8333 30.8333,26.1667 29.5,27.5C 28.1667,26.1667 28.1667,24.8333 29.5,23.5 Z M 41.5,22.5 C 42.6129,23.9464 42.7796,25.6131 42,27.5C 40.955,26.6266 40.1217,25.6266 39.5,24.5C 40.8333,24.5 41.5,23.8333 41.5,22.5 Z"/></g>
<g><path style="opacity:0.108" fill="#f9daf9" d="M 24.5,14.5 C 25.4849,18.6344 25.8182,22.9677 25.5,27.5C 25.4599,32.1925 25.1266,36.8592 24.5,41.5C 24.2909,32.6958 24.2909,23.6958 24.5,14.5 Z"/></g>
<g><path style="opacity:0.408" fill="#e69bf0" d="M 13.5,12.5 C 13.4349,15.4282 12.7682,18.0948 11.5,20.5C 11.2938,17.5049 11.9605,14.8383 13.5,12.5 Z"/></g>
<g><path style="opacity:0.624" fill="#e79af0" d="M 15.5,15.5 C 15.2785,18.0673 14.6118,20.4006 13.5,22.5C 13.1706,19.7718 13.8372,17.4385 15.5,15.5 Z"/></g>
<g><path style="opacity:0.993" fill="#d85de5" d="M 39.5,14.5 C 40.1667,16.8333 40.8333,19.1667 41.5,21.5C 41.5,21.8333 41.5,22.1667 41.5,22.5C 41.5,23.8333 40.8333,24.5 39.5,24.5C 38.2264,25.1894 38.2264,26.0228 39.5,27C 38.552,27.4828 37.552,27.6495 36.5,27.5C 36.366,25.7085 36.6993,24.0418 37.5,22.5C 39.2018,20.1998 39.8685,17.5331 39.5,14.5 Z"/></g>
<g><path style="opacity:0.187" fill="#f2c3f6" d="M 29.5,22.5 C 29.5,22.8333 29.5,23.1667 29.5,23.5C 28.1667,24.8333 28.1667,26.1667 29.5,27.5C 28.612,30.0545 28.2786,32.7212 28.5,35.5C 27.5269,33.0521 27.1936,30.3854 27.5,27.5C 27.3343,23.1539 27.501,18.8206 28,14.5C 28.1829,17.3647 28.6829,20.0314 29.5,22.5 Z"/></g>
<g><path style="opacity:0.469" fill="#ea90f0" d="M 43.5,27.5 C 44.0356,30.6981 43.369,33.3647 41.5,35.5C 41.8076,33.076 41.4742,30.7427 40.5,28.5C 39.8933,28.6236 39.56,28.9569 39.5,29.5C 37.8333,28.8333 36.1667,28.1667 34.5,27.5C 34.5,26.1667 34.5,24.8333 34.5,23.5C 35.391,22.8902 36.391,22.5569 37.5,22.5C 36.6993,24.0418 36.366,25.7085 36.5,27.5C 37.552,27.6495 38.552,27.4828 39.5,27C 38.2264,26.0228 38.2264,25.1894 39.5,24.5C 40.1217,25.6266 40.955,26.6266 42,27.5C 42.7796,25.6131 42.6129,23.9464 41.5,22.5C 41.5,22.1667 41.5,21.8333 41.5,21.5C 41.1924,19.076 41.5258,16.7427 42.5,14.5C 43.4922,18.7828 43.8256,23.1161 43.5,27.5 Z M 41.5,22.5 C 42.6129,23.9464 42.7796,25.6131 42,27.5C 40.955,26.6266 40.1217,25.6266 39.5,24.5C 40.8333,24.5 41.5,23.8333 41.5,22.5 Z"/></g>
<g><path style="opacity:1" fill="#e971e9" d="M 10.5,22.5 C 10.5569,23.609 10.8902,24.609 11.5,25.5C 10.5652,27.8614 9.23183,30.0281 7.5,32C 9.80982,32.4966 12.1432,32.6633 14.5,32.5C 14.3347,36.1817 14.5014,39.8484 15,43.5C 15.3742,44.4162 15.8742,45.2496 16.5,46C 22.6807,46.1724 28.6807,46.6724 34.5,47.5C 27.9102,47.811 21.4102,47.4777 15,46.5C 14.5357,47.0944 14.369,47.7611 14.5,48.5C 13.5,48.1667 12.8333,47.5 12.5,46.5C 13.2891,46.2172 13.9558,45.7172 14.5,45C 13.5399,41.27 13.2065,37.4367 13.5,33.5C 10.6062,33.9577 8.10618,33.291 6,31.5C 5.2917,32.3805 4.45837,33.0472 3.5,33.5C 5.44615,29.5606 7.77949,25.894 10.5,22.5 Z"/></g>
<g><path style="opacity:1" fill="#dd46e4" d="M 31.5,21.5 C 32.7095,21.9321 33.7095,22.5987 34.5,23.5C 34.5,24.8333 34.5,26.1667 34.5,27.5C 33.5,28.1667 32.5,28.8333 31.5,29.5C 30.596,30.209 30.2627,31.209 30.5,32.5C 33.7131,32.81 36.7131,32.4767 39.5,31.5C 39.5,30.8333 39.5,30.1667 39.5,29.5C 39.56,28.9569 39.8933,28.6236 40.5,28.5C 41.4742,30.7427 41.8076,33.076 41.5,35.5C 41.5654,35.9382 41.3988,36.2716 41,36.5C 40.7216,35.5842 40.2216,34.9175 39.5,34.5C 27.5,34.8333 27.5,35.1667 39.5,35.5C 35.8333,36.8333 32.1667,36.8333 28.5,35.5C 28.2786,32.7212 28.612,30.0545 29.5,27.5C 30.8333,26.1667 30.8333,24.8333 29.5,23.5C 29.5,23.1667 29.5,22.8333 29.5,22.5C 29.4088,20.3023 30.0755,19.9689 31.5,21.5 Z"/></g>
<g><path style="opacity:1" fill="#e654e5" d="M 12.5,46.5 C 11.5184,43.0381 11.185,39.3714 11.5,35.5C 8.30195,36.0356 5.63528,35.369 3.5,33.5C 4.45837,33.0472 5.2917,32.3805 6,31.5C 8.10618,33.291 10.6062,33.9577 13.5,33.5C 13.2065,37.4367 13.5399,41.27 14.5,45C 13.9558,45.7172 13.2891,46.2172 12.5,46.5 Z"/></g>
<g><path style="opacity:0.999" fill="#eb64e7" d="M 25.5,27.5 C 26.1667,27.5 26.8333,27.5 27.5,27.5C 27.1936,30.3854 27.5269,33.0521 28.5,35.5C 32.1667,36.8333 35.8333,36.8333 39.5,35.5C 39.5,35.1667 39.5,34.8333 39.5,34.5C 40.2216,34.9175 40.7216,35.5842 41,36.5C 41.3988,36.2716 41.5654,35.9382 41.5,35.5C 43.369,33.3647 44.0356,30.6981 43.5,27.5C 44.1667,30.1667 44.8333,32.8333 45.5,35.5C 48.1339,37.54 48.1339,39.7067 45.5,42C 38.4197,42.7945 31.4197,42.6278 24.5,41.5C 25.1266,36.8592 25.4599,32.1925 25.5,27.5 Z M 34.5,27.5 C 36.1667,28.1667 37.8333,28.8333 39.5,29.5C 39.5,30.1667 39.5,30.8333 39.5,31.5C 36.3019,32.0356 33.6353,31.369 31.5,29.5C 32.5,28.8333 33.5,28.1667 34.5,27.5 Z"/></g>
<g><path style="opacity:0.455" fill="#ef94f1" d="M 31.5,29.5 C 33.6353,31.369 36.3019,32.0356 39.5,31.5C 36.7131,32.4767 33.7131,32.81 30.5,32.5C 30.2627,31.209 30.596,30.209 31.5,29.5 Z"/></g>
<g><path style="opacity:0.99" fill="#e876ea" d="M 55.5,17.5 C 55.2717,31.0105 54.605,44.3438 53.5,57.5C 54.12,51.0738 53.4533,45.0738 51.5,39.5C 51.5,38.5 51.5,37.5 51.5,36.5C 51.3424,33.0977 51.6758,29.7644 52.5,26.5C 53.3238,22.6877 53.8238,18.6877 54,14.5C 54.2321,15.7375 54.7321,16.7375 55.5,17.5 Z"/></g>
<g><path style="opacity:0.996" fill="#eb34d4" d="M 51.5,39.5 C 53.4533,45.0738 54.12,51.0738 53.5,57.5C 43.8333,57.5 34.1667,57.5 24.5,57.5C 24.8134,54.7531 24.48,52.0865 23.5,49.5C 20.1905,50.9995 17.1905,50.6662 14.5,48.5C 14.369,47.7611 14.5357,47.0944 15,46.5C 21.4102,47.4777 27.9102,47.811 34.5,47.5C 34.5,47.8333 34.5,48.1667 34.5,48.5C 31.8333,48.5 29.1667,48.5 26.5,48.5C 26.5,50.8333 26.5,53.1667 26.5,55.5C 34.8333,55.5 43.1667,55.5 51.5,55.5C 51.5,50.1667 51.5,44.8333 51.5,39.5 Z"/></g>
<g><path style="opacity:0.183" fill="#f9c1f3" d="M 51.5,36.5 C 51.5,37.5 51.5,38.5 51.5,39.5C 51.5,44.8333 51.5,50.1667 51.5,55.5C 43.1667,55.5 34.8333,55.5 26.5,55.5C 26.5,53.1667 26.5,50.8333 26.5,48.5C 29.1667,48.5 31.8333,48.5 34.5,48.5C 32.3926,49.4682 30.0593,49.8016 27.5,49.5C 27.5,51.1667 27.5,52.8333 27.5,54.5C 35.1667,54.5 42.8333,54.5 50.5,54.5C 50.1771,48.31 50.5104,42.31 51.5,36.5 Z"/></g>
</svg>
