<?xml version="1.0" encoding="UTF-8"?>
<!DOCTYPE svg PUBLIC "-//W3C//DTD SVG 1.1//EN" "http://www.w3.org/Graphics/SVG/1.1/DTD/svg11.dtd">
<svg xmlns="http://www.w3.org/2000/svg" version="1.1" width="60px" height="59px" style="shape-rendering:geometricPrecision; text-rendering:geometricPrecision; image-rendering:optimizeQuality; fill-rule:evenodd; clip-rule:evenodd" xmlns:xlink="http://www.w3.org/1999/xlink">
<g><path style="opacity:0.227" fill="#f9d2fb" d="M 32.5,2.5 C 34.698,2.12012 36.3646,2.78679 37.5,4.5C 35.597,4.20414 33.9303,3.53747 32.5,2.5 Z"/></g>
<g><path style="opacity:0.976" fill="#f4b5f9" d="M 25.5,2.5 C 27.2488,3.98511 29.2488,4.98511 31.5,5.5C 25.9899,4.92658 21.3233,6.59324 17.5,10.5C 17.631,9.76109 17.4643,9.09442 17,8.5C 16.2917,9.38053 15.4584,10.0472 14.5,10.5C 16.5572,5.63656 20.2239,2.9699 25.5,2.5 Z"/></g>
<g><path style="opacity:1" fill="#f399f8" d="M 25.5,2.5 C 27.8333,2.5 30.1667,2.5 32.5,2.5C 33.9303,3.53747 35.597,4.20414 37.5,4.5C 40.5,5.5 42.5,7.5 43.5,10.5C 41.7973,9.33985 41.1307,10.0065 41.5,12.5C 39.2642,8.70618 35.9309,6.37285 31.5,5.5C 29.2488,4.98511 27.2488,3.98511 25.5,2.5 Z"/></g>
<g><path style="opacity:0.994" fill="#ec90f5" d="M 17.5,10.5 C 15.8958,11.287 15.2291,12.6203 15.5,14.5C 14.0687,15.7804 13.4021,17.4471 13.5,19.5C 12.1667,19.5 10.8333,19.5 9.5,19.5C 9.5,19.1667 9.5,18.8333 9.5,18.5C 10.5,18.5 11.5,18.5 12.5,18.5C 12.9628,15.779 13.6295,13.1123 14.5,10.5C 15.4584,10.0472 16.2917,9.38053 17,8.5C 17.4643,9.09442 17.631,9.76109 17.5,10.5 Z"/></g>
<g><path style="opacity:0.247" fill="#fae1fc" d="M 17.5,10.5 C 17.3404,12.153 16.6737,13.4863 15.5,14.5C 15.2291,12.6203 15.8958,11.287 17.5,10.5 Z"/></g>
<g><path style="opacity:0.202" fill="#f9d1fb" d="M 37.5,11.5 C 34.7387,12.9205 31.7387,13.5871 28.5,13.5C 27.5111,18.9753 27.1778,24.642 27.5,30.5C 27.7373,31.791 27.404,32.791 26.5,33.5C 26.5,26.5 26.5,19.5 26.5,12.5C 29.7654,12.7918 32.7654,12.1251 35.5,10.5C 36.4164,10.5427 37.0831,10.8761 37.5,11.5 Z"/></g>
<g><path style="opacity:0.22" fill="#fac8fb" d="M 43.5,10.5 C 46.2137,12.7166 49.2137,14.3832 52.5,15.5C 49.7462,15.2155 47.0795,14.5488 44.5,13.5C 43.8728,12.5832 43.5394,11.5832 43.5,10.5 Z"/></g>
<g><path style="opacity:0.314" fill="#fbdbfc" d="M 37.5,11.5 C 38.6491,11.7911 39.3158,12.6244 39.5,14C 39.472,15.0698 39.1386,15.9032 38.5,16.5C 38.634,14.7085 38.3007,13.0418 37.5,11.5 Z"/></g>
<g><path style="opacity:0.988" fill="#f064f5" d="M 43.5,10.5 C 43.5394,11.5832 43.8728,12.5832 44.5,13.5C 47.0795,14.5488 49.7462,15.2155 52.5,15.5C 54.0269,15.427 55.0269,16.0937 55.5,17.5C 55.631,18.2389 55.4643,18.9056 55,19.5C 54.3292,18.7476 53.4959,18.4142 52.5,18.5C 52.3893,17.8826 52.056,17.3826 51.5,17C 48.854,16.5026 46.1873,16.3359 43.5,16.5C 43.7709,14.6203 43.1042,13.287 41.5,12.5C 41.1307,10.0065 41.7973,9.33985 43.5,10.5 Z"/></g>
<g><path style="opacity:0.102" fill="#f8d9fb" d="M 14.5,10.5 C 13.6295,13.1123 12.9628,15.779 12.5,18.5C 11.5,18.5 10.5,18.5 9.5,18.5C 8.83333,18.5 8.16667,18.5 7.5,18.5C 8.56764,17.5655 9.90097,17.2322 11.5,17.5C 11.5516,14.6538 12.5516,12.3204 14.5,10.5 Z"/></g>
<g><path style="opacity:1" fill="#ed74f5" d="M 28.5,13.5 C 30.1667,14.1667 31.8333,14.8333 33.5,15.5C 31.8333,15.5 30.1667,15.5 28.5,15.5C 28.5,20.5 28.5,25.5 28.5,30.5C 28.1667,30.5 27.8333,30.5 27.5,30.5C 27.1778,24.642 27.5111,18.9753 28.5,13.5 Z"/></g>
<g><path style="opacity:1" fill="#ee6df5" d="M 37.5,11.5 C 38.3007,13.0418 38.634,14.7085 38.5,16.5C 36.8333,16.5 35.1667,16.5 33.5,16.5C 33.5,16.1667 33.5,15.8333 33.5,15.5C 31.8333,14.8333 30.1667,14.1667 28.5,13.5C 31.7387,13.5871 34.7387,12.9205 37.5,11.5 Z"/></g>
<g><path style="opacity:0.514" fill="#f8befa" d="M 33.5,16.5 C 35.1667,16.5 36.8333,16.5 38.5,16.5C 36.8333,19.1667 35.1667,19.1667 33.5,16.5 Z"/></g>
<g><path style="opacity:0.069" fill="#f9c3fb" d="M 41.5,12.5 C 43.1042,13.287 43.7709,14.6203 43.5,16.5C 46.1873,16.3359 48.854,16.5026 51.5,17C 52.056,17.3826 52.3893,17.8826 52.5,18.5C 49.2356,17.6758 45.9023,17.3424 42.5,17.5C 42.3713,15.7839 42.038,14.1172 41.5,12.5 Z"/></g>
<g><path style="opacity:0.714" fill="#f7cbfa" d="M 15.5,14.5 C 15.7564,16.7925 15.4231,18.9592 14.5,21C 12.1538,20.2084 9.82051,20.3751 7.5,21.5C 8.16667,20.8333 8.83333,20.1667 9.5,19.5C 10.8333,19.5 12.1667,19.5 13.5,19.5C 13.4021,17.4471 14.0687,15.7804 15.5,14.5 Z"/></g>
<g><path style="opacity:0.765" fill="#f89ff9" d="M 55.5,17.5 C 56.5,17.8333 57.1667,18.5 57.5,19.5C 57.5,19.8333 57.5,20.1667 57.5,20.5C 57.639,23.7831 57.3056,27.1164 56.5,30.5C 57.2582,25.7291 55.9249,21.7291 52.5,18.5C 53.4959,18.4142 54.3292,18.7476 55,19.5C 55.4643,18.9056 55.631,18.2389 55.5,17.5 Z"/></g>
<g><path style="opacity:0.957" fill="#efabf7" d="M 7.5,18.5 C 8.16667,18.5 8.83333,18.5 9.5,18.5C 9.5,18.8333 9.5,19.1667 9.5,19.5C 8.83333,20.1667 8.16667,20.8333 7.5,21.5C 5.83333,22.5 4.5,23.8333 3.5,25.5C 2.77842,25.9175 2.27842,26.5842 2,27.5C 1.50999,26.2068 1.34332,24.8734 1.5,23.5C 3.16667,22.5 4.5,21.1667 5.5,19.5C 5.84171,18.6618 6.50838,18.3284 7.5,18.5 Z"/></g>
<g><path style="opacity:0.42" fill="#f9e3fc" d="M 5.5,19.5 C 4.5,21.1667 3.16667,22.5 1.5,23.5C 1.83333,21.1667 3.16667,19.8333 5.5,19.5 Z"/></g>
<g><path style="opacity:0.11" fill="#fddefd" d="M 57.5,19.5 C 58.1667,19.8333 58.8333,20.1667 59.5,20.5C 59.5,21.1667 59.5,21.8333 59.5,22.5C 58.5,22.1667 57.8333,21.5 57.5,20.5C 57.5,20.1667 57.5,19.8333 57.5,19.5 Z"/></g>
<g><path style="opacity:0.012" fill="#f7befa" d="M 33.5,15.5 C 33.5,15.8333 33.5,16.1667 33.5,16.5C 32.1266,16.3433 30.7932,16.51 29.5,17C 30.8112,22.4996 30.8112,27.9996 29.5,33.5C 28.596,32.791 28.2627,31.791 28.5,30.5C 28.5,25.5 28.5,20.5 28.5,15.5C 30.1667,15.5 31.8333,15.5 33.5,15.5 Z"/></g>
<g><path style="opacity:0.397" fill="#f9c3fb" d="M 50.5,22.5 C 48.6898,21.0449 47.0231,21.2116 45.5,23C 42.5184,23.498 39.5184,23.6646 36.5,23.5C 34.8813,26.5479 33.8813,29.8812 33.5,33.5C 32.2833,29.9657 32.2833,26.4657 33.5,23C 38.551,22.9414 43.3844,22.108 48,20.5C 49.3756,20.6842 50.2089,21.3509 50.5,22.5 Z"/></g>
<g><path style="opacity:1" fill="#ee50f4" d="M 50.5,22.5 C 50.1649,26.5111 48.1649,27.5111 44.5,25.5C 42.0521,24.5269 39.3854,24.1936 36.5,24.5C 36.5,24.1667 36.5,23.8333 36.5,23.5C 39.5184,23.6646 42.5184,23.498 45.5,23C 47.0231,21.2116 48.6898,21.0449 50.5,22.5 Z"/></g>
<g><path style="opacity:0.465" fill="#f6bdfa" d="M 11.5,24.5 C 11.9169,23.8761 12.5836,23.5427 13.5,23.5C 16.2346,25.1251 19.2346,25.7918 22.5,25.5C 22.5,28.1667 22.5,30.8333 22.5,33.5C 21.5318,31.3926 21.1984,29.0593 21.5,26.5C 20.5,26.5 19.5,26.5 18.5,26.5C 16.1667,25.8333 13.8333,25.1667 11.5,24.5 Z"/></g>
<g><path style="opacity:1" fill="#ed8bf5" d="M 11.5,24.5 C 13.8333,25.1667 16.1667,25.8333 18.5,26.5C 18.5,26.8333 18.5,27.1667 18.5,27.5C 16.8212,27.2852 15.8212,27.9519 15.5,29.5C 12.0504,30.2436 10.3838,28.9103 10.5,25.5C 10.5,24.8333 10.8333,24.5 11.5,24.5 Z"/></g>
<g><path style="opacity:1" fill="#eb51f3" d="M 36.5,23.5 C 36.5,23.8333 36.5,24.1667 36.5,24.5C 35.1667,27.5 35.1667,30.5 36.5,33.5C 36.5,33.8333 36.5,34.1667 36.5,34.5C 35.8333,34.5 35.5,34.8333 35.5,35.5C 28.8333,35.5 22.1667,35.5 15.5,35.5C 15.5,35.1667 15.5,34.8333 15.5,34.5C 17.1667,34.5 18.8333,34.5 20.5,34.5C 25.0323,34.8182 29.3656,34.4849 33.5,33.5C 33.8813,29.8812 34.8813,26.5479 36.5,23.5 Z"/></g>
<g><path style="opacity:0.4" fill="#f7b3fa" d="M 36.5,24.5 C 39.3854,24.1936 42.0521,24.5269 44.5,25.5C 41.8333,25.5 39.1667,25.5 36.5,25.5C 36.5,28.1667 36.5,30.8333 36.5,33.5C 35.1667,30.5 35.1667,27.5 36.5,24.5 Z"/></g>
<g><path style="opacity:0.443" fill="#fac1fb" d="M 50.5,22.5 C 52.2022,25.5859 51.2022,27.5859 47.5,28.5C 46.1451,27.8118 45.1451,26.8118 44.5,25.5C 48.1649,27.5111 50.1649,26.5111 50.5,22.5 Z"/></g>
<g><path style="opacity:0.907" fill="#f3bff9" d="M 1.5,23.5 C 1.34332,24.8734 1.50999,26.2068 2,27.5C 2.27842,26.5842 2.77842,25.9175 3.5,25.5C 3.5,27.5 3.5,29.5 3.5,31.5C 1.95186,31.8212 1.28519,32.8212 1.5,34.5C 0.166667,30.8333 0.166667,27.1667 1.5,23.5 Z"/></g>
<g><path style="opacity:1" fill="#ef7ef6" d="M 18.5,27.5 C 18.5,27.1667 18.5,26.8333 18.5,26.5C 19.5,26.5 20.5,26.5 21.5,26.5C 21.1984,29.0593 21.5318,31.3926 22.5,33.5C 23.8333,33.5 25.1667,33.5 26.5,33.5C 27.404,32.791 27.7373,31.791 27.5,30.5C 27.8333,30.5 28.1667,30.5 28.5,30.5C 28.2627,31.791 28.596,32.791 29.5,33.5C 30.8333,33.5 32.1667,33.5 33.5,33.5C 29.3656,34.4849 25.0323,34.8182 20.5,34.5C 21.0102,31.6122 20.3435,29.2789 18.5,27.5 Z"/></g>
<g><path style="opacity:0.408" fill="#f8d5fb" d="M 10.5,25.5 C 10.3838,28.9103 12.0504,30.2436 15.5,29.5C 14.0536,30.6129 12.3869,30.7796 10.5,30C 9.19914,28.3845 9.19914,26.8845 10.5,25.5 Z"/></g>
<g><path style="opacity:0.929" fill="#f04df5" d="M 57.5,20.5 C 57.8333,21.5 58.5,22.1667 59.5,22.5C 59.5,25.1667 59.5,27.8333 59.5,30.5C 58.3263,31.5137 57.6596,32.847 57.5,34.5C 56.1667,35.1667 55.1667,36.1667 54.5,37.5C 54.1583,38.3382 53.4916,38.6716 52.5,38.5C 50.0065,38.8693 49.3398,38.2027 50.5,36.5C 50.8333,36.5 51.1667,36.5 51.5,36.5C 54.6209,35.7124 56.2876,33.7124 56.5,30.5C 57.3056,27.1164 57.639,23.7831 57.5,20.5 Z"/></g>
<g><path style="opacity:0.592" fill="#f6bffa" d="M 18.5,27.5 C 20.3435,29.2789 21.0102,31.6122 20.5,34.5C 18.8333,34.5 17.1667,34.5 15.5,34.5C 13.9519,34.8212 13.2852,35.8212 13.5,37.5C 13.1667,37.5 12.8333,37.5 12.5,37.5C 12.5,36.1667 12.5,34.8333 12.5,33.5C 14.8333,33.5 17.1667,33.5 19.5,33.5C 19.5,32.1667 19.5,30.8333 19.5,29.5C 18.1667,29.5 16.8333,29.5 15.5,29.5C 15.8212,27.9519 16.8212,27.2852 18.5,27.5 Z"/></g>
<g><path style="opacity:0.596" fill="#f79cf9" d="M 36.5,34.5 C 36.5,34.1667 36.5,33.8333 36.5,33.5C 40.1667,33.5 43.8333,33.5 47.5,33.5C 47.3433,34.8734 47.51,36.2068 48,37.5C 48.6708,36.7476 49.5041,36.4142 50.5,36.5C 49.3398,38.2027 50.0065,38.8693 52.5,38.5C 52.1583,39.3382 51.4916,39.6716 50.5,39.5C 49.8333,39.5 49.1667,39.5 48.5,39.5C 47.032,38.2209 46.3653,36.5542 46.5,34.5C 43.1667,34.5 39.8333,34.5 36.5,34.5 Z"/></g>
<g><path style="opacity:0.541" fill="#f9a8fa" d="M 56.5,30.5 C 56.2876,33.7124 54.6209,35.7124 51.5,36.5C 53.1964,34.4752 54.863,32.4752 56.5,30.5 Z"/></g>
<g><path style="opacity:0.11" fill="#fbcafc" d="M 59.5,30.5 C 59.5,31.5 59.5,32.5 59.5,33.5C 58.8333,33.8333 58.1667,34.1667 57.5,34.5C 57.6596,32.847 58.3263,31.5137 59.5,30.5 Z"/></g>
<g><path style="opacity:0.951" fill="#f1aaf7" d="M 3.5,31.5 C 5.2414,35.2156 8.2414,37.2156 12.5,37.5C 12.8333,37.5 13.1667,37.5 13.5,37.5C 12.1667,38.1667 10.8333,38.8333 9.5,39.5C 8.83333,39.5 8.16667,39.5 7.5,39.5C 6.50838,39.6716 5.84171,39.3382 5.5,38.5C 4.5,36.8333 3.16667,35.5 1.5,34.5C 1.28519,32.8212 1.95186,31.8212 3.5,31.5 Z"/></g>
<g><path style="opacity:1" fill="#ec37f3" d="M 35.5,35.5 C 35.5,34.8333 35.8333,34.5 36.5,34.5C 39.8333,34.5 43.1667,34.5 46.5,34.5C 46.3653,36.5542 47.032,38.2209 48.5,39.5C 46.9519,39.8212 46.2852,40.8212 46.5,42.5C 45.8333,40.1667 45.1667,37.8333 44.5,35.5C 41.5,35.5 38.5,35.5 35.5,35.5 Z"/></g>
<g><path style="opacity:0.356" fill="#f7c0fa" d="M 15.5,35.5 C 22.1667,35.5 28.8333,35.5 35.5,35.5C 38.5,35.5 41.5,35.5 44.5,35.5C 44.5,35.8333 44.5,36.1667 44.5,36.5C 44.1667,36.5 43.8333,36.5 43.5,36.5C 33.4493,36.1467 25.4493,36.48 19.5,37.5C 19.5,38.1667 19.5,38.8333 19.5,39.5C 18.5,39.5 17.5,39.5 16.5,39.5C 15.8333,39.5 15.5,39.8333 15.5,40.5C 15.5,40.8333 15.5,41.1667 15.5,41.5C 14.1667,39.5 14.1667,37.5 15.5,35.5 Z"/></g>
<g><path style="opacity:0.016" fill="#fbe7fd" d="M 1.5,34.5 C 3.16667,35.5 4.5,36.8333 5.5,38.5C 3.16667,38.1667 1.83333,36.8333 1.5,34.5 Z"/></g>
<g><path style="opacity:0.008" fill="#fde7fd" d="M 57.5,34.5 C 57.5,36.5 56.5,37.5 54.5,37.5C 55.1667,36.1667 56.1667,35.1667 57.5,34.5 Z"/></g>
<g><path style="opacity:0.067" fill="#f9cdfb" d="M 43.5,36.5 C 43.8333,36.5 44.1667,36.5 44.5,36.5C 44.5,38.1667 44.5,39.8333 44.5,41.5C 34.8333,41.5 25.1667,41.5 15.5,41.5C 15.5,41.1667 15.5,40.8333 15.5,40.5C 16.1667,40.5 16.5,40.1667 16.5,39.5C 17.5,39.5 18.5,39.5 19.5,39.5C 19.5,38.8333 19.5,38.1667 19.5,37.5C 20.8333,37.5 22.1667,37.5 23.5,37.5C 23.5,38.5 23.5,39.5 23.5,40.5C 30.1667,40.5 36.8333,40.5 43.5,40.5C 43.5,39.1667 43.5,37.8333 43.5,36.5 Z"/></g>
<g><path style="opacity:0.71" fill="#f188f7" d="M 15.5,34.5 C 15.5,34.8333 15.5,35.1667 15.5,35.5C 14.1667,37.5 14.1667,39.5 15.5,41.5C 25.1667,41.5 34.8333,41.5 44.5,41.5C 34.8333,42.1667 25.1667,42.8333 15.5,43.5C 13.8235,42.8166 13.1568,41.4832 13.5,39.5C 12.1667,39.5 10.8333,39.5 9.5,39.5C 10.8333,38.8333 12.1667,38.1667 13.5,37.5C 13.2852,35.8212 13.9519,34.8212 15.5,34.5 Z"/></g>
<g><path style="opacity:0.275" fill="#fbcdfc" d="M 48.5,39.5 C 49.1667,39.5 49.8333,39.5 50.5,39.5C 49.791,40.404 48.791,40.7373 47.5,40.5C 47.5,41.8333 47.5,43.1667 47.5,44.5C 46.209,44.2627 45.209,44.596 44.5,45.5C 44.1667,45.5 43.8333,45.5 43.5,45.5C 44.0998,44.1001 45.0998,43.1001 46.5,42.5C 46.2852,40.8212 46.9519,39.8212 48.5,39.5 Z"/></g>
<g><path style="opacity:0.169" fill="#fadafc" d="M 7.5,39.5 C 8.16667,39.5 8.83333,39.5 9.5,39.5C 10.8333,39.5 12.1667,39.5 13.5,39.5C 13.1568,41.4832 13.8235,42.8166 15.5,43.5C 15.8333,43.5 16.1667,43.5 16.5,43.5C 16.6716,44.4916 16.3382,45.1583 15.5,45.5C 14.791,44.596 13.791,44.2627 12.5,44.5C 12.5,43.1667 12.5,41.8333 12.5,40.5C 10.5853,40.7845 8.91866,40.4511 7.5,39.5 Z"/></g>
<g><path style="opacity:0.231" fill="#fce5fd" d="M 18.5,43.5 C 26.1667,43.5 33.8333,43.5 41.5,43.5C 41.5,44.1667 41.5,44.8333 41.5,45.5C 41.1667,45.5 40.8333,45.5 40.5,45.5C 40.1667,44.1667 39.8333,44.1667 39.5,45.5C 35.1667,45.5 30.8333,45.5 26.5,45.5C 24.5,45.5 22.5,45.5 20.5,45.5C 20.1667,44.1667 19.8333,44.1667 19.5,45.5C 18.6618,45.1583 18.3284,44.4916 18.5,43.5 Z"/></g>
<g><path style="opacity:0.984" fill="#ef55f4" d="M 44.5,35.5 C 45.1667,37.8333 45.8333,40.1667 46.5,42.5C 45.0998,43.1001 44.0998,44.1001 43.5,45.5C 43.5654,45.9382 43.3988,46.2716 43,46.5C 42.7679,45.2625 42.2679,44.2625 41.5,43.5C 33.8333,43.5 26.1667,43.5 18.5,43.5C 17.8333,43.5 17.1667,43.5 16.5,43.5C 16.1667,43.5 15.8333,43.5 15.5,43.5C 25.1667,42.8333 34.8333,42.1667 44.5,41.5C 44.5,39.8333 44.5,38.1667 44.5,36.5C 44.5,36.1667 44.5,35.8333 44.5,35.5 Z"/></g>
<g><path style="opacity:0.804" fill="#f398f8" d="M 16.5,43.5 C 17.1667,43.5 17.8333,43.5 18.5,43.5C 18.3284,44.4916 18.6618,45.1583 19.5,45.5C 19.8333,45.5 20.1667,45.5 20.5,45.5C 22.5,45.5 24.5,45.5 26.5,45.5C 23.8333,46.1667 21.1667,46.8333 18.5,47.5C 17.5,47.5 16.5,47.5 15.5,47.5C 15.44,46.9569 15.1067,46.6236 14.5,46.5C 13.5159,49.4281 13.1826,52.4281 13.5,55.5C 12.5206,52.3752 12.1872,49.0419 12.5,45.5C 13.5,45.5 14.5,45.5 15.5,45.5C 16.3382,45.1583 16.6716,44.4916 16.5,43.5 Z"/></g>
<g><path style="opacity:0.803" fill="#f06cf5" d="M 26.5,45.5 C 30.8333,45.5 35.1667,45.5 39.5,45.5C 39.8333,45.5 40.1667,45.5 40.5,45.5C 40.8333,45.5 41.1667,45.5 41.5,45.5C 36.8333,46.1667 32.1667,46.8333 27.5,47.5C 26.1667,47.5 24.8333,47.5 23.5,47.5C 21.8333,47.5 20.1667,47.5 18.5,47.5C 21.1667,46.8333 23.8333,46.1667 26.5,45.5 Z"/></g>
<g><path style="opacity:0.937" fill="#f479f7" d="M 41.5,43.5 C 42.2679,44.2625 42.7679,45.2625 43,46.5C 43.3988,46.2716 43.5654,45.9382 43.5,45.5C 43.8333,45.5 44.1667,45.5 44.5,45.5C 45.5,45.5 46.5,45.5 47.5,45.5C 47.8128,49.0419 47.4794,52.3752 46.5,55.5C 46.8174,52.4281 46.4841,49.4281 45.5,46.5C 44.8933,46.6236 44.56,46.9569 44.5,47.5C 38.8333,47.5 33.1667,47.5 27.5,47.5C 32.1667,46.8333 36.8333,46.1667 41.5,45.5C 41.5,44.8333 41.5,44.1667 41.5,43.5 Z"/></g>
<g><path style="opacity:0.184" fill="#f8c3fb" d="M 15.5,47.5 C 16.5,47.5 17.5,47.5 18.5,47.5C 20.1667,47.5 21.8333,47.5 23.5,47.5C 23.5,47.8333 23.5,48.1667 23.5,48.5C 23.5,49.5 23.5,50.5 23.5,51.5C 22.5,51.5 21.5,51.5 20.5,51.5C 20.1667,51.5 19.8333,51.5 19.5,51.5C 18.5,51.5 17.5,51.5 16.5,51.5C 16.1667,51.5 15.8333,51.5 15.5,51.5C 15.5,50.1667 15.5,48.8333 15.5,47.5 Z"/></g>
<g><path style="opacity:0.196" fill="#fbd4fc" d="M 23.5,48.5 C 23.5,48.1667 23.5,47.8333 23.5,47.5C 24.8333,47.5 26.1667,47.5 27.5,47.5C 33.1667,47.5 38.8333,47.5 44.5,47.5C 44.5,49.5 44.5,51.5 44.5,53.5C 41.1667,53.5 37.8333,53.5 34.5,53.5C 34.5,53.1667 34.5,52.8333 34.5,52.5C 37.5,52.5 40.5,52.5 43.5,52.5C 43.5,51.1667 43.5,49.8333 43.5,48.5C 36.8333,48.5 30.1667,48.5 23.5,48.5 Z"/></g>
<g><path style="opacity:0.147" fill="#fad6fc" d="M 16.5,51.5 C 17.5,51.5 18.5,51.5 19.5,51.5C 19.8333,52.8333 20.1667,52.8333 20.5,51.5C 21.5,51.5 22.5,51.5 23.5,51.5C 26.9619,52.4816 30.6286,52.815 34.5,52.5C 34.5,52.8333 34.5,53.1667 34.5,53.5C 29.1667,53.5 23.8333,53.5 18.5,53.5C 17.209,53.7373 16.209,53.404 15.5,52.5C 16.1667,52.5 16.5,52.1667 16.5,51.5 Z"/></g>
<g><path style="opacity:0.878" fill="#ef7df6" d="M 15.5,47.5 C 15.5,48.8333 15.5,50.1667 15.5,51.5C 15.5,51.8333 15.5,52.1667 15.5,52.5C 16.209,53.404 17.209,53.7373 18.5,53.5C 18.5,54.1667 18.5,54.8333 18.5,55.5C 16.8333,55.5 15.1667,55.5 13.5,55.5C 13.1826,52.4281 13.5159,49.4281 14.5,46.5C 15.1067,46.6236 15.44,46.9569 15.5,47.5 Z"/></g>
<g><path style="opacity:0.876" fill="#ef66f5" d="M 18.5,53.5 C 23.8333,53.5 29.1667,53.5 34.5,53.5C 34.1667,54.1667 33.8333,54.8333 33.5,55.5C 28.5,55.5 23.5,55.5 18.5,55.5C 18.5,54.8333 18.5,54.1667 18.5,53.5 Z"/></g>
<g><path style="opacity:0.879" fill="#f051f5" d="M 46.5,55.5 C 42.1667,55.5 37.8333,55.5 33.5,55.5C 33.8333,54.8333 34.1667,54.1667 34.5,53.5C 37.8333,53.5 41.1667,53.5 44.5,53.5C 44.5,51.5 44.5,49.5 44.5,47.5C 44.56,46.9569 44.8933,46.6236 45.5,46.5C 46.4841,49.4281 46.8174,52.4281 46.5,55.5 Z"/></g>
</svg>
