<?xml version="1.0" encoding="UTF-8"?>
<!DOCTYPE svg PUBLIC "-//W3C//DTD SVG 1.1//EN" "http://www.w3.org/Graphics/SVG/1.1/DTD/svg11.dtd">
<svg xmlns="http://www.w3.org/2000/svg" version="1.1" width="60px" height="59px" style="shape-rendering:geometricPrecision; text-rendering:geometricPrecision; image-rendering:optimizeQuality; fill-rule:evenodd; clip-rule:evenodd" xmlns:xlink="http://www.w3.org/1999/xlink">
<g><path style="opacity:1" fill="#d25af4" d="M 28.5,-0.5 C 32.1667,-0.5 35.8333,-0.5 39.5,-0.5C 39.5,-0.166667 39.5,0.166667 39.5,0.5C 39.1667,1.5 38.5,2.16667 37.5,2.5C 34.8333,2.5 32.1667,2.5 29.5,2.5C 27.0065,2.86932 26.3398,2.20266 27.5,0.5C 28.1667,0.5 28.5,0.166667 28.5,-0.5 Z"/></g>
<g><path style="opacity:0.995" fill="#d37ef7" d="M 39.5,0.5 C 44.0124,2.34674 46.679,5.68008 47.5,10.5C 47.5,10.8333 47.5,11.1667 47.5,11.5C 46.7321,10.7375 46.2321,9.73747 46,8.5C 45.502,11.4816 45.3354,14.4816 45.5,17.5C 44.9736,13.4314 43.8069,9.43138 42,5.5C 40.3484,4.60064 38.8484,3.60064 37.5,2.5C 38.5,2.16667 39.1667,1.5 39.5,0.5 Z"/></g>
<g><path style="opacity:1" fill="#e36ff6" d="M 27.5,0.5 C 26.3398,2.20266 27.0065,2.86932 29.5,2.5C 27.0905,3.70069 25.0905,5.36735 23.5,7.5C 23.5,6.16667 22.8333,5.5 21.5,5.5C 22.9108,3.08605 24.9108,1.41938 27.5,0.5 Z"/></g>
<g><path style="opacity:1" fill="#ea67f5" d="M 18.5,6.5 C 19.9473,7.88516 20.9473,7.55182 21.5,5.5C 22.8333,5.5 23.5,6.16667 23.5,7.5C 22.9599,11.7601 21.2932,12.4267 18.5,9.5C 16.369,8.68618 14.0356,8.18618 11.5,8C 12.056,7.61742 12.3893,7.11742 12.5,6.5C 14.5,5.16667 16.5,5.16667 18.5,6.5 Z"/></g>
<g><path style="opacity:0.337" fill="#f9ccfc" d="M 21.5,5.5 C 20.9473,7.55182 19.9473,7.88516 18.5,6.5C 19.609,6.44312 20.609,6.10978 21.5,5.5 Z"/></g>
<g><path style="opacity:1" fill="#f990f7" d="M 12.5,6.5 C 12.3893,7.11742 12.056,7.61742 11.5,8C 14.0356,8.18618 16.369,8.68618 18.5,9.5C 14.8453,8.92497 11.8453,9.92497 9.5,12.5C 9.5,11.1667 8.83333,10.5 7.5,10.5C 8.58457,8.41311 10.2512,7.07978 12.5,6.5 Z"/></g>
<g><path style="opacity:1" fill="#f551ef" d="M 7.5,10.5 C 8.83333,10.5 9.5,11.1667 9.5,12.5C 8.83472,14.6979 8.16805,17.0312 7.5,19.5C 7.40697,18.5281 7.07364,17.5281 6.5,16.5C 5.95691,16.44 5.62358,16.1067 5.5,15.5C 6.02756,13.6639 6.69423,11.9972 7.5,10.5 Z"/></g>
<g><path style="opacity:0.078" fill="#f7e8fd" d="M 47.5,10.5 C 48.3092,12.0276 48.9759,13.6943 49.5,15.5C 47.8235,14.8166 47.1568,13.4832 47.5,11.5C 47.5,11.1667 47.5,10.8333 47.5,10.5 Z"/></g>
<g><path style="opacity:0.995" fill="#aa1bf1" d="M 47.5,11.5 C 47.1568,13.4832 47.8235,14.8166 49.5,15.5C 49.8333,15.5 50.1667,15.5 50.5,15.5C 49.7095,16.4013 48.7095,17.0679 47.5,17.5C 46.8333,17.5 46.1667,17.5 45.5,17.5C 45.3354,14.4816 45.502,11.4816 46,8.5C 46.2321,9.73747 46.7321,10.7375 47.5,11.5 Z"/></g>
<g><path style="opacity:0.994" fill="#c372f6" d="M 50.5,15.5 C 54.4287,16.4308 57.0953,18.7641 58.5,22.5C 57.0755,20.9689 56.4088,21.3023 56.5,23.5C 53.9711,20.6104 50.9711,18.6104 47.5,17.5C 48.7095,17.0679 49.7095,16.4013 50.5,15.5 Z"/></g>
<g><path style="opacity:0.957" fill="#fa89f3" d="M 9.5,12.5 C 10.4803,17.3906 8.81364,20.7239 4.5,22.5C 4.5,21.1667 3.83333,20.5 2.5,20.5C 4.13924,19.5275 5.47257,18.1942 6.5,16.5C 7.07364,17.5281 7.40697,18.5281 7.5,19.5C 8.16805,17.0312 8.83472,14.6979 9.5,12.5 Z"/></g>
<g><path style="opacity:0.991" fill="#ef74f5" d="M 48.5,21.5 C 38.6522,21.1729 28.9856,21.5062 19.5,22.5C 18.209,22.2627 17.209,22.596 16.5,23.5C 15.5,23.5 14.5,23.5 13.5,23.5C 12.5318,25.6074 12.1984,27.9407 12.5,30.5C 14.6074,31.4682 16.9407,31.8016 19.5,31.5C 19.5,31.8333 19.5,32.1667 19.5,32.5C 16.5,32.5 13.5,32.5 10.5,32.5C 9.17896,28.7674 9.17896,24.9341 10.5,21C 23.3401,20.1733 36.0067,20.34 48.5,21.5 Z"/></g>
<g><path style="opacity:1" fill="#f76ceb" d="M 2.5,20.5 C 3.83333,20.5 4.5,21.1667 4.5,22.5C 4.06795,23.7095 3.40128,24.7095 2.5,25.5C 2.15829,24.6618 1.49162,24.3284 0.5,24.5C 0.659599,22.847 1.32627,21.5137 2.5,20.5 Z"/></g>
<g><path style="opacity:0.71" fill="#e36cf6" d="M 19.5,22.5 C 23.8333,22.5 28.1667,22.5 32.5,22.5C 32.5,22.8333 32.5,23.1667 32.5,23.5C 32.5,23.8333 32.5,24.1667 32.5,24.5C 32.5,25.1667 32.5,25.8333 32.5,26.5C 31.8333,26.5 31.1667,26.5 30.5,26.5C 30.5,25.8333 30.5,25.1667 30.5,24.5C 29.8333,23.1667 29.1667,23.1667 28.5,24.5C 28.5,25.1667 28.5,25.8333 28.5,26.5C 27.8333,26.5 27.1667,26.5 26.5,26.5C 26.5,25.8333 26.5,25.1667 26.5,24.5C 25.8333,23.1667 25.1667,23.1667 24.5,24.5C 24.5,25.1667 24.5,25.8333 24.5,26.5C 23.8333,26.5 23.1667,26.5 22.5,26.5C 22.5,25.8333 22.5,25.1667 22.5,24.5C 21.5,23.1667 20.5,23.1667 19.5,24.5C 18.5,24.5 17.5,24.5 16.5,24.5C 16.5,24.1667 16.5,23.8333 16.5,23.5C 17.209,22.596 18.209,22.2627 19.5,22.5 Z"/></g>
<g><path style="opacity:0.661" fill="#cd60f5" d="M 32.5,23.5 C 32.5,23.1667 32.5,22.8333 32.5,22.5C 37.3633,22.1805 42.03,22.5139 46.5,23.5C 46.1667,23.5 45.8333,23.5 45.5,23.5C 44.8333,23.5 44.5,23.8333 44.5,24.5C 44.5,25.1667 44.5,25.8333 44.5,26.5C 43.8333,26.5 43.1667,26.5 42.5,26.5C 42.5,25.8333 42.5,25.1667 42.5,24.5C 41.8333,23.1667 41.1667,23.1667 40.5,24.5C 40.5,25.1667 40.5,25.8333 40.5,26.5C 39.8333,26.5 39.1667,26.5 38.5,26.5C 38.5,25.8333 38.5,25.1667 38.5,24.5C 38.5,23.8333 38.1667,23.5 37.5,23.5C 36.5,23.5 35.5,23.5 34.5,23.5C 33.8333,23.5 33.1667,23.5 32.5,23.5 Z"/></g>
<g><path style="opacity:0.953" fill="#b204f0" d="M 19.5,22.5 C 28.9856,21.5062 38.6522,21.1729 48.5,21.5C 48.815,25.3714 48.4816,29.0381 47.5,32.5C 38.1667,32.5 28.8333,32.5 19.5,32.5C 19.5,32.1667 19.5,31.8333 19.5,31.5C 28.6822,31.8266 37.6822,31.4933 46.5,30.5C 46.5,28.1667 46.5,25.8333 46.5,23.5C 42.03,22.5139 37.3633,22.1805 32.5,22.5C 28.1667,22.5 23.8333,22.5 19.5,22.5 Z"/></g>
<g><path style="opacity:0.125" fill="#f7e2fd" d="M 34.5,24.5 C 34.5,24.1667 34.5,23.8333 34.5,23.5C 35.5,23.5 36.5,23.5 37.5,23.5C 38.1667,23.5 38.5,23.8333 38.5,24.5C 38.5,25.1667 38.5,25.8333 38.5,26.5C 37.8333,26.5 37.1667,26.5 36.5,26.5C 36.5,25.1667 35.8333,24.5 34.5,24.5 Z"/></g>
<g><path style="opacity:0.112" fill="#fce7fd" d="M 13.5,23.5 C 13.2627,24.791 13.596,25.791 14.5,26.5C 14.5,27.1667 14.5,27.8333 14.5,28.5C 13.6618,28.8417 13.3284,29.5084 13.5,30.5C 13.1667,30.5 12.8333,30.5 12.5,30.5C 12.1984,27.9407 12.5318,25.6074 13.5,23.5 Z"/></g>
<g><path style="opacity:0.996" fill="#e546f2" d="M 16.5,24.5 C 17.5,24.5 18.5,24.5 19.5,24.5C 20.1667,24.5 20.5,24.8333 20.5,25.5C 20.5,26.5 20.5,27.5 20.5,28.5C 20.5,29.1667 20.1667,29.5 19.5,29.5C 18.1667,29.5 16.8333,29.5 15.5,29.5C 14.8333,29.5 14.5,29.1667 14.5,28.5C 14.5,27.8333 14.5,27.1667 14.5,26.5C 14.5,25.1667 15.1667,24.5 16.5,24.5 Z"/></g>
<g><path style="opacity:0.039" fill="#fae3fd" d="M 22.5,24.5 C 22.5,25.1667 22.5,25.8333 22.5,26.5C 23.6591,27.5135 25.6591,27.8468 28.5,27.5C 28.5,27.8333 28.5,28.1667 28.5,28.5C 27.5084,28.3284 26.8417,28.6618 26.5,29.5C 25.8333,29.5 25.1667,29.5 24.5,29.5C 23.8333,28.1667 23.1667,28.1667 22.5,29.5C 21.8333,29.1667 21.1667,28.8333 20.5,28.5C 20.5,27.5 20.5,26.5 20.5,25.5C 21.1667,25.1667 21.8333,24.8333 22.5,24.5 Z"/></g>
<g><path style="opacity:0.02" fill="#fdf5fe" d="M 24.5,24.5 C 25.1667,24.5 25.8333,24.5 26.5,24.5C 26.5,25.1667 26.5,25.8333 26.5,26.5C 25.8333,26.5 25.1667,26.5 24.5,26.5C 24.5,25.8333 24.5,25.1667 24.5,24.5 Z"/></g>
<g><path style="opacity:0.016" fill="#fdf5fe" d="M 28.5,24.5 C 29.1667,24.5 29.8333,24.5 30.5,24.5C 30.5,25.1667 30.5,25.8333 30.5,26.5C 29.8333,26.5 29.1667,26.5 28.5,26.5C 28.5,25.8333 28.5,25.1667 28.5,24.5 Z"/></g>
<g><path style="opacity:0.071" fill="#fbeffe" d="M 32.5,24.5 C 33.1667,24.5 33.8333,24.5 34.5,24.5C 34.5,25.1667 34.5,25.8333 34.5,26.5C 33.8333,26.5 33.1667,26.5 32.5,26.5C 32.5,25.8333 32.5,25.1667 32.5,24.5 Z"/></g>
<g><path style="opacity:0.655" fill="#cc4af3" d="M 34.5,24.5 C 35.8333,24.5 36.5,25.1667 36.5,26.5C 35.8333,26.5 35.1667,26.5 34.5,26.5C 34.5,25.8333 34.5,25.1667 34.5,24.5 Z"/></g>
<g><path style="opacity:0.071" fill="#faeffe" d="M 40.5,24.5 C 41.1667,24.5 41.8333,24.5 42.5,24.5C 42.5,25.1667 42.5,25.8333 42.5,26.5C 41.8333,26.5 41.1667,26.5 40.5,26.5C 40.5,25.8333 40.5,25.1667 40.5,24.5 Z"/></g>
<g><path style="opacity:0.925" fill="#9b29f1" d="M 58.5,22.5 C 58.8333,22.5 59.1667,22.5 59.5,22.5C 59.5,24.1667 59.5,25.8333 59.5,27.5C 58.6981,28.9516 58.1981,30.6183 58,32.5C 57.8171,29.6353 57.3171,26.9686 56.5,24.5C 56.5,24.1667 56.5,23.8333 56.5,23.5C 56.4088,21.3023 57.0755,20.9689 58.5,22.5 Z"/></g>
<g><path style="opacity:0.008" fill="#f6e1fd" d="M 45.5,23.5 C 45.8333,23.5 46.1667,23.5 46.5,23.5C 46.5,25.8333 46.5,28.1667 46.5,30.5C 46.1667,30.5 45.8333,30.5 45.5,30.5C 45.5,29.8333 45.1667,29.5 44.5,29.5C 43.8333,28.1667 43.1667,28.1667 42.5,29.5C 41.8333,29.5 41.5,29.8333 41.5,30.5C 40.7777,29.4489 39.7777,28.7822 38.5,28.5C 41.1178,27.944 43.1178,27.2773 44.5,26.5C 44.5,25.8333 44.5,25.1667 44.5,24.5C 45.1667,24.5 45.5,24.1667 45.5,23.5 Z"/></g>
<g><path style="opacity:0.027" fill="#f9e4fd" d="M 28.5,27.5 C 31.9387,27.2529 35.272,27.5863 38.5,28.5C 38.5,28.8333 38.5,29.1667 38.5,29.5C 37.8333,29.5 37.5,29.8333 37.5,30.5C 36.8485,29.9094 36.1818,29.2427 35.5,28.5C 34.8933,28.6236 34.56,28.9569 34.5,29.5C 33.8333,29.5 33.5,29.8333 33.5,30.5C 32.8485,29.9094 32.1818,29.2427 31.5,28.5C 30.8933,28.6236 30.56,28.9569 30.5,29.5C 29.8333,29.5 29.1667,29.5 28.5,29.5C 28.5,29.1667 28.5,28.8333 28.5,28.5C 28.5,28.1667 28.5,27.8333 28.5,27.5 Z"/></g>
<g><path style="opacity:0.994" fill="#f447e3" d="M -0.5,24.5 C -0.166667,24.5 0.166667,24.5 0.5,24.5C 1.49162,24.3284 2.15829,24.6618 2.5,25.5C 2.5,25.8333 2.5,26.1667 2.5,26.5C 1.83333,29.1667 1.16667,31.8333 0.5,34.5C 0.166667,34.5 -0.166667,34.5 -0.5,34.5C -0.5,31.1667 -0.5,27.8333 -0.5,24.5 Z"/></g>
<g><path style="opacity:0.322" fill="#e591f8" d="M 24.5,29.5 C 25.1667,30.8333 25.8333,30.8333 26.5,29.5C 26.8417,28.6618 27.5084,28.3284 28.5,28.5C 28.5,28.8333 28.5,29.1667 28.5,29.5C 29.1667,30.8333 29.8333,30.8333 30.5,29.5C 30.56,28.9569 30.8933,28.6236 31.5,28.5C 32.1818,29.2427 32.8485,29.9094 33.5,30.5C 34.1667,30.5 34.5,30.1667 34.5,29.5C 34.56,28.9569 34.8933,28.6236 35.5,28.5C 36.1818,29.2427 36.8485,29.9094 37.5,30.5C 38.1667,30.5 38.5,30.1667 38.5,29.5C 38.5,29.1667 38.5,28.8333 38.5,28.5C 39.7777,28.7822 40.7777,29.4489 41.5,30.5C 42.1667,30.5 42.5,30.1667 42.5,29.5C 43.1667,28.1667 43.8333,28.1667 44.5,29.5C 45.1667,29.5 45.5,29.8333 45.5,30.5C 45.8333,30.5 46.1667,30.5 46.5,30.5C 37.6822,31.4933 28.6822,31.8266 19.5,31.5C 16.9407,31.8016 14.6074,31.4682 12.5,30.5C 12.8333,30.5 13.1667,30.5 13.5,30.5C 14.4916,30.6716 15.1583,30.3382 15.5,29.5C 16.8333,29.5 18.1667,29.5 19.5,29.5C 20.5,30.8333 21.5,30.8333 22.5,29.5C 23.1667,28.1667 23.8333,28.1667 24.5,29.5 Z"/></g>
<g><path style="opacity:1" fill="#fb8ff0" d="M 2.5,26.5 C 2.02164,30.3375 3.02164,33.6709 5.5,36.5C 4.16667,36.5 3.5,37.1667 3.5,38.5C 1.73758,37.7377 0.737579,36.4044 0.5,34.5C 1.16667,31.8333 1.83333,29.1667 2.5,26.5 Z"/></g>
<g><path style="opacity:0.365" fill="#ec9af9" d="M 10.5,32.5 C 13.5,32.5 16.5,32.5 19.5,32.5C 28.8333,32.5 38.1667,32.5 47.5,32.5C 42.8333,33.1667 38.1667,33.8333 33.5,34.5C 28.8333,34.5 24.1667,34.5 19.5,34.5C 16.5,34.5 13.5,34.5 10.5,34.5C 10.5,33.8333 10.5,33.1667 10.5,32.5 Z"/></g>
<g><path style="opacity:0.365" fill="#eabafb" d="M 48.5,21.5 C 49.7943,25.7327 49.7943,30.0661 48.5,34.5C 43.5,34.5 38.5,34.5 33.5,34.5C 38.1667,33.8333 42.8333,33.1667 47.5,32.5C 48.4816,29.0381 48.815,25.3714 48.5,21.5 Z"/></g>
<g><path style="opacity:0.039" fill="#fef4fe" d="M 10.5,34.5 C 10.5,38.1667 10.5,41.8333 10.5,45.5C 9.83333,43.8333 9.16667,42.1667 8.5,40.5C 8.5,39.8333 8.5,39.1667 8.5,38.5C 9.16667,37.1667 9.83333,35.8333 10.5,34.5 Z"/></g>
<g><path style="opacity:0.991" fill="#e709f0" d="M 10.5,34.5 C 13.5,34.5 16.5,34.5 19.5,34.5C 19.5,34.8333 19.5,35.1667 19.5,35.5C 16.9407,35.1984 14.6074,35.5318 12.5,36.5C 12.5,38.8333 12.5,41.1667 12.5,43.5C 14.6074,44.4682 16.9407,44.8016 19.5,44.5C 19.5,44.8333 19.5,45.1667 19.5,45.5C 16.5,45.5 13.5,45.5 10.5,45.5C 10.5,41.8333 10.5,38.1667 10.5,34.5 Z"/></g>
<g><path style="opacity:0.999" fill="#bf6ff6" d="M 56.5,24.5 C 57.3171,26.9686 57.8171,29.6353 58,32.5C 58.1981,30.6183 58.6981,28.9516 59.5,27.5C 59.5,29.5 59.5,31.5 59.5,33.5C 57.4969,36.4975 54.8303,38.8309 51.5,40.5C 50.8933,40.3764 50.56,40.0431 50.5,39.5C 50.5,38.8333 50.5,38.1667 50.5,37.5C 55.9022,34.9077 57.9022,30.5744 56.5,24.5 Z"/></g>
<g><path style="opacity:0.406" fill="#ec8df8" d="M 12.5,36.5 C 14.6074,35.5318 16.9407,35.1984 19.5,35.5C 21.8333,35.5 24.1667,35.5 26.5,35.5C 26.5,35.8333 26.5,36.1667 26.5,36.5C 25.5084,36.3284 24.8417,36.6618 24.5,37.5C 24.5,38.1667 24.5,38.8333 24.5,39.5C 23.8333,39.5 23.1667,39.5 22.5,39.5C 22.5,38.8333 22.5,38.1667 22.5,37.5C 21.5,36.1667 20.5,36.1667 19.5,37.5C 19.1667,37.5 18.8333,37.5 18.5,37.5C 17.5,37.5 16.5,37.5 15.5,37.5C 15.1583,36.6618 14.4916,36.3284 13.5,36.5C 13.1667,36.5 12.8333,36.5 12.5,36.5 Z"/></g>
<g><path style="opacity:0.41" fill="#e183f7" d="M 26.5,35.5 C 29.1667,35.5 31.8333,35.5 34.5,35.5C 34.5,35.8333 34.5,36.1667 34.5,36.5C 33.5084,36.3284 32.8417,36.6618 32.5,37.5C 32.5,38.1667 32.5,38.8333 32.5,39.5C 31.8333,39.5 31.1667,39.5 30.5,39.5C 30.5,38.8333 30.5,38.1667 30.5,37.5C 29.8333,36.1667 29.1667,36.1667 28.5,37.5C 28.5,38.1667 28.5,38.8333 28.5,39.5C 27.8333,39.5 27.1667,39.5 26.5,39.5C 26.5,38.8333 26.5,38.1667 26.5,37.5C 26.5,37.1667 26.5,36.8333 26.5,36.5C 26.5,36.1667 26.5,35.8333 26.5,35.5 Z"/></g>
<g><path style="opacity:0.412" fill="#e9aafa" d="M 34.5,35.5 C 35.8333,35.5 37.1667,35.5 38.5,35.5C 38.5,35.8333 38.5,36.1667 38.5,36.5C 35.8333,36.8333 35.8333,37.1667 38.5,37.5C 38.5,37.8333 38.5,38.1667 38.5,38.5C 36.6208,39.3414 34.6208,39.6747 32.5,39.5C 32.5,38.8333 32.5,38.1667 32.5,37.5C 33.4916,37.6716 34.1583,37.3382 34.5,36.5C 34.5,36.1667 34.5,35.8333 34.5,35.5 Z"/></g>
<g><path style="opacity:0.402" fill="#d583f7" d="M 38.5,35.5 C 41.3854,35.1936 44.0521,35.5269 46.5,36.5C 46.1667,36.5 45.8333,36.5 45.5,36.5C 44.8333,36.5 44.5,36.8333 44.5,37.5C 44.5,38.1667 44.5,38.8333 44.5,39.5C 43.8333,39.5 43.1667,39.5 42.5,39.5C 42.5,38.8333 42.5,38.1667 42.5,37.5C 41.8333,36.1667 41.1667,36.1667 40.5,37.5C 40.5,38.1667 40.5,38.8333 40.5,39.5C 39.5084,39.6716 38.8417,39.3382 38.5,38.5C 38.5,38.1667 38.5,37.8333 38.5,37.5C 38.5,37.1667 38.5,36.8333 38.5,36.5C 38.5,36.1667 38.5,35.8333 38.5,35.5 Z"/></g>
<g><path style="opacity:0.078" fill="#f8edfe" d="M 48.5,34.5 C 49.1667,35.5 49.8333,36.5 50.5,37.5C 50.5,38.1667 50.5,38.8333 50.5,39.5C 49.8333,41.5 49.1667,43.5 48.5,45.5C 48.5,41.8333 48.5,38.1667 48.5,34.5 Z"/></g>
<g><path style="opacity:0.948" fill="#b304f0" d="M 19.5,35.5 C 19.5,35.1667 19.5,34.8333 19.5,34.5C 24.1667,34.5 28.8333,34.5 33.5,34.5C 38.5,34.5 43.5,34.5 48.5,34.5C 48.5,38.1667 48.5,41.8333 48.5,45.5C 38.8333,45.5 29.1667,45.5 19.5,45.5C 19.5,45.1667 19.5,44.8333 19.5,44.5C 21.1667,44.5 22.8333,44.5 24.5,44.5C 27.8333,44.5 31.1667,44.5 34.5,44.5C 38.7016,44.8168 42.7016,44.4834 46.5,43.5C 46.5,41.1667 46.5,38.8333 46.5,36.5C 44.0521,35.5269 41.3854,35.1936 38.5,35.5C 37.1667,35.5 35.8333,35.5 34.5,35.5C 31.8333,35.5 29.1667,35.5 26.5,35.5C 24.1667,35.5 21.8333,35.5 19.5,35.5 Z"/></g>
<g><path style="opacity:1" fill="#f667ef" d="M 5.5,36.5 C 6.70951,36.9321 7.70951,37.5987 8.5,38.5C 8.5,39.1667 8.5,39.8333 8.5,40.5C 6.44708,40.5979 4.78041,39.9313 3.5,38.5C 3.5,37.1667 4.16667,36.5 5.5,36.5 Z"/></g>
<g><path style="opacity:0.112" fill="#fce8fd" d="M 12.5,36.5 C 12.8333,36.5 13.1667,36.5 13.5,36.5C 13.3284,37.4916 13.6618,38.1583 14.5,38.5C 14.5,39.5 14.5,40.5 14.5,41.5C 13.6618,41.8417 13.3284,42.5084 13.5,43.5C 13.1667,43.5 12.8333,43.5 12.5,43.5C 12.5,41.1667 12.5,38.8333 12.5,36.5 Z"/></g>
<g><path style="opacity:0.992" fill="#e537f2" d="M 15.5,37.5 C 16.5,37.5 17.5,37.5 18.5,37.5C 15.8333,39.1667 15.8333,40.8333 18.5,42.5C 17.5,42.5 16.5,42.5 15.5,42.5C 14.8333,42.5 14.5,42.1667 14.5,41.5C 14.5,40.5 14.5,39.5 14.5,38.5C 14.5,37.8333 14.8333,37.5 15.5,37.5 Z"/></g>
<g><path style="opacity:0.992" fill="#e961f5" d="M 18.5,37.5 C 18.8333,37.5 19.1667,37.5 19.5,37.5C 20.1667,37.5 20.5,37.8333 20.5,38.5C 20.5,39.5 20.5,40.5 20.5,41.5C 20.5,42.1667 20.1667,42.5 19.5,42.5C 19.1667,42.5 18.8333,42.5 18.5,42.5C 15.8333,40.8333 15.8333,39.1667 18.5,37.5 Z"/></g>
<g><path style="opacity:0.024" fill="#fdf4fe" d="M 22.5,37.5 C 22.5,38.1667 22.5,38.8333 22.5,39.5C 21.1667,39.8333 21.1667,40.1667 22.5,40.5C 22.5,41.1667 22.5,41.8333 22.5,42.5C 21.8333,42.1667 21.1667,41.8333 20.5,41.5C 20.5,40.5 20.5,39.5 20.5,38.5C 21.1667,38.1667 21.8333,37.8333 22.5,37.5 Z"/></g>
<g><path style="opacity:0.016" fill="#fdf6fe" d="M 24.5,37.5 C 25.1667,37.5 25.8333,37.5 26.5,37.5C 26.5,38.1667 26.5,38.8333 26.5,39.5C 25.8333,39.5 25.1667,39.5 24.5,39.5C 24.5,38.8333 24.5,38.1667 24.5,37.5 Z"/></g>
<g><path style="opacity:0.012" fill="#fdf7fe" d="M 28.5,37.5 C 29.1667,37.5 29.8333,37.5 30.5,37.5C 30.5,38.1667 30.5,38.8333 30.5,39.5C 29.8333,39.5 29.1667,39.5 28.5,39.5C 28.5,38.8333 28.5,38.1667 28.5,37.5 Z"/></g>
<g><path style="opacity:0.047" fill="#fbf2fe" d="M 40.5,37.5 C 41.1667,37.5 41.8333,37.5 42.5,37.5C 42.5,38.1667 42.5,38.8333 42.5,39.5C 41.8333,39.5 41.1667,39.5 40.5,39.5C 40.5,38.8333 40.5,38.1667 40.5,37.5 Z"/></g>
<g><path style="opacity:0.01" fill="#fcf4fe" d="M 32.5,40.5 C 33.1667,40.5 33.8333,40.5 34.5,40.5C 34.5,41.1667 34.5,41.8333 34.5,42.5C 33.8333,42.5 33.1667,42.5 32.5,42.5C 32.5,41.8333 32.5,41.1667 32.5,40.5 Z"/></g>
<g><path style="opacity:0.054" fill="#fbf3fe" d="M 45.5,36.5 C 45.8333,36.5 46.1667,36.5 46.5,36.5C 46.5,38.8333 46.5,41.1667 46.5,43.5C 46.1667,43.5 45.8333,43.5 45.5,43.5C 45.5,42.8333 45.1667,42.5 44.5,42.5C 44.5,41.8333 44.5,41.1667 44.5,40.5C 45.8333,40.1667 45.8333,39.8333 44.5,39.5C 44.5,38.8333 44.5,38.1667 44.5,37.5C 45.1667,37.5 45.5,37.1667 45.5,36.5 Z"/></g>
<g><path style="opacity:0.035" fill="#fcf3fe" d="M 24.5,40.5 C 25.1667,40.5 25.8333,40.5 26.5,40.5C 26.5,41.1667 26.5,41.8333 26.5,42.5C 25.8333,42.5 25.1667,42.5 24.5,42.5C 24.5,41.8333 24.5,41.1667 24.5,40.5 Z"/></g>
<g><path style="opacity:0.578" fill="#e979f6" d="M 22.5,40.5 C 23.1667,40.5 23.8333,40.5 24.5,40.5C 24.5,41.1667 24.5,41.8333 24.5,42.5C 24.5,42.8333 24.5,43.1667 24.5,43.5C 24.5,43.8333 24.5,44.1667 24.5,44.5C 22.8333,44.5 21.1667,44.5 19.5,44.5C 16.9407,44.8016 14.6074,44.4682 12.5,43.5C 12.8333,43.5 13.1667,43.5 13.5,43.5C 14.4916,43.6716 15.1583,43.3382 15.5,42.5C 16.5,42.5 17.5,42.5 18.5,42.5C 18.8333,42.5 19.1667,42.5 19.5,42.5C 20.5,43.8333 21.5,43.8333 22.5,42.5C 22.5,41.8333 22.5,41.1667 22.5,40.5 Z"/></g>
<g><path style="opacity:0.578" fill="#da67f5" d="M 26.5,40.5 C 27.1667,40.5 27.8333,40.5 28.5,40.5C 28.5,41.1667 28.5,41.8333 28.5,42.5C 29.1667,43.8333 29.8333,43.8333 30.5,42.5C 30.5,41.8333 30.5,41.1667 30.5,40.5C 31.1667,40.5 31.8333,40.5 32.5,40.5C 32.5,41.1667 32.5,41.8333 32.5,42.5C 32.8417,43.3382 33.5084,43.6716 34.5,43.5C 34.5,43.8333 34.5,44.1667 34.5,44.5C 31.1667,44.5 27.8333,44.5 24.5,44.5C 24.5,44.1667 24.5,43.8333 24.5,43.5C 25.4916,43.6716 26.1583,43.3382 26.5,42.5C 26.5,41.8333 26.5,41.1667 26.5,40.5 Z"/></g>
<g><path style="opacity:0.012" fill="#fcf5fe" d="M 28.5,40.5 C 29.1667,40.5 29.8333,40.5 30.5,40.5C 30.5,41.1667 30.5,41.8333 30.5,42.5C 29.8333,42.5 29.1667,42.5 28.5,42.5C 28.5,41.8333 28.5,41.1667 28.5,40.5 Z"/></g>
<g><path style="opacity:0.578" fill="#cf67f5" d="M 34.5,40.5 C 35.1667,40.5 35.8333,40.5 36.5,40.5C 36.5,41.1667 36.5,41.8333 36.5,42.5C 37.1667,43.8333 37.8333,43.8333 38.5,42.5C 38.5,41.8333 38.5,41.1667 38.5,40.5C 39.1667,40.5 39.8333,40.5 40.5,40.5C 40.5,41.1667 40.5,41.8333 40.5,42.5C 41.1667,43.8333 41.8333,43.8333 42.5,42.5C 42.5,41.8333 42.5,41.1667 42.5,40.5C 43.1667,40.5 43.8333,40.5 44.5,40.5C 44.5,41.1667 44.5,41.8333 44.5,42.5C 45.1667,42.5 45.5,42.8333 45.5,43.5C 45.8333,43.5 46.1667,43.5 46.5,43.5C 42.7016,44.4834 38.7016,44.8168 34.5,44.5C 34.5,44.1667 34.5,43.8333 34.5,43.5C 34.5,43.1667 34.5,42.8333 34.5,42.5C 34.5,41.8333 34.5,41.1667 34.5,40.5 Z"/></g>
<g><path style="opacity:0.129" fill="#faebfd" d="M 36.5,40.5 C 37.1667,40.5 37.8333,40.5 38.5,40.5C 38.5,41.1667 38.5,41.8333 38.5,42.5C 37.8333,42.5 37.1667,42.5 36.5,42.5C 36.5,41.8333 36.5,41.1667 36.5,40.5 Z"/></g>
<g><path style="opacity:0.01" fill="#fbf4fe" d="M 40.5,40.5 C 41.1667,40.5 41.8333,40.5 42.5,40.5C 42.5,41.1667 42.5,41.8333 42.5,42.5C 41.8333,42.5 41.1667,42.5 40.5,42.5C 40.5,41.8333 40.5,41.1667 40.5,40.5 Z"/></g>
<g><path style="opacity:0.337" fill="#f2c0fb" d="M 10.5,45.5 C 13.5,45.5 16.5,45.5 19.5,45.5C 29.1667,45.5 38.8333,45.5 48.5,45.5C 49.436,49.7352 49.7693,54.0685 49.5,58.5C 49.1667,58.5 48.8333,58.5 48.5,58.5C 48.5,58.1667 48.5,57.8333 48.5,57.5C 48.8128,53.9581 48.4794,50.6248 47.5,47.5C 35.6738,46.3403 23.6738,46.1737 11.5,47C 10.5399,50.73 10.2065,54.5633 10.5,58.5C 10.1667,58.5 9.83333,58.5 9.5,58.5C 9.23071,54.0685 9.56404,49.7352 10.5,45.5 Z M 15.5,50.5 C 14.8333,50.5 14.5,50.8333 14.5,51.5C 13.9569,51.44 13.6236,51.1067 13.5,50.5C 14.2565,49.2267 14.9232,49.2267 15.5,50.5 Z M 19.5,50.5 C 20.209,49.596 21.209,49.2627 22.5,49.5C 22.5,49.8333 22.5,50.1667 22.5,50.5C 21.8333,50.8333 21.1667,51.1667 20.5,51.5C 20.5,50.8333 20.1667,50.5 19.5,50.5 Z M 38.5,51.5 C 41.1178,52.056 43.1178,52.7227 44.5,53.5C 43.8333,53.5 43.1667,53.5 42.5,53.5C 41.8333,53.5 41.1667,53.5 40.5,53.5C 39.8333,53.5 39.1667,53.5 38.5,53.5C 37.8333,53.5 37.1667,53.5 36.5,53.5C 35.8333,53.5 35.1667,53.5 34.5,53.5C 33.8333,53.5 33.1667,53.5 32.5,53.5C 31.8333,53.5 31.1667,53.5 30.5,53.5C 29.8333,53.5 29.1667,53.5 28.5,53.5C 27.8333,53.5 27.1667,53.5 26.5,53.5C 25.8333,53.5 25.1667,53.5 24.5,53.5C 23.8333,53.5 23.1667,53.5 22.5,53.5C 22.8993,52.4789 24.2326,52.1455 26.5,52.5C 30.6002,52.7633 34.6002,52.4299 38.5,51.5 Z M 14.5,53.5 C 14.5,54.8333 15.1667,55.5 16.5,55.5C 15.791,56.404 14.791,56.7373 13.5,56.5C 13.2627,55.209 13.596,54.209 14.5,53.5 Z M 20.5,54.5 C 21.1667,54.8333 21.8333,55.1667 22.5,55.5C 21.1667,56.8333 19.8333,56.8333 18.5,55.5C 19.4916,55.6716 20.1583,55.3382 20.5,54.5 Z M 38.5,54.5 C 38.2893,56.4241 37.6226,56.7574 36.5,55.5C 37.1667,55.1667 37.8333,54.8333 38.5,54.5 Z"/></g>
<g><path style="opacity:0.989" fill="#e443f3" d="M 47.5,47.5 C 37.985,47.1731 28.6517,47.5064 19.5,48.5C 17.1667,48.5 14.8333,48.5 12.5,48.5C 12.1936,51.3854 12.5269,54.0521 13.5,56.5C 14.791,56.7373 15.791,56.404 16.5,55.5C 17.1667,55.5 17.8333,55.5 18.5,55.5C 19.8333,56.8333 21.1667,56.8333 22.5,55.5C 22.5,54.8333 22.5,54.1667 22.5,53.5C 23.1667,53.5 23.8333,53.5 24.5,53.5C 24.5,54.1667 24.5,54.8333 24.5,55.5C 24.5,55.8333 24.5,56.1667 24.5,56.5C 24.1667,57.1667 23.8333,57.8333 23.5,58.5C 19.1667,58.5 14.8333,58.5 10.5,58.5C 10.2065,54.5633 10.5399,50.73 11.5,47C 23.6738,46.1737 35.6738,46.3403 47.5,47.5 Z M 14.5,53.5 C 14.5,54.8333 15.1667,55.5 16.5,55.5C 15.791,56.404 14.791,56.7373 13.5,56.5C 13.2627,55.209 13.596,54.209 14.5,53.5 Z M 20.5,54.5 C 21.1667,54.8333 21.8333,55.1667 22.5,55.5C 21.1667,56.8333 19.8333,56.8333 18.5,55.5C 19.4916,55.6716 20.1583,55.3382 20.5,54.5 Z"/></g>
<g><path style="opacity:0.294" fill="#f0b9fb" d="M 19.5,48.5 C 28.6822,48.1734 37.6822,48.5067 46.5,49.5C 46.1667,49.5 45.8333,49.5 45.5,49.5C 45.1667,49.5 44.8333,49.5 44.5,49.5C 43.8333,49.5 43.1667,49.5 42.5,49.5C 42.1667,49.5 41.8333,49.5 41.5,49.5C 41.1667,49.5 40.8333,49.5 40.5,49.5C 39.8333,49.5 39.1667,49.5 38.5,49.5C 38.1667,49.5 37.8333,49.5 37.5,49.5C 37.1667,49.5 36.8333,49.5 36.5,49.5C 35.8333,49.5 35.1667,49.5 34.5,49.5C 34.1667,49.5 33.8333,49.5 33.5,49.5C 33.1667,49.5 32.8333,49.5 32.5,49.5C 31.8333,49.5 31.1667,49.5 30.5,49.5C 30.1667,49.5 29.8333,49.5 29.5,49.5C 29.1667,49.5 28.8333,49.5 28.5,49.5C 27.8333,49.5 27.1667,49.5 26.5,49.5C 26.1667,49.5 25.8333,49.5 25.5,49.5C 25.1667,49.5 24.8333,49.5 24.5,49.5C 23.8333,49.5 23.1667,49.5 22.5,49.5C 21.209,49.2627 20.209,49.596 19.5,50.5C 18.3478,49.375 17.3478,49.375 16.5,50.5C 16.1667,50.5 15.8333,50.5 15.5,50.5C 14.9232,49.2267 14.2565,49.2267 13.5,50.5C 13.6236,51.1067 13.9569,51.44 14.5,51.5C 14.5,52.1667 14.5,52.8333 14.5,53.5C 13.596,54.209 13.2627,55.209 13.5,56.5C 12.5269,54.0521 12.1936,51.3854 12.5,48.5C 14.8333,48.5 17.1667,48.5 19.5,48.5 Z"/></g>
<g><path style="opacity:0.954" fill="#af06f0" d="M 19.5,48.5 C 28.6517,47.5064 37.985,47.1731 47.5,47.5C 48.4794,50.6248 48.8128,53.9581 48.5,57.5C 47.5084,57.6716 46.8417,57.3382 46.5,56.5C 46.5,54.1667 46.5,51.8333 46.5,49.5C 37.6822,48.5067 28.6822,48.1734 19.5,48.5 Z"/></g>
<g><path style="opacity:0.993" fill="#e63bf2" d="M 15.5,50.5 C 15.8333,50.5 16.1667,50.5 16.5,50.5C 16.8308,52.3224 17.4975,53.9891 18.5,55.5C 17.8333,55.5 17.1667,55.5 16.5,55.5C 15.1667,55.5 14.5,54.8333 14.5,53.5C 14.5,52.8333 14.5,52.1667 14.5,51.5C 14.5,50.8333 14.8333,50.5 15.5,50.5 Z"/></g>
<g><path style="opacity:0.995" fill="#e862f4" d="M 19.5,50.5 C 20.1667,50.5 20.5,50.8333 20.5,51.5C 20.5,52.5 20.5,53.5 20.5,54.5C 20.1583,55.3382 19.4916,55.6716 18.5,55.5C 17.4975,53.9891 16.8308,52.3224 16.5,50.5C 17.3478,49.375 18.3478,49.375 19.5,50.5 Z"/></g>
<g><path style="opacity:1" fill="#d730f1" d="M 22.5,49.5 C 23.1667,49.5 23.8333,49.5 24.5,49.5C 24.2893,51.4241 23.6226,51.7574 22.5,50.5C 22.5,50.1667 22.5,49.8333 22.5,49.5 Z"/></g>
<g><path style="opacity:0.998" fill="#d030f1" d="M 26.5,49.5 C 27.1667,49.5 27.8333,49.5 28.5,49.5C 28.5,50.8333 27.8333,51.5 26.5,51.5C 26.5,51.1667 26.5,50.8333 26.5,50.5C 26.5,50.1667 26.5,49.8333 26.5,49.5 Z"/></g>
<g><path style="opacity:1" fill="#bc30f2" d="M 38.5,49.5 C 39.1667,49.5 39.8333,49.5 40.5,49.5C 40.5,50.8333 39.8333,51.5 38.5,51.5C 38.5,51.1667 38.5,50.8333 38.5,50.5C 38.5,50.1667 38.5,49.8333 38.5,49.5 Z"/></g>
<g><path style="opacity:0.016" fill="#fceefe" d="M 24.5,49.5 C 24.8333,49.5 25.1667,49.5 25.5,49.5C 25.5,50.1667 25.8333,50.5 26.5,50.5C 26.5,50.8333 26.5,51.1667 26.5,51.5C 26.5,51.8333 26.5,52.1667 26.5,52.5C 24.2326,52.1455 22.8993,52.4789 22.5,53.5C 22.5,54.1667 22.5,54.8333 22.5,55.5C 21.8333,55.1667 21.1667,54.8333 20.5,54.5C 20.5,53.5 20.5,52.5 20.5,51.5C 21.1667,51.1667 21.8333,50.8333 22.5,50.5C 23.6226,51.7574 24.2893,51.4241 24.5,49.5 Z"/></g>
<g><path style="opacity:0.008" fill="#f9e3fd" d="M 28.5,49.5 C 28.8333,49.5 29.1667,49.5 29.5,49.5C 29.5,50.1667 29.8333,50.5 30.5,50.5C 31.6226,51.7574 32.2893,51.4241 32.5,49.5C 32.8333,49.5 33.1667,49.5 33.5,49.5C 33.5,50.1667 33.8333,50.5 34.5,50.5C 35.6226,51.7574 36.2893,51.4241 36.5,49.5C 36.8333,49.5 37.1667,49.5 37.5,49.5C 37.5,50.1667 37.8333,50.5 38.5,50.5C 38.5,50.8333 38.5,51.1667 38.5,51.5C 34.6002,52.4299 30.6002,52.7633 26.5,52.5C 26.5,52.1667 26.5,51.8333 26.5,51.5C 27.8333,51.5 28.5,50.8333 28.5,49.5 Z"/></g>
<g><path style="opacity:1" fill="#c430f2" d="M 34.5,49.5 C 35.1667,49.5 35.8333,49.5 36.5,49.5C 36.2893,51.4241 35.6226,51.7574 34.5,50.5C 34.5,50.1667 34.5,49.8333 34.5,49.5 Z"/></g>
<g><path style="opacity:1" fill="#c92ff1" d="M 30.5,49.5 C 31.1667,49.5 31.8333,49.5 32.5,49.5C 32.2893,51.4241 31.6226,51.7574 30.5,50.5C 30.5,50.1667 30.5,49.8333 30.5,49.5 Z"/></g>
<g><path style="opacity:0.051" fill="#f9edfd" d="M 40.5,49.5 C 40.8333,49.5 41.1667,49.5 41.5,49.5C 41.5,50.1667 41.8333,50.5 42.5,50.5C 43.1667,51.8333 43.8333,51.8333 44.5,50.5C 45.1667,50.5 45.5,50.1667 45.5,49.5C 45.8333,49.5 46.1667,49.5 46.5,49.5C 46.5,51.8333 46.5,54.1667 46.5,56.5C 46.1667,56.5 45.8333,56.5 45.5,56.5C 45.5,55.8333 45.1667,55.5 44.5,55.5C 44.5,54.8333 44.5,54.1667 44.5,53.5C 43.1178,52.7227 41.1178,52.056 38.5,51.5C 39.8333,51.5 40.5,50.8333 40.5,49.5 Z"/></g>
<g><path style="opacity:1" fill="#b631f1" d="M 42.5,49.5 C 43.1667,49.5 43.8333,49.5 44.5,49.5C 44.5,49.8333 44.5,50.1667 44.5,50.5C 43.8333,51.8333 43.1667,51.8333 42.5,50.5C 42.5,50.1667 42.5,49.8333 42.5,49.5 Z"/></g>
<g><path style="opacity:0.078" fill="#fcf0fe" d="M 24.5,53.5 C 25.1667,53.5 25.8333,53.5 26.5,53.5C 26.5,54.1667 26.5,54.8333 26.5,55.5C 25.8333,55.5 25.1667,55.5 24.5,55.5C 24.5,54.8333 24.5,54.1667 24.5,53.5 Z"/></g>
<g><path style="opacity:0.106" fill="#faedfd" d="M 32.5,53.5 C 33.1667,53.5 33.8333,53.5 34.5,53.5C 34.5,54.1667 34.5,54.8333 34.5,55.5C 33.8333,55.5 33.1667,55.5 32.5,55.5C 32.5,54.8333 32.5,54.1667 32.5,53.5 Z"/></g>
<g><path style="opacity:0.106" fill="#f9edfd" d="M 40.5,53.5 C 41.1667,53.5 41.8333,53.5 42.5,53.5C 42.5,54.1667 42.5,54.8333 42.5,55.5C 41.8333,55.5 41.1667,55.5 40.5,55.5C 40.5,54.8333 40.5,54.1667 40.5,53.5 Z"/></g>
<g><path style="opacity:0.973" fill="#d546f3" d="M 26.5,53.5 C 27.1667,53.5 27.8333,53.5 28.5,53.5C 28.5,54.1667 28.5,54.8333 28.5,55.5C 29.1667,56.8333 29.8333,56.8333 30.5,55.5C 30.5,54.8333 30.5,54.1667 30.5,53.5C 31.1667,53.5 31.8333,53.5 32.5,53.5C 32.5,54.1667 32.5,54.8333 32.5,55.5C 32.5,55.8333 32.5,56.1667 32.5,56.5C 31.5,57.1667 30.5,57.8333 29.5,58.5C 27.5,58.5 25.5,58.5 23.5,58.5C 23.8333,57.8333 24.1667,57.1667 24.5,56.5C 25.4916,56.6716 26.1583,56.3382 26.5,55.5C 26.5,54.8333 26.5,54.1667 26.5,53.5 Z"/></g>
<g><path style="opacity:0.09" fill="#fbeffe" d="M 28.5,53.5 C 29.1667,53.5 29.8333,53.5 30.5,53.5C 30.5,54.1667 30.5,54.8333 30.5,55.5C 29.8333,55.5 29.1667,55.5 28.5,55.5C 28.5,54.8333 28.5,54.1667 28.5,53.5 Z"/></g>
<g><path style="opacity:0.973" fill="#c942f2" d="M 34.5,53.5 C 35.1667,53.5 35.8333,53.5 36.5,53.5C 36.5,54.1667 36.5,54.8333 36.5,55.5C 37.6226,56.7574 38.2893,56.4241 38.5,54.5C 38.5,54.1667 38.5,53.8333 38.5,53.5C 39.1667,53.5 39.8333,53.5 40.5,53.5C 40.5,54.1667 40.5,54.8333 40.5,55.5C 40.5,55.8333 40.5,56.1667 40.5,56.5C 39.8333,57.1667 39.1667,57.8333 38.5,58.5C 35.5,58.5 32.5,58.5 29.5,58.5C 30.5,57.8333 31.5,57.1667 32.5,56.5C 33.4916,56.6716 34.1583,56.3382 34.5,55.5C 34.5,54.8333 34.5,54.1667 34.5,53.5 Z M 38.5,54.5 C 38.2893,56.4241 37.6226,56.7574 36.5,55.5C 37.1667,55.1667 37.8333,54.8333 38.5,54.5 Z"/></g>
<g><path style="opacity:0.118" fill="#f9eafd" d="M 36.5,53.5 C 37.1667,53.5 37.8333,53.5 38.5,53.5C 38.5,53.8333 38.5,54.1667 38.5,54.5C 37.8333,54.8333 37.1667,55.1667 36.5,55.5C 36.5,54.8333 36.5,54.1667 36.5,53.5 Z"/></g>
<g><path style="opacity:0.973" fill="#b835f2" d="M 42.5,53.5 C 43.1667,53.5 43.8333,53.5 44.5,53.5C 44.5,54.1667 44.5,54.8333 44.5,55.5C 45.1667,55.5 45.5,55.8333 45.5,56.5C 45.8333,56.5 46.1667,56.5 46.5,56.5C 46.8417,57.3382 47.5084,57.6716 48.5,57.5C 48.5,57.8333 48.5,58.1667 48.5,58.5C 45.1667,58.5 41.8333,58.5 38.5,58.5C 39.1667,57.8333 39.8333,57.1667 40.5,56.5C 41.4916,56.6716 42.1583,56.3382 42.5,55.5C 42.5,54.8333 42.5,54.1667 42.5,53.5 Z"/></g>
</svg>
