<?xml version="1.0" encoding="UTF-8"?>
<!DOCTYPE svg PUBLIC "-//W3C//DTD SVG 1.1//EN" "http://www.w3.org/Graphics/SVG/1.1/DTD/svg11.dtd">
<svg xmlns="http://www.w3.org/2000/svg" version="1.1" width="60px" height="59px" style="shape-rendering:geometricPrecision; text-rendering:geometricPrecision; image-rendering:optimizeQuality; fill-rule:evenodd; clip-rule:evenodd" xmlns:xlink="http://www.w3.org/1999/xlink">
<g><path style="opacity:1" fill="#c92fcd" d="M 25.5,6.5 C 25.5,6.16667 25.5,5.83333 25.5,5.5C 28.5,5.5 31.5,5.5 34.5,5.5C 34.5,5.83333 34.5,6.16667 34.5,6.5C 32.8828,7.038 31.2161,7.37133 29.5,7.5C 28.4324,6.56552 27.099,6.23219 25.5,6.5 Z"/></g>
<g><path style="opacity:0.976" fill="#c81acc" d="M 34.5,6.5 C 35.4916,6.32842 36.1583,6.66175 36.5,7.5C 33.3752,8.47944 30.0419,8.81277 26.5,8.5C 27.209,7.59603 28.209,7.26269 29.5,7.5C 31.2161,7.37133 32.8828,7.038 34.5,6.5 Z"/></g>
<g><path style="opacity:0.11" fill="#eeafef" d="M 34.5,6.5 C 34.5,6.16667 34.5,5.83333 34.5,5.5C 37.6145,5.55481 39.9478,6.88814 41.5,9.5C 40.391,9.44312 39.391,9.10978 38.5,8.5C 38.1583,7.66175 37.4916,7.32842 36.5,7.5C 36.1583,6.66175 35.4916,6.32842 34.5,6.5 Z"/></g>
<g><path style="opacity:1" fill="#c213c6" d="M 25.5,6.5 C 27.099,6.23219 28.4324,6.56552 29.5,7.5C 28.209,7.26269 27.209,7.59603 26.5,8.5C 25.8333,8.5 25.5,8.83333 25.5,9.5C 20.1667,8.5 20.1667,7.5 25.5,6.5 Z"/></g>
<g><path style="opacity:1" fill="#de83de" d="M 25.5,5.5 C 25.5,5.83333 25.5,6.16667 25.5,6.5C 20.1667,7.5 20.1667,8.5 25.5,9.5C 24.1007,10.8897 22.4341,11.8897 20.5,12.5C 21.5624,11.4246 21.5624,10.4246 20.5,9.5C 19.5832,10.1272 18.5832,10.4606 17.5,10.5C 19.1927,7.31823 21.8593,5.65156 25.5,5.5 Z"/></g>
<g><path style="opacity:1" fill="#de73df" d="M 36.5,7.5 C 37.4916,7.32842 38.1583,7.66175 38.5,8.5C 37.5291,9.96209 37.8624,11.2954 39.5,12.5C 35.2615,9.90969 30.5948,8.90969 25.5,9.5C 25.5,8.83333 25.8333,8.5 26.5,8.5C 30.0419,8.81277 33.3752,8.47944 36.5,7.5 Z"/></g>
<g><path style="opacity:1" fill="#bf14c3" d="M 20.5,12.5 C 19.5,12.8333 18.8333,13.5 18.5,14.5C 17.5084,14.6716 16.8417,14.3382 16.5,13.5C 17.1098,12.609 17.4431,11.609 17.5,10.5C 18.5832,10.4606 19.5832,10.1272 20.5,9.5C 21.5624,10.4246 21.5624,11.4246 20.5,12.5 Z"/></g>
<g><path style="opacity:1" fill="#cc15d1" d="M 38.5,8.5 C 39.391,9.10978 40.391,9.44312 41.5,9.5C 41.5106,11.0174 42.1772,12.1841 43.5,13C 42.154,14.5868 40.8206,14.4202 39.5,12.5C 37.8624,11.2954 37.5291,9.96209 38.5,8.5 Z"/></g>
<g><path style="opacity:0.478" fill="#e9aaea" d="M 17.5,10.5 C 17.4431,11.609 17.1098,12.609 16.5,13.5C 15.8333,13.8333 15.1667,14.1667 14.5,14.5C 14.7376,12.5956 15.7376,11.2623 17.5,10.5 Z"/></g>
<g><path style="opacity:0.055" fill="#eaaeeb" d="M 20.5,12.5 C 20.573,14.0269 19.9063,15.0269 18.5,15.5C 18.5,15.1667 18.5,14.8333 18.5,14.5C 18.8333,13.5 19.5,12.8333 20.5,12.5 Z"/></g>
<g><path style="opacity:0.992" fill="#e681e6" d="M 41.5,9.5 C 43.8218,10.8021 45.1551,12.8021 45.5,15.5C 43.6322,14.3264 42.6322,14.9931 42.5,17.5C 41.1103,16.1007 40.1103,14.4341 39.5,12.5C 40.8206,14.4202 42.154,14.5868 43.5,13C 42.1772,12.1841 41.5106,11.0174 41.5,9.5 Z"/></g>
<g><path style="opacity:0.992" fill="#cd4ccf" d="M 16.5,13.5 C 16.8417,14.3382 17.5084,14.6716 18.5,14.5C 18.5,14.8333 18.5,15.1667 18.5,15.5C 18.6716,16.4916 18.3382,17.1583 17.5,17.5C 17.1667,17.5 16.8333,17.5 16.5,17.5C 15.2223,17.7822 14.2223,18.4489 13.5,19.5C 13.5,19.1667 13.5,18.8333 13.5,18.5C 13.4326,17.0413 13.7659,15.7079 14.5,14.5C 15.1667,14.1667 15.8333,13.8333 16.5,13.5 Z"/></g>
<g><path style="opacity:1" fill="#d313d8" d="M 45.5,15.5 C 45.5,18.5 45.5,21.5 45.5,24.5C 47.1667,24.5 48.8333,24.5 50.5,24.5C 50.8333,24.5 51.1667,24.5 51.5,24.5C 49.3926,25.4682 47.0593,25.8016 44.5,25.5C 44.7062,22.5049 44.0395,19.8383 42.5,17.5C 42.6322,14.9931 43.6322,14.3264 45.5,15.5 Z"/></g>
<g><path style="opacity:0.231" fill="#efc1ef" d="M 13.5,18.5 C 13.5,18.8333 13.5,19.1667 13.5,19.5C 13.5,20.8333 13.5,22.1667 13.5,23.5C 11.901,23.7678 10.5676,23.4345 9.5,22.5C 10.2389,22.631 10.9056,22.4643 11.5,22C 12.0848,20.6976 12.7515,19.531 13.5,18.5 Z"/></g>
<g><path style="opacity:0.993" fill="#c120c6" d="M 16.5,17.5 C 15.9084,20.1272 15.5751,22.7938 15.5,25.5C 13.0504,25.298 10.717,25.6314 8.5,26.5C 8.5,25.8333 8.5,25.1667 8.5,24.5C 8.5,23.8333 8.5,23.1667 8.5,22.5C 8.83333,22.5 9.16667,22.5 9.5,22.5C 10.5676,23.4345 11.901,23.7678 13.5,23.5C 13.5,22.1667 13.5,20.8333 13.5,19.5C 14.2223,18.4489 15.2223,17.7822 16.5,17.5 Z"/></g>
<g><path style="opacity:0.984" fill="#dc3ddf" d="M 45.5,15.5 C 46.404,16.209 46.7373,17.209 46.5,18.5C 46.5,20.1667 46.5,21.8333 46.5,23.5C 48.099,23.2322 49.4324,23.5655 50.5,24.5C 48.8333,24.5 47.1667,24.5 45.5,24.5C 45.5,21.5 45.5,18.5 45.5,15.5 Z"/></g>
<g><path style="opacity:0.4" fill="#f3b5f4" d="M 46.5,18.5 C 47.2485,19.531 47.9152,20.6976 48.5,22C 51.9676,22.2299 54.6342,23.7299 56.5,26.5C 54.8333,25.8333 53.1667,25.1667 51.5,24.5C 51.1667,24.5 50.8333,24.5 50.5,24.5C 49.4324,23.5655 48.099,23.2322 46.5,23.5C 46.5,21.8333 46.5,20.1667 46.5,18.5 Z"/></g>
<g><path style="opacity:0.801" fill="#df82df" d="M 16.5,17.5 C 16.8333,17.5 17.1667,17.5 17.5,17.5C 17.196,20.5219 16.696,23.5219 16,26.5C 13.1737,27.2129 10.3404,27.8796 7.5,28.5C 7.32842,27.5084 7.66175,26.8417 8.5,26.5C 10.717,25.6314 13.0504,25.298 15.5,25.5C 15.5751,22.7938 15.9084,20.1272 16.5,17.5 Z"/></g>
<g><path style="opacity:1" fill="#e76ce9" d="M 42.5,17.5 C 44.0395,19.8383 44.7062,22.5049 44.5,25.5C 47.0593,25.8016 49.3926,25.4682 51.5,24.5C 53.1667,25.1667 54.8333,25.8333 56.5,26.5C 56.5,26.8333 56.5,27.1667 56.5,27.5C 54.2552,28.2919 53.9219,29.6253 55.5,31.5C 52.4144,28.2591 48.581,26.5925 44,26.5C 43.304,23.5219 42.804,20.5219 42.5,17.5 Z"/></g>
<g><path style="opacity:1" fill="#c63fc9" d="M 8.5,24.5 C 8.5,25.1667 8.5,25.8333 8.5,26.5C 7.66175,26.8417 7.32842,27.5084 7.5,28.5C 6.5,29.8333 5.5,31.1667 4.5,32.5C 4.16667,32.5 3.83333,32.5 3.5,32.5C 3.73731,31.209 3.40397,30.209 2.5,29.5C 3.91083,27.086 5.91083,25.4194 8.5,24.5 Z"/></g>
<g><path style="opacity:0.541" fill="#e8a8e9" d="M 8.5,22.5 C 8.5,23.1667 8.5,23.8333 8.5,24.5C 5.91083,25.4194 3.91083,27.086 2.5,29.5C 2.16667,29.5 1.83333,29.5 1.5,29.5C 2.8114,26.1886 5.14473,23.8552 8.5,22.5 Z"/></g>
<g><path style="opacity:0.267" fill="#f8c3f8" d="M 56.5,26.5 C 57.9063,26.9731 58.573,27.9731 58.5,29.5C 57.5,29.1667 56.8333,28.5 56.5,27.5C 56.5,27.1667 56.5,26.8333 56.5,26.5 Z"/></g>
<g><path style="opacity:0.984" fill="#e11ee6" d="M 56.5,27.5 C 56.8333,28.5 57.5,29.1667 58.5,29.5C 58.6641,32.1873 58.4974,34.854 58,37.5C 57.8019,35.6183 57.3019,33.9516 56.5,32.5C 56.1667,32.5 55.8333,32.5 55.5,32.5C 55.5,32.1667 55.5,31.8333 55.5,31.5C 53.9219,29.6253 54.2552,28.2919 56.5,27.5 Z"/></g>
<g><path style="opacity:1" fill="#df68df" d="M 30.5,42.5 C 29.8333,42.5 29.5,42.8333 29.5,43.5C 29.1667,43.5 28.8333,43.5 28.5,43.5C 27.1667,40.8333 27.1667,38.1667 28.5,35.5C 29.1174,35.3893 29.6174,35.056 30,34.5C 30.4974,37.146 30.6641,39.8127 30.5,42.5 Z"/></g>
<g><path style="opacity:0.969" fill="#c125c4" d="M 1.5,29.5 C 1.83333,29.5 2.16667,29.5 2.5,29.5C 3.40397,30.209 3.73731,31.209 3.5,32.5C 3.8064,35.3854 3.47307,38.0521 2.5,40.5C 1.83333,39.8333 1.16667,39.1667 0.5,38.5C 0.189998,35.2869 0.523331,32.2869 1.5,29.5 Z"/></g>
<g><path style="opacity:0.918" fill="#e886e7" d="M 31.5,43.5 C 31.1667,43.5 30.8333,43.5 30.5,43.5C 30.5,43.1667 30.5,42.8333 30.5,42.5C 30.6641,39.8127 30.4974,37.146 30,34.5C 29.6174,35.056 29.1174,35.3893 28.5,35.5C 29.4577,32.8753 30.6243,32.8753 32,35.5C 32.8007,38.367 32.6341,41.0336 31.5,43.5 Z"/></g>
<g><path style="opacity:0.988" fill="#e73aeb" d="M 58.5,29.5 C 58.8333,29.5 59.1667,29.5 59.5,29.5C 59.5,32.5 59.5,35.5 59.5,38.5C 58.8333,39.1667 58.1667,39.8333 57.5,40.5C 56.7347,37.9039 56.4013,35.2372 56.5,32.5C 57.3019,33.9516 57.8019,35.6183 58,37.5C 58.4974,34.854 58.6641,32.1873 58.5,29.5 Z"/></g>
<g><path style="opacity:0.078" fill="#f4d4f4" d="M 0.5,38.5 C 1.16667,39.1667 1.83333,39.8333 2.5,40.5C 2.5,41.1667 2.5,41.8333 2.5,42.5C 0.895779,41.713 0.229113,40.3797 0.5,38.5 Z"/></g>
<g><path style="opacity:1" fill="#f185f1" d="M 55.5,32.5 C 55.8333,32.5 56.1667,32.5 56.5,32.5C 56.4013,35.2372 56.7347,37.9039 57.5,40.5C 57.5,41.1667 57.5,41.8333 57.5,42.5C 57.5,43.1667 57.1667,43.5 56.5,43.5C 56.5983,40.7524 55.5983,40.0857 53.5,41.5C 55.123,38.7847 55.7896,35.7847 55.5,32.5 Z"/></g>
<g><path style="opacity:1" fill="#d872d8" d="M 3.5,32.5 C 3.83333,32.5 4.16667,32.5 4.5,32.5C 3.92497,36.1547 4.92497,39.1547 7.5,41.5C 7.5,41.8333 7.5,42.1667 7.5,42.5C 5.82124,42.2852 4.82124,42.9519 4.5,44.5C 3.5,44.1667 2.83333,43.5 2.5,42.5C 2.5,41.8333 2.5,41.1667 2.5,40.5C 3.47307,38.0521 3.8064,35.3854 3.5,32.5 Z"/></g>
<g><path style="opacity:0.008" fill="#fbdcfc" d="M 59.5,38.5 C 59.5,39.5 59.5,40.5 59.5,41.5C 58.8333,41.8333 58.1667,42.1667 57.5,42.5C 57.5,41.8333 57.5,41.1667 57.5,40.5C 58.1667,39.8333 58.8333,39.1667 59.5,38.5 Z"/></g>
<g><path style="opacity:1" fill="#e954eb" d="M 56.5,43.5 C 56.1667,44.5 55.5,45.1667 54.5,45.5C 54.5,44.1667 53.8333,43.5 52.5,43.5C 52.8333,42.8333 53.1667,42.1667 53.5,41.5C 55.5983,40.0857 56.5983,40.7524 56.5,43.5 Z"/></g>
<g><path style="opacity:0.569" fill="#e080e2" d="M 7.5,41.5 C 10.9984,42.8905 14.3317,43.5572 17.5,43.5C 17.5,44.1667 17.1667,44.5 16.5,44.5C 13.1226,44.9321 10.1226,44.2655 7.5,42.5C 7.5,42.1667 7.5,41.8333 7.5,41.5 Z"/></g>
<g><path style="opacity:0.566" fill="#ee86f0" d="M 53.5,41.5 C 53.1667,42.1667 52.8333,42.8333 52.5,43.5C 49.0145,44.5905 45.6812,44.5905 42.5,43.5C 45.945,43.4111 49.6117,42.7444 53.5,41.5 Z"/></g>
<g><path style="opacity:1" fill="#be0ac3" d="M 7.5,42.5 C 10.1226,44.2655 13.1226,44.9321 16.5,44.5C 14.0521,45.4731 11.3854,45.8064 8.5,45.5C 7.16667,45.1667 5.83333,44.8333 4.5,44.5C 4.82124,42.9519 5.82124,42.2852 7.5,42.5 Z"/></g>
<g><path style="opacity:0.478" fill="#eca2ed" d="M 28.5,43.5 C 28.8333,43.5 29.1667,43.5 29.5,43.5C 28.8984,47.1221 27.3984,47.4554 25,44.5C 24.8333,45 24.6667,45.5 24.5,46C 25.9852,48.317 27.6519,50.4836 29.5,52.5C 25.1579,51.0363 23.1579,48.203 23.5,44C 25.3806,44.096 27.0473,43.9293 28.5,43.5 Z"/></g>
<g><path style="opacity:0.592" fill="#efa4f0" d="M 30.5,43.5 C 30.8333,43.5 31.1667,43.5 31.5,43.5C 32.4602,44.5152 33.6269,44.5152 35,43.5C 37.9948,44.5176 38.3281,46.1843 36,48.5C 34.549,50.4641 32.7157,51.7974 30.5,52.5C 31.1667,51.5 31.8333,50.5 32.5,49.5C 34.9137,48.5944 35.747,46.9278 35,44.5C 33.5319,46.0362 32.0319,46.3696 30.5,45.5C 30.5,44.8333 30.5,44.1667 30.5,43.5 Z"/></g>
<g><path style="opacity:0.947" fill="#c921cd" d="M 17.5,43.5 C 17.8333,43.5 18.1667,43.5 18.5,43.5C 18.5,44.5 18.5,45.5 18.5,46.5C 14.9581,46.8128 11.6248,46.4794 8.5,45.5C 11.3854,45.8064 14.0521,45.4731 16.5,44.5C 17.1667,44.5 17.5,44.1667 17.5,43.5 Z"/></g>
<g><path style="opacity:0.946" fill="#e028e4" d="M 41.5,43.5 C 41.8333,43.5 42.1667,43.5 42.5,43.5C 45.6812,44.5905 49.0145,44.5905 52.5,43.5C 53.8333,43.5 54.5,44.1667 54.5,45.5C 50.2147,46.2949 45.8814,46.6282 41.5,46.5C 41.5,45.5 41.5,44.5 41.5,43.5 Z"/></g>
<g><path style="opacity:0.42" fill="#ecb1ed" d="M 18.5,43.5 C 19.9222,47.2243 18.4222,48.8909 14,48.5C 10.1989,48.4076 7.03227,47.0743 4.5,44.5C 5.83333,44.8333 7.16667,45.1667 8.5,45.5C 11.6248,46.4794 14.9581,46.8128 18.5,46.5C 18.5,45.5 18.5,44.5 18.5,43.5 Z"/></g>
<g><path style="opacity:1" fill="#d220d7" d="M 30.5,42.5 C 30.5,42.8333 30.5,43.1667 30.5,43.5C 30.5,44.1667 30.5,44.8333 30.5,45.5C 31.1667,46.8333 31.8333,48.1667 32.5,49.5C 31.8333,50.5 31.1667,51.5 30.5,52.5C 30.1667,52.5 29.8333,52.5 29.5,52.5C 27.6519,50.4836 25.9852,48.317 24.5,46C 24.6667,45.5 24.8333,45 25,44.5C 27.3984,47.4554 28.8984,47.1221 29.5,43.5C 29.5,42.8333 29.8333,42.5 30.5,42.5 Z"/></g>
<g><path style="opacity:0.456" fill="#f5b4f6" d="M 41.5,43.5 C 41.5,44.5 41.5,45.5 41.5,46.5C 45.8814,46.6282 50.2147,46.2949 54.5,45.5C 50.9732,48.1287 46.9732,48.9621 42.5,48C 40.4215,46.7303 40.0882,45.2303 41.5,43.5 Z"/></g>
<g><path style="opacity:1" fill="#d62adb" d="M 32.5,49.5 C 31.8333,48.1667 31.1667,46.8333 30.5,45.5C 32.0319,46.3696 33.5319,46.0362 35,44.5C 35.747,46.9278 34.9137,48.5944 32.5,49.5 Z"/></g>
</svg>
