<?xml version="1.0" encoding="UTF-8"?>
<!DOCTYPE svg PUBLIC "-//W3C//DTD SVG 1.1//EN" "http://www.w3.org/Graphics/SVG/1.1/DTD/svg11.dtd">
<svg xmlns="http://www.w3.org/2000/svg" version="1.1" width="60px" height="59px" style="shape-rendering:geometricPrecision; text-rendering:geometricPrecision; image-rendering:optimizeQuality; fill-rule:evenodd; clip-rule:evenodd" xmlns:xlink="http://www.w3.org/1999/xlink">
<g><path style="opacity:0.941" fill="#d74bda" d="M 9.5,5.5 C 9.5,5.16667 9.5,4.83333 9.5,4.5C 24.1705,4.33342 38.8371,4.50009 53.5,5C 54.2524,5.67076 54.5858,6.5041 54.5,7.5C 53.8333,11.1667 53.1667,14.8333 52.5,18.5C 53.0436,14.3268 52.377,10.4935 50.5,7C 40.8391,6.5002 31.1724,6.33353 21.5,6.5C 17.7016,5.51658 13.7016,5.18325 9.5,5.5 Z"/></g>
<g><path style="opacity:0.678" fill="#d666d7" d="M 9.5,5.5 C 13.7016,5.18325 17.7016,5.51658 21.5,6.5C 16.4376,6.27428 11.4376,6.60762 6.5,7.5C 6.97306,6.09368 7.97306,5.42702 9.5,5.5 Z"/></g>
<g><path style="opacity:0.951" fill="#c01fc4" d="M 4.5,7.5 C 5.16667,11.1667 5.83333,14.8333 6.5,18.5C 6.5,19.1667 6.5,19.8333 6.5,20.5C 6.5,20.8333 6.5,21.1667 6.5,21.5C 5.83333,21.1667 5.16667,20.8333 4.5,20.5C 4.5,16.1667 4.5,11.8333 4.5,7.5 Z"/></g>
<g><path style="opacity:0.667" fill="#cf53d1" d="M 9.5,4.5 C 9.5,4.83333 9.5,5.16667 9.5,5.5C 7.97306,5.42702 6.97306,6.09368 6.5,7.5C 6.5,11.1667 6.5,14.8333 6.5,18.5C 5.83333,14.8333 5.16667,11.1667 4.5,7.5C 5.0483,4.91618 6.71497,3.91618 9.5,4.5 Z"/></g>
<g><path style="opacity:0.831" fill="#e393e2" d="M 16.5,15.5 C 16.6567,14.1266 16.49,12.7932 16,11.5C 13.8215,10.1602 13.3215,10.4935 14.5,12.5C 13.5,12.5 12.5,12.5 11.5,12.5C 13.0311,11.0755 12.6977,10.4088 10.5,10.5C 12.2462,8.14511 14.2462,7.97844 16.5,10C 17.807,11.9435 17.807,13.7768 16.5,15.5 Z"/></g>
<g><path style="opacity:0.957" fill="#df38e2" d="M 54.5,7.5 C 54.8195,12.3633 54.4861,17.03 53.5,21.5C 52.8333,21.5 52.5,21.8333 52.5,22.5C 51.6618,22.1583 51.3284,21.4916 51.5,20.5C 51.5,20.1667 51.5,19.8333 51.5,19.5C 52.1667,19.5 52.5,19.1667 52.5,18.5C 53.1667,14.8333 53.8333,11.1667 54.5,7.5 Z"/></g>
<g><path style="opacity:0.106" fill="#f6d9f7" d="M 37.5,11.5 C 36.5084,11.3284 35.8417,11.6618 35.5,12.5C 34.8333,12.5 34.5,12.8333 34.5,13.5C 34.1667,13.5 33.8333,13.5 33.5,13.5C 31.9519,13.1788 31.2852,12.1788 31.5,10.5C 33.7354,10.2053 35.7354,10.5386 37.5,11.5 Z"/></g>
<g><path style="opacity:0.145" fill="#f5c2f4" d="M 43.5,10.5 C 44.8333,10.5 46.1667,10.5 47.5,10.5C 48.0134,12.2895 48.5134,13.9562 49,15.5C 48.586,15.9574 48.086,16.2907 47.5,16.5C 46.8243,15.3984 46.1577,14.3984 45.5,13.5C 45.1667,12.1667 44.8333,12.1667 44.5,13.5C 44.1667,13.5 43.8333,13.5 43.5,13.5C 43.5,12.5 43.5,11.5 43.5,10.5 Z"/></g>
<g><path style="opacity:0.859" fill="#d364d4" d="M 10.5,10.5 C 12.6977,10.4088 13.0311,11.0755 11.5,12.5C 11.5,12.8333 11.5,13.1667 11.5,13.5C 12.4475,14.9779 13.7809,15.9779 15.5,16.5C 12.0987,18.3371 9.76536,17.3371 8.5,13.5C 8.94242,12.2613 9.60908,11.2613 10.5,10.5 Z"/></g>
<g><path style="opacity:0.976" fill="#d56cd5" d="M 16.5,15.5 C 16.5,16.1667 16.1667,16.5 15.5,16.5C 13.7809,15.9779 12.4475,14.9779 11.5,13.5C 13.1959,15.129 14.1959,14.7957 14.5,12.5C 13.3215,10.4935 13.8215,10.1602 16,11.5C 16.49,12.7932 16.6567,14.1266 16.5,15.5 Z"/></g>
<g><path style="opacity:0.675" fill="#e78ee7" d="M 33.5,13.5 C 33.8333,13.5 34.1667,13.5 34.5,13.5C 34.8333,13.5 35.1667,13.5 35.5,13.5C 34.8333,17.5 34.1667,17.5 33.5,13.5 Z"/></g>
<g><path style="opacity:0.067" fill="#f4c5f3" d="M 40.5,13.5 C 40.5,14.1667 40.5,14.8333 40.5,15.5C 39.4168,15.5394 38.4168,15.8728 37.5,16.5C 36.8243,15.3984 36.1577,14.3984 35.5,13.5C 35.5,13.1667 35.5,12.8333 35.5,12.5C 35.8417,11.6618 36.5084,11.3284 37.5,11.5C 37.369,12.2389 37.5357,12.9056 38,13.5C 39.1139,9.54427 39.9473,9.54427 40.5,13.5 Z"/></g>
<g><path style="opacity:0.365" fill="#f0aef0" d="M 43.5,10.5 C 43.5,11.5 43.5,12.5 43.5,13.5C 42.8423,14.3984 42.1757,15.3984 41.5,16.5C 40.8933,16.3764 40.56,16.0431 40.5,15.5C 40.5,14.8333 40.5,14.1667 40.5,13.5C 41.1001,12.0998 42.1001,11.0998 43.5,10.5 Z"/></g>
<g><path style="opacity:0.667" fill="#ec90ec" d="M 43.5,13.5 C 43.8333,13.5 44.1667,13.5 44.5,13.5C 44.8333,13.5 45.1667,13.5 45.5,13.5C 44.8333,17.5 44.1667,17.5 43.5,13.5 Z"/></g>
<g><path style="opacity:0.133" fill="#f5d8f5" d="M 6.5,18.5 C 14.7483,19.4686 23.0817,19.8019 31.5,19.5C 31.5,19.8333 31.5,20.1667 31.5,20.5C 23.1667,20.5 14.8333,20.5 6.5,20.5C 6.5,19.8333 6.5,19.1667 6.5,18.5 Z"/></g>
<g><path style="opacity:0.812" fill="#ec99eb" d="M 51.5,19.5 C 51.5,19.8333 51.5,20.1667 51.5,20.5C 47.8183,20.3347 44.1516,20.5014 40.5,21C 42.0581,21.21 43.3915,21.71 44.5,22.5C 39.8333,22.5 35.1667,22.5 30.5,22.5C 31.6085,21.71 32.9419,21.21 34.5,21C 33.552,20.5172 32.552,20.3505 31.5,20.5C 31.5,20.1667 31.5,19.8333 31.5,19.5C 38.1273,18.8202 44.794,18.8202 51.5,19.5 Z"/></g>
<g><path style="opacity:0.965" fill="#df42e3" d="M 51.5,20.5 C 51.3284,21.4916 51.6618,22.1583 52.5,22.5C 52.8333,23.5 53.5,24.1667 54.5,24.5C 54.5,24.8333 54.5,25.1667 54.5,25.5C 53.7777,26.5511 52.7777,27.2178 51.5,27.5C 52.7065,26.1196 52.3731,24.9529 50.5,24C 48.5643,23.187 46.5643,22.687 44.5,22.5C 43.3915,21.71 42.0581,21.21 40.5,21C 44.1516,20.5014 47.8183,20.3347 51.5,20.5 Z"/></g>
<g><path style="opacity:0.596" fill="#e085e1" d="M 4.5,20.5 C 5.16667,20.8333 5.83333,21.1667 6.5,21.5C 13.7079,20.9965 20.7079,21.6631 27.5,23.5C 25.5069,24.4716 25.1736,25.8049 26.5,27.5C 25.0689,27.1193 24.2355,26.1193 24,24.5C 23.5012,28.4862 23.3345,32.4862 23.5,36.5C 17.9738,36.8214 12.6405,36.4881 7.5,35.5C 12.5,35.5 17.5,35.5 22.5,35.5C 22.203,31.2325 22.5363,27.0659 23.5,23C 18.1667,22.3333 12.8333,22.3333 7.5,23C 6.94404,23.3826 6.61071,23.8826 6.5,24.5C 5.83333,23.8333 5.16667,23.1667 4.5,22.5C 4.5,21.8333 4.5,21.1667 4.5,20.5 Z"/></g>
<g><path style="opacity:0.995" fill="#c82dcb" d="M 6.5,21.5 C 6.5,21.1667 6.5,20.8333 6.5,20.5C 14.8333,20.5 23.1667,20.5 31.5,20.5C 32.552,20.3505 33.552,20.5172 34.5,21C 32.9419,21.21 31.6085,21.71 30.5,22.5C 29.791,23.404 28.791,23.7373 27.5,23.5C 20.7079,21.6631 13.7079,20.9965 6.5,21.5 Z"/></g>
<g><path style="opacity:0.471" fill="#f7bbf7" d="M 53.5,21.5 C 54.1098,22.391 54.4431,23.391 54.5,24.5C 53.5,24.1667 52.8333,23.5 52.5,22.5C 52.5,21.8333 52.8333,21.5 53.5,21.5 Z"/></g>
<g><path style="opacity:0.963" fill="#d872d9" d="M 15.5,32.5 C 13.4352,32.4828 11.4352,32.1495 9.5,31.5C 8.06504,28.0529 9.23171,25.7196 13,24.5C 17.0843,25.2251 18.4177,27.5584 17,31.5C 16.6174,32.056 16.1174,32.3893 15.5,32.5 Z M 12.5,27.5 C 14.332,28.1405 14.6653,29.1405 13.5,30.5C 11.4807,29.8671 11.1474,28.8671 12.5,27.5 Z"/></g>
<g><path style="opacity:0.998" fill="#df73e0" d="M 26.5,27.5 C 31.6972,29.0869 37.0305,29.7536 42.5,29.5C 39.3586,30.3213 36.0252,30.8213 32.5,31C 37.1548,31.4992 41.8215,31.6658 46.5,31.5C 39.8509,32.9474 33.1843,32.6141 26.5,30.5C 26.44,29.9569 26.1067,29.6236 25.5,29.5C 24.5481,31.0453 24.2148,32.712 24.5,34.5C 24.1984,37.0593 24.5318,39.3926 25.5,41.5C 27.8546,42.6586 30.1879,43.6586 32.5,44.5C 30.5853,44.2155 28.9187,44.5489 27.5,45.5C 27.1667,45.5 26.8333,45.5 26.5,45.5C 26.1583,44.6618 25.4916,44.3284 24.5,44.5C 23.5859,44.5418 23.2526,46.5418 23.5,50.5C 22.5166,46.7016 22.1832,42.7016 22.5,38.5C 17.5,38.5 12.5,38.5 7.5,38.5C 7.5,38.1667 7.5,37.8333 7.5,37.5C 13.0262,37.8214 18.3595,37.4881 23.5,36.5C 23.3345,32.4862 23.5012,28.4862 24,24.5C 24.2355,26.1193 25.0689,27.1193 26.5,27.5 Z"/></g>
<g><path style="opacity:0.133" fill="#f6d9f7" d="M 26.5,30.5 C 25.5655,31.5676 25.2322,32.901 25.5,34.5C 25.1667,34.5 24.8333,34.5 24.5,34.5C 24.2148,32.712 24.5481,31.0453 25.5,29.5C 26.1067,29.6236 26.44,29.9569 26.5,30.5 Z"/></g>
<g><path style="opacity:1" fill="#d727db" d="M 42.5,29.5 C 43.5,29.5 44.5,29.5 45.5,29.5C 47.9935,29.1307 48.6602,29.7973 47.5,31.5C 47.1667,31.5 46.8333,31.5 46.5,31.5C 41.8215,31.6658 37.1548,31.4992 32.5,31C 36.0252,30.8213 39.3586,30.3213 42.5,29.5 Z"/></g>
<g><path style="opacity:0.588" fill="#ec75ee" d="M 51.5,27.5 C 53.51,29.3166 53.8434,31.3166 52.5,33.5C 52.6567,32.1266 52.49,30.7932 52,29.5C 50.6703,30.5822 49.1703,31.2488 47.5,31.5C 48.6602,29.7973 47.9935,29.1307 45.5,29.5C 47.3024,28.5418 49.3024,27.8751 51.5,27.5 Z"/></g>
<g><path style="opacity:0.255" fill="#edb5ec" d="M 9.5,31.5 C 11.4352,32.1495 13.4352,32.4828 15.5,32.5C 14.9032,33.1386 14.0698,33.472 13,33.5C 11.3009,33.6134 10.1342,32.9468 9.5,31.5 Z"/></g>
<g><path style="opacity:0.929" fill="#e88ee7" d="M 24.5,34.5 C 24.8333,34.5 25.1667,34.5 25.5,34.5C 29.1941,35.7773 32.8607,36.7773 36.5,37.5C 34.4727,37.3379 32.4727,37.5045 30.5,38C 31.7375,38.2321 32.7375,38.7321 33.5,39.5C 30.8015,39.5339 28.3015,38.8672 26,37.5C 25.51,38.7932 25.3433,40.1266 25.5,41.5C 24.5318,39.3926 24.1984,37.0593 24.5,34.5 Z"/></g>
<g><path style="opacity:0.961" fill="#f289f2" d="M 52.5,33.5 C 52.5858,34.4959 52.2524,35.3292 51.5,36C 53.1922,37.4007 53.8588,39.2341 53.5,41.5C 53.1583,42.3382 52.4916,42.6716 51.5,42.5C 53.3606,38.9853 52.6939,37.652 49.5,38.5C 50.6602,36.7973 49.9935,36.1307 47.5,36.5C 49.2202,35.6923 50.8869,34.6923 52.5,33.5 Z"/></g>
<g><path style="opacity:0.918" fill="#e31fe8" d="M 54.5,25.5 C 54.5,30.8333 54.5,36.1667 54.5,41.5C 54.1667,41.5 53.8333,41.5 53.5,41.5C 53.8588,39.2341 53.1922,37.4007 51.5,36C 52.2524,35.3292 52.5858,34.4959 52.5,33.5C 53.8434,31.3166 53.51,29.3166 51.5,27.5C 52.7777,27.2178 53.7777,26.5511 54.5,25.5 Z"/></g>
<g><path style="opacity:0.725" fill="#ca41cc" d="M 4.5,22.5 C 5.16667,23.1667 5.83333,23.8333 6.5,24.5C 6.24401,28.2693 6.57734,31.9359 7.5,35.5C 12.6405,36.4881 17.9738,36.8214 23.5,36.5C 18.3595,37.4881 13.0262,37.8214 7.5,37.5C 5.86507,41.573 4.86507,45.9063 4.5,50.5C 4.5,41.1667 4.5,31.8333 4.5,22.5 Z"/></g>
<g><path style="opacity:0.827" fill="#ef88ef" d="M 47.5,36.5 C 49.9935,36.1307 50.6602,36.7973 49.5,38.5C 44.4572,40.2633 39.4572,40.5966 34.5,39.5C 36.8568,39.6633 39.1902,39.4966 41.5,39C 39.6183,38.8019 37.9516,38.3019 36.5,37.5C 40.1352,36.8857 43.8019,36.5524 47.5,36.5 Z"/></g>
<g><path style="opacity:0.885" fill="#d92cdd" d="M 36.5,37.5 C 37.9516,38.3019 39.6183,38.8019 41.5,39C 39.1902,39.4966 36.8568,39.6633 34.5,39.5C 34.1667,39.5 33.8333,39.5 33.5,39.5C 32.7375,38.7321 31.7375,38.2321 30.5,38C 32.4727,37.5045 34.4727,37.3379 36.5,37.5 Z"/></g>
<g><path style="opacity:0.665" fill="#d35ad5" d="M 7.5,37.5 C 7.5,37.8333 7.5,38.1667 7.5,38.5C 6.16667,42.8333 6.16667,47.1667 7.5,51.5C 7.5,51.8333 7.5,52.1667 7.5,52.5C 6.83333,52.5 6.5,52.8333 6.5,53.5C 4.95186,53.1788 4.28519,52.1788 4.5,50.5C 4.86507,45.9063 5.86507,41.573 7.5,37.5 Z"/></g>
<g><path style="opacity:0.953" fill="#e28ae2" d="M 11.5,41.5 C 13.4888,40.1134 15.3221,40.4468 17,42.5C 17.7796,44.3869 17.6129,46.0536 16.5,47.5C 16.6567,46.1266 16.49,44.7932 16,43.5C 15.7679,44.7375 15.2679,45.7375 14.5,46.5C 14.5,45.5 14.5,44.5 14.5,43.5C 13.7095,42.5987 12.7095,41.9321 11.5,41.5 Z"/></g>
<g><path style="opacity:0.906" fill="#e931ed" d="M 53.5,41.5 C 53.8333,41.5 54.1667,41.5 54.5,41.5C 54.5,44.5 54.5,47.5 54.5,50.5C 53.1667,50.5 52.5,49.8333 52.5,48.5C 53.1239,48.0831 53.4573,47.4164 53.5,46.5C 52.7745,45.1331 52.1079,43.7997 51.5,42.5C 52.4916,42.6716 53.1583,42.3382 53.5,41.5 Z"/></g>
<g><path style="opacity:0.957" fill="#f28cf2" d="M 51.5,42.5 C 52.1079,43.7997 52.7745,45.1331 53.5,46.5C 53.4573,47.4164 53.1239,48.0831 52.5,48.5C 52.5,47.5 52.5,46.5 52.5,45.5C 50.5,45.8333 48.5,46.1667 46.5,46.5C 46.1667,46.5 45.8333,46.5 45.5,46.5C 41.1667,45.8333 36.8333,45.1667 32.5,44.5C 38.9678,44.8494 45.3011,44.1827 51.5,42.5 Z"/></g>
<g><path style="opacity:0.824" fill="#da6fdb" d="M 11.5,41.5 C 12.7095,41.9321 13.7095,42.5987 14.5,43.5C 10.5,44.5 10.5,45.5 14.5,46.5C 15.2679,45.7375 15.7679,44.7375 16,43.5C 16.49,44.7932 16.6567,46.1266 16.5,47.5C 14.3312,50.068 11.9979,50.068 9.5,47.5C 7.96625,44.7679 8.63292,42.7679 11.5,41.5 Z M 14.5,43.5 C 14.5,44.5 14.5,45.5 14.5,46.5C 10.5,45.5 10.5,44.5 14.5,43.5 Z"/></g>
<g><path style="opacity:0.143" fill="#f7d8f7" d="M 24.5,44.5 C 25.4916,44.3284 26.1583,44.6618 26.5,45.5C 25.5655,46.5676 25.2322,47.901 25.5,49.5C 24.5489,48.0813 24.2155,46.4147 24.5,44.5 Z"/></g>
<g><path style="opacity:1" fill="#d713dc" d="M 27.5,45.5 C 28.9187,44.5489 30.5853,44.2155 32.5,44.5C 36.8333,45.1667 41.1667,45.8333 45.5,46.5C 39.4638,46.6401 33.4638,46.3068 27.5,45.5 Z"/></g>
<g><path style="opacity:0.527" fill="#f1a4f2" d="M 27.5,45.5 C 33.4638,46.3068 39.4638,46.6401 45.5,46.5C 45.8333,46.5 46.1667,46.5 46.5,46.5C 44.0221,47.1641 41.3555,47.4975 38.5,47.5C 34.5313,47.7058 30.8646,47.0392 27.5,45.5 Z"/></g>
<g><path style="opacity:1" fill="#d747da" d="M 24.5,44.5 C 24.2155,46.4147 24.5489,48.0813 25.5,49.5C 26.9952,49.9887 28.3285,50.6554 29.5,51.5C 28.0413,51.4326 26.7079,51.7659 25.5,52.5C 25.1667,51.5 24.5,50.8333 23.5,50.5C 23.2526,46.5418 23.5859,44.5418 24.5,44.5 Z"/></g>
<g><path style="opacity:0.914" fill="#f79ef6" d="M 52.5,48.5 C 52.5,49.8333 53.1667,50.5 54.5,50.5C 54.0269,51.9063 53.0269,52.573 51.5,52.5C 50.4324,51.5655 49.099,51.2322 47.5,51.5C 49.2202,50.6923 50.8869,49.6923 52.5,48.5 Z"/></g>
<g><path style="opacity:0.29" fill="#eeb7f0" d="M 23.5,50.5 C 24.5,50.8333 25.1667,51.5 25.5,52.5C 19.5,52.5 13.5,52.5 7.5,52.5C 7.5,52.1667 7.5,51.8333 7.5,51.5C 13.0262,51.8214 18.3595,51.4881 23.5,50.5 Z"/></g>
<g><path style="opacity:1" fill="#cf17d3" d="M 29.5,51.5 C 29.8333,51.5 30.1667,51.5 30.5,51.5C 31.6085,52.29 32.9419,52.79 34.5,53C 25.1726,53.4998 15.8393,53.6665 6.5,53.5C 6.5,52.8333 6.83333,52.5 7.5,52.5C 13.5,52.5 19.5,52.5 25.5,52.5C 26.7079,51.7659 28.0413,51.4326 29.5,51.5 Z"/></g>
<g><path style="opacity:0.847" fill="#ed7eee" d="M 30.5,51.5 C 36.1667,52.8333 41.8333,52.8333 47.5,51.5C 49.099,51.2322 50.4324,51.5655 51.5,52.5C 50.7375,53.2679 49.7375,53.7679 48.5,54C 34.3272,54.8273 20.3272,54.6607 6.5,53.5C 15.8393,53.6665 25.1726,53.4998 34.5,53C 32.9419,52.79 31.6085,52.29 30.5,51.5 Z"/></g>
</svg>
