<?xml version="1.0" encoding="UTF-8"?>
<!DOCTYPE svg PUBLIC "-//W3C//DTD SVG 1.1//EN" "http://www.w3.org/Graphics/SVG/1.1/DTD/svg11.dtd">
<svg xmlns="http://www.w3.org/2000/svg" version="1.1" width="104px" height="105px" style="shape-rendering:geometricPrecision; text-rendering:geometricPrecision; image-rendering:optimizeQuality; fill-rule:evenodd; clip-rule:evenodd" xmlns:xlink="http://www.w3.org/1999/xlink">
<g><path style="opacity:1" fill="#9e49b9" d="M 40.5,-0.5 C 47.8333,-0.5 55.1667,-0.5 62.5,-0.5C 68.1152,1.04387 73.4485,3.3772 78.5,6.5C 78.8212,8.04814 79.8212,8.71481 81.5,8.5C 85.1203,10.4528 88.1203,13.1195 90.5,16.5C 90.427,18.0269 91.0937,19.0269 92.5,19.5C 96.402,23.416 99.0687,28.0826 100.5,33.5C 100.723,37.1621 101.723,40.4954 103.5,43.5C 103.5,47.1667 103.5,50.8333 103.5,54.5C 101.064,56.0171 98.8976,55.6838 97,53.5C 96.7634,45.8901 95.2634,38.5567 92.5,31.5C 92.7148,29.8212 92.0481,28.8212 90.5,28.5C 89.0787,25.9906 87.4121,23.6572 85.5,21.5C 84.8333,18.8333 83.1667,17.1667 80.5,16.5C 79.5,16.1667 78.8333,15.5 78.5,14.5C 78.0269,13.0937 77.0269,12.427 75.5,12.5C 73.0462,11.7729 70.7128,10.7729 68.5,9.5C 68.3893,8.88258 68.056,8.38258 67.5,8C 63.9296,6.69048 60.263,5.85715 56.5,5.5C 52.1539,5.33432 47.8206,5.50098 43.5,6C 41.9419,6.21003 40.6085,6.71003 39.5,7.5C 30.5486,10.4371 22.8819,15.4371 16.5,22.5C 15.9569,22.56 15.6236,22.8933 15.5,23.5C 17.7427,24.4742 20.076,24.8076 22.5,24.5C 25.3264,27.0485 24.9931,29.2152 21.5,31C 16.5,31.6667 11.5,31.6667 6.5,31C 6,30.5 5.5,30 5,29.5C 4.33333,24.1667 4.33333,18.8333 5,13.5C 7.29329,10.8661 9.45996,10.8661 11.5,13.5C 11.3433,14.8734 11.51,16.2068 12,17.5C 14.6637,16.0016 16.8304,14.0016 18.5,11.5C 22.6623,7.24604 27.6623,4.24604 33.5,2.5C 36.1522,2.59047 38.4855,1.92381 40.5,0.5C 40.5,0.166667 40.5,-0.166667 40.5,-0.5 Z"/></g>
<g><path style="opacity:0.816" fill="#c692d6" d="M 40.5,0.5 C 38.4855,1.92381 36.1522,2.59047 33.5,2.5C 35.5145,1.07619 37.8478,0.409526 40.5,0.5 Z"/></g>
<g><path style="opacity:0.206" fill="#dec0e7" d="M 56.5,5.5 C 56.5,5.83333 56.5,6.16667 56.5,6.5C 50.8044,6.44701 45.1377,6.78034 39.5,7.5C 40.6085,6.71003 41.9419,6.21003 43.5,6C 47.8206,5.50098 52.1539,5.33432 56.5,5.5 Z"/></g>
<g><path style="opacity:0.875" fill="#c692d6" d="M 56.5,6.5 C 56.5,6.16667 56.5,5.83333 56.5,5.5C 60.263,5.85715 63.9296,6.69048 67.5,8C 68.056,8.38258 68.3893,8.88258 68.5,9.5C 64.5837,8.1876 60.5837,7.1876 56.5,6.5 Z"/></g>
<g><path style="opacity:0.925" fill="#c896d7" d="M 78.5,6.5 C 79.7095,6.93205 80.7095,7.59872 81.5,8.5C 79.8212,8.71481 78.8212,8.04814 78.5,6.5 Z"/></g>
<g><path style="opacity:0.58" fill="#c896d8" d="M 75.5,12.5 C 77.0269,12.427 78.0269,13.0937 78.5,14.5C 76.9731,14.573 75.9731,13.9063 75.5,12.5 Z"/></g>
<g><path style="opacity:0.69" fill="#d3aadf" d="M 18.5,11.5 C 16.8304,14.0016 14.6637,16.0016 12,17.5C 11.51,16.2068 11.3433,14.8734 11.5,13.5C 12.2216,13.9175 12.7216,14.5842 13,15.5C 14.451,13.5359 16.2843,12.2026 18.5,11.5 Z"/></g>
<g><path style="opacity:0.725" fill="#d7b1e2" d="M 80.5,16.5 C 83.1667,17.1667 84.8333,18.8333 85.5,21.5C 83.5,20.1667 81.8333,18.5 80.5,16.5 Z"/></g>
<g><path style="opacity:0.667" fill="#d5ace0" d="M 90.5,16.5 C 91.9063,16.9731 92.573,17.9731 92.5,19.5C 91.0937,19.0269 90.427,18.0269 90.5,16.5 Z"/></g>
<g><path style="opacity:1" fill="#9d48b9" d="M 65.5,18.5 C 67.3769,19.6591 67.8769,21.3258 67,23.5C 64.0591,29.7196 60.8924,35.7196 57.5,41.5C 55.0155,42.7399 55.0155,43.7399 57.5,44.5C 62.5713,45.6898 67.5713,47.1898 72.5,49C 73.5762,50.7261 73.7429,52.5594 73,54.5C 62.2598,65.7432 51.0931,76.4098 39.5,86.5C 37.3911,86.2247 36.0578,85.058 35.5,83C 38.9186,75.4961 42.5853,68.1628 46.5,61C 41.6135,58.8134 36.6135,56.8134 31.5,55C 29.5339,53.6534 29.2006,52.1534 30.5,50.5C 41.2984,40.2021 51.9651,29.7021 62.5,19C 63.448,18.5172 64.448,18.3505 65.5,18.5 Z M 48.5,42.5 C 46.8617,44.9555 47.195,46.9555 49.5,48.5C 53.8076,50.2193 58.1409,52.0526 62.5,54C 59.9638,56.705 57.2971,59.205 54.5,61.5C 56.1677,59.0091 55.8344,56.8425 53.5,55C 49.9793,53.3262 46.3127,52.1596 42.5,51.5C 41.8333,50.8333 41.1667,50.1667 40.5,49.5C 43.1667,47.1667 45.8333,44.8333 48.5,42.5 Z"/></g>
<g><path style="opacity:0.094" fill="#f1e5f5" d="M 16.5,22.5 C 18.5,23.1667 20.5,23.8333 22.5,24.5C 20.076,24.8076 17.7427,24.4742 15.5,23.5C 15.6236,22.8933 15.9569,22.56 16.5,22.5 Z"/></g>
<g><path style="opacity:0.914" fill="#c996d7" d="M 90.5,28.5 C 92.0481,28.8212 92.7148,29.8212 92.5,31.5C 91.5987,30.7095 90.9321,29.7095 90.5,28.5 Z"/></g>
<g><path style="opacity:0.906" fill="#c997d8" d="M 100.5,33.5 C 101.5,35.5 102.5,37.5 103.5,39.5C 103.5,40.8333 103.5,42.1667 103.5,43.5C 101.723,40.4954 100.723,37.1621 100.5,33.5 Z"/></g>
<g><path style="opacity:0.624" fill="#d4abe0" d="M 65.5,18.5 C 64.448,18.3505 63.448,18.5172 62.5,19C 51.9651,29.7021 41.2984,40.2021 30.5,50.5C 40.243,39.2534 50.5763,28.4201 61.5,18C 63.0657,17.235 64.3991,17.4017 65.5,18.5 Z"/></g>
<g><path style="opacity:0.027" fill="#ead6ef" d="M 49.5,42.5 C 49.5,41.8333 49.1667,41.5 48.5,41.5C 49.1217,40.3734 49.955,39.3734 51,38.5C 51.3478,40.1398 50.8478,41.4732 49.5,42.5 Z"/></g>
<g><path style="opacity:0.667" fill="#c794d7" d="M 57.5,41.5 C 57.5,42.5 57.5,43.5 57.5,44.5C 55.0155,43.7399 55.0155,42.7399 57.5,41.5 Z"/></g>
<g><path style="opacity:0.89" fill="#cd9dda" d="M 48.5,42.5 C 48.8333,42.5 49.1667,42.5 49.5,42.5C 49.5,44.5 49.5,46.5 49.5,48.5C 47.195,46.9555 46.8617,44.9555 48.5,42.5 Z"/></g>
<g><path style="opacity:1" fill="#9c47b8" d="M 5.5,50.5 C 5.3347,54.1817 5.50137,57.8484 6,61.5C 6.27842,62.4158 6.77842,63.0825 7.5,63.5C 7.5,63.8333 7.5,64.1667 7.5,64.5C 7.12012,66.698 7.78679,68.3646 9.5,69.5C 10.4408,71.0495 11.1075,72.7162 11.5,74.5C 11.427,76.0269 12.0937,77.0269 13.5,77.5C 13.427,79.0269 14.0937,80.0269 15.5,80.5C 22.2054,87.889 30.2054,93.2224 39.5,96.5C 42.7178,97.9542 46.2178,98.6209 50,98.5C 52.3608,98.4961 54.5274,98.1627 56.5,97.5C 57.5,97.5 58.5,97.5 59.5,97.5C 64.0785,97.5297 68.0785,96.1963 71.5,93.5C 73.6626,91.9172 75.9959,90.5839 78.5,89.5C 82.1667,87.8333 84.8333,85.1667 86.5,81.5C 87.2891,81.2172 87.9558,80.7172 88.5,80C 85.854,79.5026 83.1873,79.3359 80.5,79.5C 77.6736,76.9515 78.0069,74.7848 81.5,73C 86.5,72.3333 91.5,72.3333 96.5,73C 97,73.5 97.5,74 98,74.5C 98.6667,79.8333 98.6667,85.1667 98,90.5C 95.7067,93.1339 93.54,93.1339 91.5,90.5C 91.6567,89.1266 91.49,87.7932 91,86.5C 90.2828,87.0442 89.7828,87.7109 89.5,88.5C 81.9774,96.3621 72.9774,101.695 62.5,104.5C 55.1667,104.5 47.8333,104.5 40.5,104.5C 40.5,104.167 40.5,103.833 40.5,103.5C 38.4855,102.076 36.1522,101.41 33.5,101.5C 27.6953,99.7675 22.6953,96.7675 18.5,92.5C 17.7377,90.7376 16.4044,89.7376 14.5,89.5C 7.43294,82.0334 2.43294,73.3667 -0.5,63.5C -0.5,58.8333 -0.5,54.1667 -0.5,49.5C 1.90073,47.9378 3.90073,48.2712 5.5,50.5 Z"/></g>
<g><path style="opacity:0.459" fill="#e2c8ea" d="M 40.5,49.5 C 41.1667,50.1667 41.8333,50.8333 42.5,51.5C 41.325,51.719 40.325,51.3857 39.5,50.5C 39.6236,49.8933 39.9569,49.56 40.5,49.5 Z"/></g>
<g><path style="opacity:0.906" fill="#ca99d8" d="M 5.5,50.5 C 6.35757,54.6732 7.02424,59.0065 7.5,63.5C 6.77842,63.0825 6.27842,62.4158 6,61.5C 5.50137,57.8484 5.3347,54.1817 5.5,50.5 Z"/></g>
<g><path style="opacity:0.196" fill="#e6ceec" d="M 54.5,62.5 C 53.8783,63.6266 53.045,64.6266 52,65.5C 51.4808,63.5106 52.3141,62.5106 54.5,62.5 Z"/></g>
<g><path style="opacity:0.875" fill="#c794d7" d="M 7.5,64.5 C 8.53747,65.9303 9.20414,67.597 9.5,69.5C 7.78679,68.3646 7.12012,66.698 7.5,64.5 Z"/></g>
<g><path style="opacity:0.404" fill="#d5afe1" d="M 11.5,74.5 C 12.9063,74.9731 13.573,75.9731 13.5,77.5C 12.0937,77.0269 11.427,76.0269 11.5,74.5 Z"/></g>
<g><path style="opacity:0.486" fill="#d3aadf" d="M 13.5,77.5 C 14.9063,77.9731 15.573,78.9731 15.5,80.5C 14.0937,80.0269 13.427,79.0269 13.5,77.5 Z"/></g>
<g><path style="opacity:0.075" fill="#efe1f3" d="M 80.5,79.5 C 83.1873,79.3359 85.854,79.5026 88.5,80C 87.9558,80.7172 87.2891,81.2172 86.5,81.5C 84.5,80.8333 82.5,80.1667 80.5,79.5 Z"/></g>
<g><path style="opacity:0.639" fill="#cb9ad9" d="M 86.5,81.5 C 84.8333,85.1667 82.1667,87.8333 78.5,89.5C 80.8333,86.5 83.5,83.8333 86.5,81.5 Z"/></g>
<g><path style="opacity:0.086" fill="#f4ebf7" d="M 91.5,90.5 C 90.8333,89.8333 90.1667,89.1667 89.5,88.5C 89.7828,87.7109 90.2828,87.0442 91,86.5C 91.49,87.7932 91.6567,89.1266 91.5,90.5 Z"/></g>
<g><path style="opacity:0.698" fill="#d5ade0" d="M 14.5,89.5 C 16.4044,89.7376 17.7377,90.7376 18.5,92.5C 16.5956,92.2624 15.2623,91.2624 14.5,89.5 Z"/></g>
<g><path style="opacity:0.808" fill="#c38bd3" d="M 71.5,93.5 C 68.0785,96.1963 64.0785,97.5297 59.5,97.5C 63.3411,95.9974 67.3411,94.6641 71.5,93.5 Z"/></g>
<g><path style="opacity:0.212" fill="#dcbde6" d="M 39.5,96.5 C 45.1377,97.2197 50.8044,97.553 56.5,97.5C 54.5274,98.1627 52.3608,98.4961 50,98.5C 46.2178,98.6209 42.7178,97.9542 39.5,96.5 Z"/></g>
<g><path style="opacity:0.831" fill="#c997d7" d="M 33.5,101.5 C 36.1522,101.41 38.4855,102.076 40.5,103.5C 37.8478,103.59 35.5145,102.924 33.5,101.5 Z"/></g>
</svg>
