<?xml version="1.0" encoding="UTF-8"?>
<!DOCTYPE svg PUBLIC "-//W3C//DTD SVG 1.1//EN" "http://www.w3.org/Graphics/SVG/1.1/DTD/svg11.dtd">
<svg xmlns="http://www.w3.org/2000/svg" version="1.1" width="104px" height="105px" style="shape-rendering:geometricPrecision; text-rendering:geometricPrecision; image-rendering:optimizeQuality; fill-rule:evenodd; clip-rule:evenodd" xmlns:xlink="http://www.w3.org/1999/xlink">
<g><path style="opacity:1" fill="#a454bd" d="M 40.5,-0.5 C 47.8333,-0.5 55.1667,-0.5 62.5,-0.5C 73.356,2.59748 82.6894,8.26415 90.5,16.5C 90.427,18.0269 91.0937,19.0269 92.5,19.5C 94.2624,20.2623 95.2624,21.5956 95.5,23.5C 95.427,25.0269 96.0937,26.0269 97.5,26.5C 99.2927,28.4261 100.293,30.7594 100.5,33.5C 100.723,37.1621 101.723,40.4954 103.5,43.5C 103.5,50.5 103.5,57.5 103.5,64.5C 97.0608,85.2729 83.3941,98.6062 62.5,104.5C 55.1667,104.5 47.8333,104.5 40.5,104.5C 40.5,104.167 40.5,103.833 40.5,103.5C 38.4855,102.076 36.1522,101.41 33.5,101.5C 27.6953,99.7675 22.6953,96.7675 18.5,92.5C 18.0269,91.0937 17.0269,90.427 15.5,90.5C 7.85474,82.8771 2.52141,73.8771 -0.5,63.5C -0.5,55.8333 -0.5,48.1667 -0.5,40.5C -0.166667,40.5 0.166667,40.5 0.5,40.5C 1.92381,38.4855 2.59047,36.1522 2.5,33.5C 4.24604,27.6623 7.24604,22.6623 11.5,18.5C 14.1667,16.5 16.5,14.1667 18.5,11.5C 20.9505,8.72316 23.9505,6.72316 27.5,5.5C 29.0269,5.57298 30.0269,4.90632 30.5,3.5C 31.391,2.89022 32.391,2.55688 33.5,2.5C 36.1522,2.59047 38.4855,1.92381 40.5,0.5C 40.5,0.166667 40.5,-0.166667 40.5,-0.5 Z M 62.5,4.5 C 63.9303,5.53747 65.597,6.20414 67.5,6.5C 70.1618,7.49857 72.8284,8.49857 75.5,9.5C 75.9731,10.9063 76.9731,11.573 78.5,11.5C 82.8333,15.1667 86.8333,19.1667 90.5,23.5C 71.8333,24.1667 53.1667,24.8333 34.5,25.5C 34.1667,25.5 33.8333,25.5 33.5,25.5C 31.9731,25.427 30.9731,26.0937 30.5,27.5C 27.0627,29.0226 25.0627,31.6893 24.5,35.5C 23.6683,53.6621 23.1683,71.9954 23,90.5C 22.6174,89.944 22.1174,89.6107 21.5,89.5C 19.5,87.8333 17.5,86.1667 15.5,84.5C 15.2624,82.5956 14.2624,81.2623 12.5,80.5C 12.573,78.9731 11.9063,77.9731 10.5,77.5C -0.828731,54.3062 2.5046,33.4728 20.5,15C 32.9592,5.55185 46.9592,2.05185 62.5,4.5 Z M 98.5,40.5 C 98.5,42.1667 98.5,43.8333 98.5,45.5C 88.3194,45.8274 78.3194,45.494 68.5,44.5C 70.4109,44.4257 71.5776,43.4257 72,41.5C 73.3197,35.9744 71.153,32.641 65.5,31.5C 63.8295,31.6682 62.4961,32.3349 61.5,33.5C 60.0937,33.9731 59.427,34.9731 59.5,36.5C 59.5,36.8333 59.5,37.1667 59.5,37.5C 58.8333,36.8333 58.1667,36.1667 57.5,35.5C 54.9717,31.5346 51.6384,30.7012 47.5,33C 46.1772,33.8159 45.5106,34.9826 45.5,36.5C 44.8333,36.5 44.1667,36.5 43.5,36.5C 41.5245,31.6854 38.1911,30.5188 33.5,33C 29.2109,37.3518 29.5442,41.1851 34.5,44.5C 32.7354,45.4614 30.7354,45.7947 28.5,45.5C 28.5,42.5 28.5,39.5 28.5,36.5C 29.7053,33.1284 32.0386,30.9617 35.5,30C 55.1751,29.167 74.8418,29.3336 94.5,30.5C 95.6645,34.0128 96.9978,37.3462 98.5,40.5 Z M 39.5,39.5 C 38.609,40.1098 37.609,40.4431 36.5,40.5C 35.1328,38.9073 35.4661,37.5739 37.5,36.5C 38.9185,37.0047 39.5852,38.0047 39.5,39.5 Z M 52.5,36.5 C 53.1098,37.391 53.4431,38.391 53.5,39.5C 53.5,40.1667 53.1667,40.5 52.5,40.5C 51.391,40.4431 50.391,40.1098 49.5,39.5C 49.5,37.5 50.5,36.5 52.5,36.5 Z M 66.5,36.5 C 67.2341,37.7079 67.5674,39.0413 67.5,40.5C 66.0413,40.5674 64.7079,40.2341 63.5,39.5C 63.5,37.5 64.5,36.5 66.5,36.5 Z M 59.5,40.5 C 59.8333,42.8333 61.1667,44.1667 63.5,44.5C 60.5,45.8333 57.5,45.8333 54.5,44.5C 55.8333,43.8333 56.8333,42.8333 57.5,41.5C 58.1667,41.1667 58.8333,40.8333 59.5,40.5 Z M 43.5,40.5 C 44.1667,40.5 44.8333,40.5 45.5,40.5C 45.8333,42.8333 47.1667,44.1667 49.5,44.5C 46.5,45.8333 43.5,45.8333 40.5,44.5C 42.2624,43.7377 43.2624,42.4044 43.5,40.5 Z M 98.5,63.5 C 97.4625,64.9303 96.7959,66.597 96.5,68.5C 95.6373,70.4214 94.9707,72.4214 94.5,74.5C 93.0937,74.9731 92.427,75.9731 92.5,77.5C 87.0385,85.9587 79.7052,92.2921 70.5,96.5C 68.597,96.7959 66.9303,97.4625 65.5,98.5C 65.1667,98.5 64.8333,98.5 64.5,98.5C 61.3112,98.8583 58.3112,99.525 55.5,100.5C 46.1674,100.585 37.334,98.585 29,94.5C 28.5001,79.8371 28.3334,65.1705 28.5,50.5C 52.1667,50.5 75.8333,50.5 99.5,50.5C 99.2605,54.8422 98.9272,59.1756 98.5,63.5 Z M 58.5,73.5 C 57.0937,73.9731 56.427,74.9731 56.5,76.5C 49.1802,79.5424 44.5135,77.3757 42.5,70C 44.1657,62.6676 48.499,60.3342 55.5,63C 58.1001,65.9836 59.1001,69.4836 58.5,73.5 Z"/></g>
<g><path style="opacity:0.824" fill="#c590d5" d="M 40.5,0.5 C 38.4855,1.92381 36.1522,2.59047 33.5,2.5C 35.5145,1.07619 37.8478,0.409526 40.5,0.5 Z"/></g>
<g><path style="opacity:0.749" fill="#cb9bda" d="M 30.5,3.5 C 30.0269,4.90632 29.0269,5.57298 27.5,5.5C 27.9731,4.09368 28.9731,3.42702 30.5,3.5 Z"/></g>
<g><path style="opacity:0.784" fill="#cea1db" d="M 62.5,4.5 C 64.698,4.12012 66.3646,4.78679 67.5,6.5C 65.597,6.20414 63.9303,5.53747 62.5,4.5 Z"/></g>
<g><path style="opacity:0.529" fill="#cb9cda" d="M 75.5,9.5 C 77.0269,9.42702 78.0269,10.0937 78.5,11.5C 76.9731,11.573 75.9731,10.9063 75.5,9.5 Z"/></g>
<g><path style="opacity:0.71" fill="#cd9edb" d="M 18.5,11.5 C 16.5,14.1667 14.1667,16.5 11.5,18.5C 12.8333,15.1667 15.1667,12.8333 18.5,11.5 Z"/></g>
<g><path style="opacity:0.686" fill="#d2a9df" d="M 90.5,16.5 C 91.9063,16.9731 92.573,17.9731 92.5,19.5C 91.0937,19.0269 90.427,18.0269 90.5,16.5 Z"/></g>
<g><path style="opacity:0.212" fill="#e7d3ee" d="M 90.5,23.5 C 91.0431,23.56 91.3764,23.8933 91.5,24.5C 72.5117,25.4996 53.5117,25.8329 34.5,25.5C 53.1667,24.8333 71.8333,24.1667 90.5,23.5 Z"/></g>
<g><path style="opacity:0.349" fill="#dab7e4" d="M 95.5,23.5 C 96.9063,23.9731 97.573,24.9731 97.5,26.5C 96.0937,26.0269 95.427,25.0269 95.5,23.5 Z"/></g>
<g><path style="opacity:0.776" fill="#ca99d9" d="M 33.5,25.5 C 33.0269,26.9063 32.0269,27.573 30.5,27.5C 30.9731,26.0937 31.9731,25.427 33.5,25.5 Z"/></g>
<g><path style="opacity:1" fill="#a75ac0" d="M 43.5,36.5 C 43.5,37.8333 43.5,39.1667 43.5,40.5C 43.2624,42.4044 42.2624,43.7377 40.5,44.5C 38.5,44.5 36.5,44.5 34.5,44.5C 29.5442,41.1851 29.2109,37.3518 33.5,33C 38.1911,30.5188 41.5245,31.6854 43.5,36.5 Z M 39.5,39.5 C 38.609,40.1098 37.609,40.4431 36.5,40.5C 35.1328,38.9073 35.4661,37.5739 37.5,36.5C 38.9185,37.0047 39.5852,38.0047 39.5,39.5 Z"/></g>
<g><path style="opacity:1" fill="#a251bc" d="M 57.5,35.5 C 57.5,37.5 57.5,39.5 57.5,41.5C 56.8333,42.8333 55.8333,43.8333 54.5,44.5C 52.8333,44.5 51.1667,44.5 49.5,44.5C 47.1667,44.1667 45.8333,42.8333 45.5,40.5C 45.5,39.1667 45.5,37.8333 45.5,36.5C 45.5106,34.9826 46.1772,33.8159 47.5,33C 51.6384,30.7012 54.9717,31.5346 57.5,35.5 Z M 52.5,36.5 C 53.1098,37.391 53.4431,38.391 53.5,39.5C 53.5,40.1667 53.1667,40.5 52.5,40.5C 51.391,40.4431 50.391,40.1098 49.5,39.5C 49.5,37.5 50.5,36.5 52.5,36.5 Z"/></g>
<g><path style="opacity:1" fill="#a454bd" d="M 68.5,44.5 C 66.8333,44.5 65.1667,44.5 63.5,44.5C 61.1667,44.1667 59.8333,42.8333 59.5,40.5C 59.5,39.5 59.5,38.5 59.5,37.5C 59.5,37.1667 59.5,36.8333 59.5,36.5C 60.9063,36.0269 61.573,35.0269 61.5,33.5C 62.4961,32.3349 63.8295,31.6682 65.5,31.5C 71.153,32.641 73.3197,35.9744 72,41.5C 71.5776,43.4257 70.4109,44.4257 68.5,44.5 Z M 66.5,36.5 C 67.2341,37.7079 67.5674,39.0413 67.5,40.5C 66.0413,40.5674 64.7079,40.2341 63.5,39.5C 63.5,37.5 64.5,36.5 66.5,36.5 Z"/></g>
<g><path style="opacity:0.408" fill="#d5afe1" d="M 61.5,33.5 C 61.573,35.0269 60.9063,36.0269 59.5,36.5C 59.427,34.9731 60.0937,33.9731 61.5,33.5 Z"/></g>
<g><path style="opacity:0.784" fill="#cea2dc" d="M 2.5,33.5 C 2.59047,36.1522 1.92381,38.4855 0.5,40.5C 0.409526,37.8478 1.07619,35.5145 2.5,33.5 Z"/></g>
<g><path style="opacity:0.918" fill="#c793d6" d="M 100.5,33.5 C 101.5,35.5 102.5,37.5 103.5,39.5C 103.5,40.8333 103.5,42.1667 103.5,43.5C 101.723,40.4954 100.723,37.1621 100.5,33.5 Z"/></g>
<g><path style="opacity:0.241" fill="#f1e4f5" d="M 57.5,35.5 C 58.1667,36.1667 58.8333,36.8333 59.5,37.5C 59.5,38.5 59.5,39.5 59.5,40.5C 58.8333,40.8333 58.1667,41.1667 57.5,41.5C 57.5,39.5 57.5,37.5 57.5,35.5 Z"/></g>
<g><path style="opacity:0.279" fill="#e0c4e9" d="M 24.5,35.5 C 24.5,54.1667 24.5,72.8333 24.5,91.5C 22.8212,91.7148 21.8212,91.0481 21.5,89.5C 22.1174,89.6107 22.6174,89.944 23,90.5C 23.1683,71.9954 23.6683,53.6621 24.5,35.5 Z"/></g>
<g><path style="opacity:0.102" fill="#f5ecf8" d="M 43.5,36.5 C 44.1667,36.5 44.8333,36.5 45.5,36.5C 45.5,37.8333 45.5,39.1667 45.5,40.5C 44.8333,40.5 44.1667,40.5 43.5,40.5C 43.5,39.1667 43.5,37.8333 43.5,36.5 Z"/></g>
<g><path style="opacity:0.302" fill="#d1a8de" d="M 52.5,36.5 C 54.5518,37.0527 54.8852,38.0527 53.5,39.5C 53.4431,38.391 53.1098,37.391 52.5,36.5 Z"/></g>
<g><path style="opacity:0.235" fill="#d3abdf" d="M 66.5,36.5 C 67.5862,36.62 68.2528,37.2867 68.5,38.5C 68.4573,39.4164 68.1239,40.0831 67.5,40.5C 67.5674,39.0413 67.2341,37.7079 66.5,36.5 Z"/></g>
<g><path style="opacity:0.682" fill="#d3abdf" d="M 39.5,39.5 C 38.9473,41.5518 37.9473,41.8852 36.5,40.5C 37.609,40.4431 38.609,40.1098 39.5,39.5 Z"/></g>
<g><path style="opacity:0.243" fill="#dab8e4" d="M 49.5,39.5 C 50.391,40.1098 51.391,40.4431 52.5,40.5C 51.0527,41.8852 50.0527,41.5518 49.5,39.5 Z"/></g>
<g><path style="opacity:0.251" fill="#d0a6de" d="M 63.5,39.5 C 64.7079,40.2341 66.0413,40.5674 67.5,40.5C 67.0831,41.1239 66.4164,41.4573 65.5,41.5C 64.2867,41.2528 63.62,40.5862 63.5,39.5 Z"/></g>
<g><path style="opacity:0.051" fill="#f4ebf7" d="M 28.5,36.5 C 28.5,39.5 28.5,42.5 28.5,45.5C 30.7354,45.7947 32.7354,45.4614 34.5,44.5C 36.5,44.5 38.5,44.5 40.5,44.5C 43.5,45.8333 46.5,45.8333 49.5,44.5C 51.1667,44.5 52.8333,44.5 54.5,44.5C 57.5,45.8333 60.5,45.8333 63.5,44.5C 65.1667,44.5 66.8333,44.5 68.5,44.5C 78.3194,45.494 88.3194,45.8274 98.5,45.5C 98.5,43.8333 98.5,42.1667 98.5,40.5C 99.4614,42.2646 99.7947,44.2646 99.5,46.5C 75.5,46.5 51.5,46.5 27.5,46.5C 27.1872,42.9581 27.5206,39.6248 28.5,36.5 Z M 59.5,40.5 C 59.8333,42.8333 61.1667,44.1667 63.5,44.5C 60.5,45.8333 57.5,45.8333 54.5,44.5C 55.8333,43.8333 56.8333,42.8333 57.5,41.5C 58.1667,41.1667 58.8333,40.8333 59.5,40.5 Z M 43.5,40.5 C 44.1667,40.5 44.8333,40.5 45.5,40.5C 45.8333,42.8333 47.1667,44.1667 49.5,44.5C 46.5,45.8333 43.5,45.8333 40.5,44.5C 42.2624,43.7377 43.2624,42.4044 43.5,40.5 Z"/></g>
<g><path style="opacity:1" fill="#ab62c3" d="M 70.5,86.5 C 70.8333,87.8333 71.1667,89.1667 71.5,90.5C 70.7494,91.5735 69.7494,91.7401 68.5,91C 65,87.5 61.5,84 58,80.5C 48.3101,85.2094 41.6434,82.5427 38,72.5C 37.4001,63.5856 41.5668,58.2522 50.5,56.5C 60.8241,58.1325 64.9908,64.1325 63,74.5C 62.6258,75.4162 62.1258,76.2496 61.5,77C 64.7044,80.0359 67.7044,83.2026 70.5,86.5 Z M 58.5,73.5 C 57.0937,73.9731 56.427,74.9731 56.5,76.5C 49.1802,79.5424 44.5135,77.3757 42.5,70C 44.1657,62.6676 48.499,60.3342 55.5,63C 58.1001,65.9836 59.1001,69.4836 58.5,73.5 Z"/></g>
<g><path style="opacity:0.769" fill="#d1a6de" d="M 98.5,63.5 C 98.8799,65.698 98.2132,67.3646 96.5,68.5C 96.7959,66.597 97.4625,64.9303 98.5,63.5 Z"/></g>
<g><path style="opacity:0.659" fill="#d4abdf" d="M 58.5,73.5 C 58.573,75.0269 57.9063,76.0269 56.5,76.5C 56.427,74.9731 57.0937,73.9731 58.5,73.5 Z"/></g>
<g><path style="opacity:0.31" fill="#dbbae5" d="M 94.5,74.5 C 94.573,76.0269 93.9063,77.0269 92.5,77.5C 92.427,75.9731 93.0937,74.9731 94.5,74.5 Z"/></g>
<g><path style="opacity:0.388" fill="#d9b6e4" d="M 10.5,77.5 C 11.9063,77.9731 12.573,78.9731 12.5,80.5C 11.0937,80.0269 10.427,79.0269 10.5,77.5 Z"/></g>
<g><path style="opacity:0.78" fill="#d2a7de" d="M 12.5,80.5 C 14.2624,81.2623 15.2624,82.5956 15.5,84.5C 13.7376,83.7377 12.7376,82.4044 12.5,80.5 Z"/></g>
<g><path style="opacity:0.333" fill="#dcbce6" d="M 70.5,86.5 C 72.5195,87.5383 72.8528,88.8716 71.5,90.5C 71.1667,89.1667 70.8333,87.8333 70.5,86.5 Z"/></g>
<g><path style="opacity:0.667" fill="#d4abe0" d="M 15.5,90.5 C 17.0269,90.427 18.0269,91.0937 18.5,92.5C 16.9731,92.573 15.9731,91.9063 15.5,90.5 Z"/></g>
<g><path style="opacity:0.847" fill="#ca9bd9" d="M 70.5,96.5 C 69.3646,98.2132 67.698,98.8799 65.5,98.5C 66.9303,97.4625 68.597,96.7959 70.5,96.5 Z"/></g>
<g><path style="opacity:0.749" fill="#d4ace0" d="M 64.5,98.5 C 61.8774,100.265 58.8774,100.932 55.5,100.5C 58.3112,99.525 61.3112,98.8583 64.5,98.5 Z"/></g>
<g><path style="opacity:0.843" fill="#c793d6" d="M 33.5,101.5 C 36.1522,101.41 38.4855,102.076 40.5,103.5C 37.8478,103.59 35.5145,102.924 33.5,101.5 Z"/></g>
</svg>
