<?xml version="1.0" encoding="UTF-8"?>
<!DOCTYPE svg PUBLIC "-//W3C//DTD SVG 1.1//EN" "http://www.w3.org/Graphics/SVG/1.1/DTD/svg11.dtd">
<svg xmlns="http://www.w3.org/2000/svg" version="1.1" width="104px" height="105px" style="shape-rendering:geometricPrecision; text-rendering:geometricPrecision; image-rendering:optimizeQuality; fill-rule:evenodd; clip-rule:evenodd" xmlns:xlink="http://www.w3.org/1999/xlink">
<g><path style="opacity:1" fill="#ab61c2" d="M 40.5,-0.5 C 47.8333,-0.5 55.1667,-0.5 62.5,-0.5C 86.3715,7.04885 99.0381,23.3822 100.5,48.5C 98.8333,48.5 97.1667,48.5 95.5,48.5C 95.2288,41.1391 93.5622,34.1391 90.5,27.5C 90.7148,25.8212 90.0481,24.8212 88.5,24.5C 73.2231,4.34679 53.8897,-0.819881 30.5,9C 15.8984,18.1074 8.23172,31.2741 7.5,48.5C 5.83333,48.5 4.16667,48.5 2.5,48.5C 2.19,45.2869 2.52333,42.2869 3.5,39.5C 4.92381,37.4855 5.59047,35.1522 5.5,32.5C 6.04207,29.0878 7.3754,26.0878 9.5,23.5C 10.9063,23.0269 11.573,22.0269 11.5,20.5C 12.9063,20.0269 13.573,19.0269 13.5,17.5C 20.7204,8.73046 29.7204,2.73046 40.5,-0.5 Z"/></g>
<g><path style="opacity:0.486" fill="#d3aadf" d="M 13.5,17.5 C 13.573,19.0269 12.9063,20.0269 11.5,20.5C 11.427,18.9731 12.0937,17.9731 13.5,17.5 Z"/></g>
<g><path style="opacity:0.463" fill="#d1a6de" d="M 11.5,20.5 C 11.573,22.0269 10.9063,23.0269 9.5,23.5C 9.42702,21.9731 10.0937,20.9731 11.5,20.5 Z"/></g>
<g><path style="opacity:0.812" fill="#d4abdf" d="M 88.5,24.5 C 90.0481,24.8212 90.7148,25.8212 90.5,27.5C 89.5987,26.7095 88.9321,25.7095 88.5,24.5 Z"/></g>
<g><path style="opacity:0.253" fill="#e9d6ef" d="M 38.5,31.5 C 39.3864,30.2241 40.3864,30.2241 41.5,31.5C 41.3764,32.1067 41.0431,32.44 40.5,32.5C 40.1583,31.6618 39.4916,31.3284 38.5,31.5 Z"/></g>
<g><path style="opacity:0.13" fill="#edddf2" d="M 47.5,30.5 C 48.209,29.596 49.209,29.2627 50.5,29.5C 50.8222,35.358 50.4889,41.0247 49.5,46.5C 50.1128,40.7291 49.4461,35.3958 47.5,30.5 Z"/></g>
<g><path style="opacity:1" fill="#9b43b7" d="M 55.5,30.5 C 56.4916,30.3284 57.1583,30.6618 57.5,31.5C 57.7376,33.4044 58.7376,34.7377 60.5,35.5C 60.427,37.0269 61.0937,38.0269 62.5,38.5C 64.5248,40.7258 65.1915,43.2258 64.5,46C 60.8484,46.4986 57.1817,46.6653 53.5,46.5C 52.8872,40.7291 53.5539,35.3958 55.5,30.5 Z"/></g>
<g><path style="opacity:0.306" fill="#e5ceec" d="M 63.5,31.5 C 62.8333,31.5 62.5,31.8333 62.5,32.5C 61.7109,32.2172 61.0442,31.7172 60.5,31C 61.7494,30.2599 62.7494,30.4265 63.5,31.5 Z"/></g>
<g><path style="opacity:0.776" fill="#c793d7" d="M 47.5,30.5 C 47.0269,31.9063 46.0269,32.573 44.5,32.5C 44.9731,31.0937 45.9731,30.427 47.5,30.5 Z"/></g>
<g><path style="opacity:1" fill="#9a43b7" d="M 47.5,30.5 C 49.4461,35.3958 50.1128,40.7291 49.5,46.5C 36.5496,48.8989 34.2163,45.2323 42.5,35.5C 43.9063,35.0269 44.573,34.0269 44.5,32.5C 46.0269,32.573 47.0269,31.9063 47.5,30.5 Z"/></g>
<g><path style="opacity:0.248" fill="#e2c9ea" d="M 55.5,30.5 C 53.5539,35.3958 52.8872,40.7291 53.5,46.5C 52.5111,41.0247 52.1778,35.358 52.5,29.5C 53.791,29.2627 54.791,29.596 55.5,30.5 Z"/></g>
<g><path style="opacity:1" fill="#9f4bba" d="M 38.5,31.5 C 39.4916,31.3284 40.1583,31.6618 40.5,32.5C 39.0713,35.6963 37.4046,38.6963 35.5,41.5C 34.8444,42.2778 34.0111,42.9444 33,43.5C 31.2341,42.7665 29.4008,42.4332 27.5,42.5C 27.1667,42.5 26.8333,42.5 26.5,42.5C 25.8902,41.609 25.5569,40.609 25.5,39.5C 27.0269,39.573 28.0269,38.9063 28.5,37.5C 28.5,36.8333 28.8333,36.5 29.5,36.5C 31.0269,36.573 32.0269,35.9063 32.5,34.5C 34.1815,32.9925 36.1815,31.9925 38.5,31.5 Z"/></g>
<g><path style="opacity:0.733" fill="#d4abe0" d="M 57.5,31.5 C 59.2624,32.2623 60.2624,33.5956 60.5,35.5C 58.7376,34.7377 57.7376,33.4044 57.5,31.5 Z"/></g>
<g><path style="opacity:1" fill="#a454bd" d="M 63.5,31.5 C 68.5455,32.5533 72.8788,34.8867 76.5,38.5C 76.4142,39.4959 76.7476,40.3292 77.5,41C 76.5842,41.2784 75.9175,41.7784 75.5,42.5C 74.791,43.404 73.791,43.7373 72.5,43.5C 70.7085,43.634 69.0418,43.3007 67.5,42.5C 65.8201,39.1401 64.1534,35.8068 62.5,32.5C 62.5,31.8333 62.8333,31.5 63.5,31.5 Z"/></g>
<g><path style="opacity:0.78" fill="#ca9ad9" d="M 44.5,32.5 C 44.573,34.0269 43.9063,35.0269 42.5,35.5C 42.427,33.9731 43.0937,32.9731 44.5,32.5 Z"/></g>
<g><path style="opacity:0.741" fill="#ca9ad9" d="M 32.5,34.5 C 32.0269,35.9063 31.0269,36.573 29.5,36.5C 29.9731,35.0937 30.9731,34.427 32.5,34.5 Z"/></g>
<g><path style="opacity:0.361" fill="#d7b3e2" d="M 60.5,35.5 C 61.9063,35.9731 62.573,36.9731 62.5,38.5C 61.0937,38.0269 60.427,37.0269 60.5,35.5 Z"/></g>
<g><path style="opacity:0.565" fill="#cc9edb" d="M 5.5,32.5 C 5.59047,35.1522 4.92381,37.4855 3.5,39.5C 3.40953,36.8478 4.07619,34.5145 5.5,32.5 Z"/></g>
<g><path style="opacity:0.671" fill="#cea1dc" d="M 28.5,37.5 C 28.0269,38.9063 27.0269,39.573 25.5,39.5C 25.9731,38.0937 26.9731,37.427 28.5,37.5 Z"/></g>
<g><path style="opacity:0.349" fill="#e1c5e9" d="M 76.5,38.5 C 78.1042,39.287 78.7709,40.6203 78.5,42.5C 77.5,42.5 76.5,42.5 75.5,42.5C 75.9175,41.7784 76.5842,41.2784 77.5,41C 76.7476,40.3292 76.4142,39.4959 76.5,38.5 Z"/></g>
<g><path style="opacity:0.196" fill="#e8d3ee" d="M 25.5,39.5 C 25.5569,40.609 25.8902,41.609 26.5,42.5C 24.4482,41.9473 24.1148,40.9473 25.5,39.5 Z"/></g>
<g><path style="opacity:0.643" fill="#c998d8" d="M 35.5,41.5 C 35.5,42.5 35.5,43.5 35.5,44.5C 32.5049,44.7062 29.8383,44.0395 27.5,42.5C 29.4008,42.4332 31.2341,42.7665 33,43.5C 34.0111,42.9444 34.8444,42.2778 35.5,41.5 Z"/></g>
<g><path style="opacity:0.545" fill="#d4ace0" d="M 67.5,42.5 C 69.0418,43.3007 70.7085,43.634 72.5,43.5C 71.9032,44.1386 71.0698,44.472 70,44.5C 68.6244,44.3158 67.7911,43.6491 67.5,42.5 Z"/></g>
<g><path style="opacity:1" fill="#973db5" d="M 31.5,61.5 C 30.596,62.209 30.2627,63.209 30.5,64.5C 25.1667,64.5 19.8333,64.5 14.5,64.5C 14.5,63.5 14.5,62.5 14.5,61.5C 14.5,61.1667 14.5,60.8333 14.5,60.5C 15.9238,58.4855 16.5905,56.1522 16.5,53.5C 16.9925,51.1815 17.9925,49.1815 19.5,47.5C 20.9063,47.0269 21.573,46.0269 21.5,44.5C 21.56,43.9569 21.8933,43.6236 22.5,43.5C 25.9697,44.9878 29.4697,46.3211 33,47.5C 33.1126,52.2156 32.6126,56.8823 31.5,61.5 Z"/></g>
<g><path style="opacity:1" fill="#963cb4" d="M 81.5,44.5 C 81.427,46.0269 82.0937,47.0269 83.5,47.5C 86.8438,51.8488 88.5105,56.8488 88.5,62.5C 83.6042,64.4461 78.2709,65.1128 72.5,64.5C 72.2474,60.9601 71.5808,57.6267 70.5,54.5C 69.2215,51.9976 69.2215,49.4976 70.5,47C 73.93,46.1188 77.2633,44.9521 80.5,43.5C 81.1067,43.6236 81.44,43.9569 81.5,44.5 Z"/></g>
<g><path style="opacity:0.498" fill="#cfa3dc" d="M 21.5,44.5 C 21.573,46.0269 20.9063,47.0269 19.5,47.5C 19.427,45.9731 20.0937,44.9731 21.5,44.5 Z"/></g>
<g><path style="opacity:0.341" fill="#dcbce6" d="M 81.5,44.5 C 82.9063,44.9731 83.573,45.9731 83.5,47.5C 82.0937,47.0269 81.427,46.0269 81.5,44.5 Z"/></g>
<g><path style="opacity:1" fill="#9437b3" d="M 49.5,49.5 C 49.5,54.5 49.5,59.5 49.5,64.5C 44.8333,64.5 40.1667,64.5 35.5,64.5C 35.5,61.1667 35.5,57.8333 35.5,54.5C 35.2606,52.5328 35.5939,50.6995 36.5,49C 40.8351,48.7368 45.1684,48.9035 49.5,49.5 Z"/></g>
<g><path style="opacity:1" fill="#9336b2" d="M 67.5,55.5 C 67.5,58.5 67.5,61.5 67.5,64.5C 62.8333,64.5 58.1667,64.5 53.5,64.5C 53.5,59.5 53.5,54.5 53.5,49.5C 57.8746,48.7264 62.2079,48.7264 66.5,49.5C 67.3482,51.4086 67.6816,53.4086 67.5,55.5 Z"/></g>
<g><path style="opacity:1" fill="#9a43b7" d="M -0.5,51.5 C 3.43669,51.2065 7.27002,51.5399 11,52.5C 11.6667,60.8333 11.6667,69.1667 11,77.5C 7.27002,78.4601 3.43669,78.7935 -0.5,78.5C -0.5,69.5 -0.5,60.5 -0.5,51.5 Z"/></g>
<g><path style="opacity:1" fill="#9941b6" d="M 103.5,51.5 C 103.5,60.5 103.5,69.5 103.5,78.5C 99.5633,78.7935 95.73,78.4601 92,77.5C 91.3333,69.1667 91.3333,60.8333 92,52.5C 95.73,51.5399 99.5633,51.2065 103.5,51.5 Z"/></g>
<g><path style="opacity:0.58" fill="#cc9ddb" d="M 16.5,53.5 C 16.5905,56.1522 15.9238,58.4855 14.5,60.5C 14.4095,57.8478 15.0762,55.5145 16.5,53.5 Z"/></g>
<g><path style="opacity:0.617" fill="#c28dd4" d="M 14.5,61.5 C 14.5,62.5 14.5,63.5 14.5,64.5C 19.8333,64.5 25.1667,64.5 30.5,64.5C 30.2627,63.209 30.596,62.209 31.5,61.5C 31.5,62.8333 31.5,64.1667 31.5,65.5C 25.5,65.5 19.5,65.5 13.5,65.5C 13.2322,63.901 13.5655,62.5676 14.5,61.5 Z"/></g>
<g><path style="opacity:0.617" fill="#cda1dc" d="M 49.5,49.5 C 50.4881,54.6405 50.8214,59.9738 50.5,65.5C 45.1667,65.5 39.8333,65.5 34.5,65.5C 34.185,61.6286 34.5184,57.9619 35.5,54.5C 35.5,57.8333 35.5,61.1667 35.5,64.5C 40.1667,64.5 44.8333,64.5 49.5,64.5C 49.5,59.5 49.5,54.5 49.5,49.5 Z"/></g>
<g><path style="opacity:0.618" fill="#ca9cda" d="M 53.5,49.5 C 53.5,54.5 53.5,59.5 53.5,64.5C 58.1667,64.5 62.8333,64.5 67.5,64.5C 67.5,61.5 67.5,58.5 67.5,55.5C 68.4794,58.6248 68.8128,61.9581 68.5,65.5C 63.1667,65.5 57.8333,65.5 52.5,65.5C 52.1786,59.9738 52.5119,54.6405 53.5,49.5 Z"/></g>
<g><path style="opacity:0.618" fill="#ca9ad9" d="M 70.5,54.5 C 71.5808,57.6267 72.2474,60.9601 72.5,64.5C 78.2709,65.1128 83.6042,64.4461 88.5,62.5C 89.404,63.209 89.7373,64.209 89.5,65.5C 83.5,65.5 77.5,65.5 71.5,65.5C 70.7564,61.8815 70.423,58.2148 70.5,54.5 Z"/></g>
<g><path style="opacity:0.621" fill="#c28bd3" d="M 31.5,73.5 C 30.5655,72.4324 30.2322,71.099 30.5,69.5C 25.1667,69.5 19.8333,69.5 14.5,69.5C 14.5,70.5 14.5,71.5 14.5,72.5C 13.5655,71.4324 13.2322,70.099 13.5,68.5C 19.5,68.5 25.5,68.5 31.5,68.5C 31.5,70.1667 31.5,71.8333 31.5,73.5 Z"/></g>
<g><path style="opacity:0.621" fill="#c28cd3" d="M 49.5,68.5 C 49.5,68.8333 49.5,69.1667 49.5,69.5C 44.8333,69.5 40.1667,69.5 35.5,69.5C 35.5,72.8333 35.5,76.1667 35.5,79.5C 34.5184,76.0381 34.185,72.3714 34.5,68.5C 39.5,68.5 44.5,68.5 49.5,68.5 Z"/></g>
<g><path style="opacity:0.622" fill="#cd9fdb" d="M 67.5,78.5 C 67.5,75.5 67.5,72.5 67.5,69.5C 62.8333,69.5 58.1667,69.5 53.5,69.5C 53.5,74.5 53.5,79.5 53.5,84.5C 52.5119,79.3595 52.1786,74.0262 52.5,68.5C 57.8333,68.5 63.1667,68.5 68.5,68.5C 68.8128,72.0419 68.4794,75.3752 67.5,78.5 Z"/></g>
<g><path style="opacity:0.621" fill="#c48fd5" d="M 71.5,69.5 C 77.31,68.5104 83.31,68.1771 89.5,68.5C 89.1977,71.3725 88.531,74.0392 87.5,76.5C 87.2436,74.2075 87.5769,72.0408 88.5,70C 82.8431,69.5006 77.1764,69.3339 71.5,69.5 Z"/></g>
<g><path style="opacity:1" fill="#9941b6" d="M 31.5,73.5 C 32.7012,77.7437 33.2012,82.077 33,86.5C 29.4697,87.6789 25.9697,89.0122 22.5,90.5C 17.6698,85.5028 15.0031,79.5028 14.5,72.5C 14.5,71.5 14.5,70.5 14.5,69.5C 19.8333,69.5 25.1667,69.5 30.5,69.5C 30.2322,71.099 30.5655,72.4324 31.5,73.5 Z"/></g>
<g><path style="opacity:1" fill="#9030b0" d="M 49.5,69.5 C 49.5,74.1667 49.5,78.8333 49.5,83.5C 45.1434,83.5865 40.81,83.9198 36.5,84.5C 35.5489,83.0813 35.2155,81.4147 35.5,79.5C 35.5,76.1667 35.5,72.8333 35.5,69.5C 40.1667,69.5 44.8333,69.5 49.5,69.5 Z"/></g>
<g><path style="opacity:1" fill="#9437b3" d="M 67.5,78.5 C 67.6816,80.5914 67.3482,82.5914 66.5,84.5C 62.2079,85.2736 57.8746,85.2736 53.5,84.5C 53.5,79.5 53.5,74.5 53.5,69.5C 58.1667,69.5 62.8333,69.5 67.5,69.5C 67.5,72.5 67.5,75.5 67.5,78.5 Z"/></g>
<g><path style="opacity:1" fill="#9941b6" d="M 71.5,69.5 C 77.1764,69.3339 82.8431,69.5006 88.5,70C 87.5769,72.0408 87.2436,74.2075 87.5,76.5C 86.7372,81.5276 84.7372,86.0276 81.5,90C 77.8354,89.3552 74.1687,88.3552 70.5,87C 69.827,81.1864 70.1603,75.353 71.5,69.5 Z"/></g>
<g><path style="opacity:1" fill="#902eb0" d="M 7.5,98.5 C 7.5,99.8333 8.16667,100.5 9.5,100.5C 15.6446,101.49 21.9779,101.823 28.5,101.5C 28.5,102.5 28.5,103.5 28.5,104.5C 20.1667,104.5 11.8333,104.5 3.5,104.5C 3.5,97.1667 3.5,89.8333 3.5,82.5C 4.5,82.5 5.5,82.5 6.5,82.5C 6.17859,88.0262 6.51192,93.3595 7.5,98.5 Z"/></g>
<g><path style="opacity:0.451" fill="#d2abdf" d="M 7.5,98.5 C 6.51192,93.3595 6.17859,88.0262 6.5,82.5C 5.5,82.5 4.5,82.5 3.5,82.5C 3.5,89.8333 3.5,97.1667 3.5,104.5C 3.16667,104.5 2.83333,104.5 2.5,104.5C 2.5,96.8333 2.5,89.1667 2.5,81.5C 4.16667,81.5 5.83333,81.5 7.5,81.5C 7.5,87.1667 7.5,92.8333 7.5,98.5 Z"/></g>
<g><path style="opacity:0.514" fill="#d7b2e2" d="M 49.5,68.5 C 50.4881,73.6405 50.8214,78.9738 50.5,84.5C 45.6556,85.2174 40.9889,85.2174 36.5,84.5C 40.81,83.9198 45.1434,83.5865 49.5,83.5C 49.5,78.8333 49.5,74.1667 49.5,69.5C 49.5,69.1667 49.5,68.8333 49.5,68.5 Z"/></g>
<g><path style="opacity:1" fill="#9c46b8" d="M 49.5,87.5 C 50.1128,93.2709 49.4461,98.6042 47.5,103.5C 47.0269,102.094 46.0269,101.427 44.5,101.5C 40.7245,97.949 38.5578,93.6156 38,88.5C 41.73,87.5399 45.5633,87.2065 49.5,87.5 Z"/></g>
<g><path style="opacity:0.13" fill="#edddf2" d="M 49.5,87.5 C 50.4889,92.9753 50.8222,98.642 50.5,104.5C 49.5,104.5 48.5,104.5 47.5,104.5C 47.5,104.167 47.5,103.833 47.5,103.5C 49.4461,98.6042 50.1128,93.2709 49.5,87.5 Z"/></g>
<g><path style="opacity:0.248" fill="#e2c9ea" d="M 53.5,87.5 C 52.8872,93.2709 53.5539,98.6042 55.5,103.5C 55.5,103.833 55.5,104.167 55.5,104.5C 54.5,104.5 53.5,104.5 52.5,104.5C 52.1778,98.642 52.5111,92.9753 53.5,87.5 Z"/></g>
<g><path style="opacity:1" fill="#9c46b8" d="M 53.5,87.5 C 55.5,87.5 57.5,87.5 59.5,87.5C 61.5313,87.9724 63.1979,88.9724 64.5,90.5C 63.824,94.1867 62.324,97.5201 60,100.5C 58.871,102.141 57.371,103.141 55.5,103.5C 53.5539,98.6042 52.8872,93.2709 53.5,87.5 Z"/></g>
<g><path style="opacity:0.635" fill="#d1a7de" d="M 30.5,90.5 C 31.0968,89.8614 31.9302,89.528 33,89.5C 34.3756,89.6842 35.2089,90.3509 35.5,91.5C 33.9582,90.6993 32.2915,90.366 30.5,90.5 Z"/></g>
<g><path style="opacity:0.11" fill="#f0e3f4" d="M 59.5,87.5 C 61.5,87.5 63.5,87.5 65.5,87.5C 65.7373,88.791 65.404,89.791 64.5,90.5C 63.1979,88.9724 61.5313,87.9724 59.5,87.5 Z"/></g>
<g><path style="opacity:1" fill="#9f4dbb" d="M 29.5,90.5 C 29.8333,90.5 30.1667,90.5 30.5,90.5C 32.2915,90.366 33.9582,90.6993 35.5,91.5C 37.1667,94.8333 38.8333,98.1667 40.5,101.5C 40.1583,102.338 39.4916,102.672 38.5,102.5C 34.4945,101.502 31.1612,99.5023 28.5,96.5C 28.0269,95.0937 27.0269,94.427 25.5,94.5C 26.6252,93.0001 27.9586,91.6668 29.5,90.5 Z"/></g>
<g><path style="opacity:1" fill="#a557be" d="M 75.5,91.5 C 76.5511,92.2223 77.2178,93.2223 77.5,94.5C 73.584,98.402 68.9174,101.069 63.5,102.5C 62.8333,102.5 62.5,102.167 62.5,101.5C 63.9063,101.027 64.573,100.027 64.5,98.5C 65.7866,95.5939 66.7866,92.5939 67.5,89.5C 70.4951,89.2938 73.1617,89.9605 75.5,91.5 Z"/></g>
<g><path style="opacity:0.878" fill="#cb9bd9" d="M 29.5,90.5 C 27.9586,91.6668 26.6252,93.0001 25.5,94.5C 24.596,93.791 24.2627,92.791 24.5,91.5C 26.2161,91.3713 27.8828,91.038 29.5,90.5 Z"/></g>
<g><path style="opacity:0.173" fill="#e7d0ed" d="M 75.5,91.5 C 76.5,91.5 77.5,91.5 78.5,91.5C 78.7373,92.791 78.404,93.791 77.5,94.5C 77.2178,93.2223 76.5511,92.2223 75.5,91.5 Z"/></g>
<g><path style="opacity:0.671" fill="#d3aadf" d="M 25.5,94.5 C 27.0269,94.427 28.0269,95.0937 28.5,96.5C 26.9731,96.573 25.9731,95.9063 25.5,94.5 Z"/></g>
<g><path style="opacity:0.008" fill="#e8d2ee" d="M 7.5,98.5 C 8.70951,98.9321 9.70951,99.5987 10.5,100.5C 10.1667,100.5 9.83333,100.5 9.5,100.5C 8.16667,100.5 7.5,99.8333 7.5,98.5 Z"/></g>
<g><path style="opacity:0.714" fill="#b575cb" d="M 9.5,100.5 C 9.83333,100.5 10.1667,100.5 10.5,100.5C 16.8333,100.5 23.1667,100.5 29.5,100.5C 29.5,101.833 29.5,103.167 29.5,104.5C 29.1667,104.5 28.8333,104.5 28.5,104.5C 28.5,103.5 28.5,102.5 28.5,101.5C 21.9779,101.823 15.6446,101.49 9.5,100.5 Z"/></g>
<g><path style="opacity:0.455" fill="#d5ade0" d="M 64.5,98.5 C 64.573,100.027 63.9063,101.027 62.5,101.5C 62.427,99.9731 63.0937,98.9731 64.5,98.5 Z"/></g>
<g><path style="opacity:0.776" fill="#cb9cda" d="M 44.5,101.5 C 46.0269,101.427 47.0269,102.094 47.5,103.5C 45.9731,103.573 44.9731,102.906 44.5,101.5 Z"/></g>
<g><path style="opacity:0.302" fill="#e5cfed" d="M 62.5,101.5 C 62.5,102.167 62.8333,102.5 63.5,102.5C 62.7494,103.573 61.7494,103.74 60.5,103C 61.0442,102.283 61.7109,101.783 62.5,101.5 Z"/></g>
<g><path style="opacity:0.253" fill="#eddcf2" d="M 40.5,101.5 C 41.2891,101.783 41.9558,102.283 42.5,103C 40.9343,103.765 39.6009,103.598 38.5,102.5C 39.4916,102.672 40.1583,102.338 40.5,101.5 Z"/></g>
</svg>
